<?xml version="1.0" encoding="utf-8"?>
<!-- Generator: Adobe Illustrator 21.1.0, SVG Export Plug-In . SVG Version: 6.00 Build 0)  -->
<svg version="1.1" id="Calque_1" xmlns="http://www.w3.org/2000/svg" xmlns:xlink="http://www.w3.org/1999/xlink" x="0px" y="0px"
	 viewBox="0 0 632.6 535.7" style="enable-background:new 0 0 632.6 535.7;" xml:space="preserve">
<style type="text/css">
	.st0{fill:#FCCC04;stroke:#000000;stroke-width:2;stroke-miterlimit:10;}
	.st1{fill:#FCCC04;}
</style>
<path d="M315.8,0.5c-138.1,0-250,111.9-250,250s111.9,250,250,250s250-111.9,250-250S453.9,0.5,315.8,0.5z M126.2,346.6
	c-1.1,1.4-1.6,3.4-0.6,5.5c0.2,0.4,0.4,0.8,0.6,1.2c-0.7,0.1-1.3,0.1-2,0.2c-2.6,0.3-3.8,3.3-3.6,5.6c-0.2,0-0.3,0-0.5,0
	c-0.1,0-0.3,0-0.4,0.1c-0.7-1.5-1.3-3-1.9-4.6c-16-43-24-88-25-133c0-20.3,6.3-37.9,15.6-54.2c-7.1,21.6-11,44.6-11,68.6
	c0,39.9,10.7,77.3,29.4,109.5C126.5,345.8,126.3,346.2,126.2,346.6z M150.8,405.6c-6.5-9.2-13.5-17.8-19.8-26.8
	c0.5-0.1,1-0.2,1.4-0.4c7.5,10,14.6,20.2,21.5,30.7C152.9,407.9,151.9,406.8,150.8,405.6z M163.1,404.8
	c-6.7-10.1-13.6-19.9-20.7-29.6c0.4-0.9,0.6-1.9,0.4-3.1c-0.2-1.2-0.4-2.5-0.7-3.7c4.8,6.3,9.9,12.3,15.4,18.1
	c-0.1,0.5-0.2,1-0.2,1.5c-1.4,2.5-0.7,6.2,2.8,7.5c3.1,1.2,2,4,2.3,6.4c0.1,1,0.5,1.9,0.9,2.9C163.2,404.7,163.1,404.7,163.1,404.8z
	 M205.9,431.6c-3.7,0.1-6.2,4-4.8,7c-7.1-3-14.2-6-21.3-9c-2.1-0.9-4.1-1.9-5.9-3c0.1-0.2,0.2-0.4,0.3-0.6c1.9-1.1,3.1-3.4,2.7-5.5
	c1.5-1.2,2.2-3.2,1.6-5.1c3.3,2.8,6.8,5.4,10.6,7.9c1.5,2.5,5.7,2.6,7.8,0.7c0.1,0,0.2,0,0.4-0.1c1.2,0.1,2.3,0.4,3.4,0.7
	c1.9,0.7,3.7,1.8,5.6,2.7C205.5,428.6,205.3,430.2,205.9,431.6z M269.7,462.1c-15.2-3.5-30.2-8.4-45-14c0.6-0.8,1-1.8,1.2-2.8
	c14.1,6.5,29,10.9,44.2,13.4C269.6,459.7,269.5,460.9,269.7,462.1z M303.1,7.7c-0.9,0-1.7,0-2.6,0C301.4,7.7,302.3,7.7,303.1,7.7
	C303.1,7.7,303.1,7.7,303.1,7.7z M542.2,195.4c-0.2-0.3-0.3-0.7-0.5-1c0-0.5,0-1,0-1.5C541.9,193.7,542,194.6,542.2,195.4z
	 M526,143.3C526,143.3,526,143.3,526,143.3C526,143.3,526,143.3,526,143.3C526,143.3,526,143.3,526,143.3z M445.4,417.9
	c0.9-0.8,1.8-1.5,2.8-2.3c-0.3,0.5-0.6,0.9-0.9,1.4c-0.1,0.1-0.2,0.3-0.3,0.4c-0.9,0.4-1.7,0.8-2.6,1.2
	C444.7,418.4,445.1,418.2,445.4,417.9z M440.3,419c1,0.4,2.1,0.4,3.2,0c-1.4,0.6-2.7,1.2-4.1,1.7C439.8,420.2,440.1,419.6,440.3,419
	z M381.8,464.6c-11,1.8-21.8,2.9-32.5,3.5c5-1.5,9.9-3.2,14.6-4.7c8.2-2.6,16.3-5.3,24.4-8.2c-1.7,2.4-1,5.8,1.2,7.4
	C386.9,463.3,384.4,463.9,381.8,464.6z M396.8,441.5c-10.5,4-21.1,7.7-31.8,11.2c-0.7,0.2-1.5,0.5-2.2,0.7c1-1.2,1.5-2.9,1.2-4.5
	c11.9-2.7,23.4-6.3,34.4-10.9C397.9,439.2,397.3,440.3,396.8,441.5z M412,30.1c-3.2-1.5-6.5-2.9-9.8-4.2c3.4,1.3,6.7,2.6,10,4
	C412.1,30,412.1,30,412,30.1z M446.8,429.6c-6.7,5.7-14,9.4-21.4,13c0.2-0.3,0.3-0.5,0.4-0.8c0.3-0.2,0.6-0.4,1-0.7
	c2.3-1.6,2.7-4,2-6c7.1-2.2,14-4.8,20.7-7.9c0,0,0,0,0,0C448.6,428,447.7,428.8,446.8,429.6z M476.7,400.3c-0.3,0.1-0.6,0.2-0.9,0.4
	c-2.1,1.2-4.1,2.4-6.1,3.6c0.4-0.7,0.8-1.4,1.1-2.2c1.2-2.5,0-6.2-2.5-7.3c3.6-3.3,7.4-6.4,11.2-9.5c2.2-1.8,2.1-4.2,0.7-5.9
	c4.5-5.2,8.8-10.6,12.9-16.2c0.2,0,0.5,0,0.7,0l-1.5,1.5c-3.1,2.9-1.1,7,2,8.1c0.7,0.7,1.7,1.2,2.6,1.5
	C490.7,383.3,484,392,476.7,400.3z M507,358.6c1.3-3.9,2.7-7.8,4.1-11.8c0.6-1.7,0.1-3.2-0.8-4.3c2.1-3.5,4-7.2,5.9-10.8
	c0.6,1.7,2,2.7,3.6,2.9C515.9,342.8,511.6,350.8,507,358.6z M529.9,291.8c-0.8,6.4-2.4,12.5-4.6,18.5c0-0.1-0.1-0.3-0.1-0.4
	c0.5-1.3,0.9-2.6,1.3-4c0.7-2.2-0.5-4.4-2.2-5.5c2.5-8.1,4.5-16.3,6-24.7c0.1,0.1,0.2,0.1,0.3,0.2
	C530.3,281.1,530.5,286.5,529.9,291.8z M527.6,183.6c-2.3-9.1-5.1-18-8.4-26.7c0.7-0.7,1.3-1.6,1.5-2.7c1.6,2.5,3.1,5,4.2,7.4
	c2.9,6.4,4.9,13.2,5.9,20.1C529.5,182,528.3,182.7,527.6,183.6z M541,273.8c0.1-0.7,0.2-1.4,0.3-2.2c0.1-0.7,0.3-1.3,0.5-1.9
	C541.5,271,541.3,272.4,541,273.8z M541.9,255.4c-0.5-0.8-1.1-1.4-1.8-1.8c1.2-13.7,1.6-27.4,1-41.1c1.1,0.3,2.3,0.1,3.3-0.4
	c1.5,15.3,1.3,30.8-0.8,46.3C543.1,257.4,542.5,256.5,541.9,255.4z"/>
<g id="Calque_1_1_">
	<g>
		<path d="M188,268.1c-7.9,0-12.1,10-12.1,25.6c0,15.3,2.4,22.7,5.7,26.3c1.5,1.5,3.7,2.2,6,2.2c7.8,0,12-10.6,12-26
			c0-15.1-2.6-22.6-5.9-25.9C192.1,268.6,190.3,268.1,188,268.1z"/>
		<path d="M441.1,278.4c-3.6,0-6,1.5-7.5,2.9c-0.6,2.2-1.1,4.7-1.1,11.4c0,17.5,4.1,29.1,12.4,29.1c7.3,0,10.6-7.9,10.6-22.1
			C455.4,284.3,449.6,278.4,441.1,278.4z"/>
	</g>
	<path d="M117.9,317.3c-1.5-4.8-3.1-9.6-4.6-14.3c-1.3-6.4-3.9-12.3-6.1-18.4c-2.5-7-4.4-14.2-5.8-21.4c-0.6-3-1.1-6-1.6-9
		c5.5-29.3,3.5-59.5,10.5-88.6c1.5-6.3-8.1-8.9-9.6-2.7c-4.1,17.1-5.1,34.6-6.3,52c-3-2.7-8.7-1.6-8.3,3.4
		c0.9,11.6,1.9,23.1,3.6,34.6c0,0.5,0.1,1,0.1,1.4s0.1,0.7,0.2,1.1c0.4,2.8,0.9,5.7,1.5,8.5c1.4,7.3,3.2,14.5,5.6,21.5
		c0.8,2.5,1.8,4.9,2.7,7.3c0,0.2,0,0.4,0.1,0.7c0.3,1.7,0.7,3.4,1.2,5c-0.1-0.1-0.2-0.2-0.3-0.4c-3.3-3.5-10.1,0.1-8.4,4.9
		c3.1,8.6,7.1,16.8,12,24.5c3.2,5.1,10.9,1.1,9.2-3.9C116.2,323.3,118.9,320.5,117.9,317.3z"/>
	<g>
		<g>
			<path class="st0" d="M240.8,534.2c-7.8-1.3-15.5-2.6-23.2-4c-3.3-0.6-6.6-1.6-10.5-2.6c3.3-2.9,6.1-5.4,9-7.8
				c10.9-9.1,22.3-17.4,36.3-21.3c15.7-4.4,29.8-0.5,43,8.6c-8,14-19.5,22.7-35.3,25.7c-2.7,0.5-5.4,0.9-8.1,1.4
				C248.2,534.2,244.5,534.2,240.8,534.2z"/>
			<path class="st0" d="M477,60.4c1.5,0.8,3,1.7,4.6,2.4c13,5.8,25.5,12.3,35.9,22.2c12.6,12,18,26.6,16.1,43.9
				c-0.1,0.5-0.2,1-0.4,1.8c-13.7-0.8-25.8-5-35.4-15.1c-10-10.6-14.6-23.8-18-37.5c-1.4-5.8-2.3-11.8-3.5-17.7
				C476.6,60.4,476.8,60.4,477,60.4z"/>
			<path class="st0" d="M1.3,292c14.2,2,28.4,4.1,41.7,10c18.6,8.2,28.9,22.5,31.2,42.6c0,0.3-0.1,0.6-0.1,1.2
				c-13,2.5-25.2,0.9-36.6-6.2c-12.5-7.8-20.7-19.3-27.9-31.8c-2.9-5-5.5-10.2-8.3-15.3C1.3,292.5,1.3,292.2,1.3,292z"/>
			<path class="st0" d="M37,145c11.5,14.1,22.3,27.6,26.9,44.8c4.4,16.4,0.2,30.9-9.9,44.4c-11.6-7.3-19.6-17-23.1-30.3
				c-3.4-13.2-2-26.3,0.9-39.4C33.3,158.2,35.2,152,37,145z"/>
			<path class="st0" d="M577.5,233.5c-10.9-14.5-14.6-30.1-8.9-47.4c5.2-15.7,15.2-28.4,26.2-41.8c2.2,9.5,4.6,18.1,6.2,26.8
				c2,10.6,2.3,21.3-0.3,31.9C597.6,215.4,589.2,226.8,577.5,233.5z"/>
			<path class="st0" d="M424.1,527.6c-9.7,1.7-19.3,3.7-29,5.1c-8.5,1.3-17.1,0.9-25.5-1c-14.8-3.3-25.6-11.9-33.3-25.2
				c7-5,14.5-8.4,23-9.9c11.4-1.9,22,0.8,32.1,5.9C403.7,508.7,414,517.5,424.1,527.6z"/>
			<path class="st0" d="M486.4,500.9c-12.5,4.6-24.7,8.6-37.5,9.5c-6.8,0.5-13.8,0.3-20.6-0.8c-13.6-2.3-23.7-10.2-31.6-21.5
				c12.7-10.5,26.7-15.4,43-12.1c13.7,2.8,25.4,9.9,36.7,17.7C479.7,495.9,482.8,498.2,486.4,500.9z"/>
			<path class="st0" d="M557.4,345.2c2-19,10.6-33.1,27.4-41.8c14.2-7.3,29.6-9.7,45.6-11.9c-9.2,18.5-18.4,36.3-36.1,47.6
				C583,346.2,570.6,347.8,557.4,345.2z"/>
			<path class="st0" d="M522.5,188.7c16.6,10.8,33.1,21.8,42.3,40.4c6,12.1,6.2,24.6,2.2,37.7c-13.5-3-24.7-9-32.6-20.5
				c-7-10.2-9.9-21.9-11.2-34c-0.9-7.7-1.1-15.5-1.7-23.2C521.9,189,522.2,188.9,522.5,188.7z"/>
			<path class="st0" d="M455.6,383c2.8,18.5,5,36.2-0.4,53.9c-4.5,15-14.4,25.2-28.8,31.8c-5.2-9.2-8.1-18.8-7.5-29.2
				c0.5-9.4,4-17.9,9-25.8C435.2,402,444.9,392.6,455.6,383z"/>
			<path class="st0" d="M619.2,348.7c-11,16.7-22.2,33.2-41,42.3c-12.1,5.8-24.5,5.8-37.4,1.8c3.1-13.5,9.2-24.7,20.7-32.5
				c9.9-6.7,21.1-9.5,32.7-10.8c8.1-0.9,16.3-1.2,24.5-1.7C618.9,348,619.1,348.3,619.2,348.7z"/>
			<path class="st0" d="M155.4,60.9c-2.6,14.9-5.5,28.7-12.1,41.6c-4.4,8.7-10.4,16.2-18.9,21.4c-7.9,4.8-16.7,7-26.1,7.5
				c-1.9-13.4,0.2-25.6,8-36.7c8.2-11.7,19.6-19.3,32-25.6C143.7,66.2,149.3,63.8,155.4,60.9z"/>
			<path class="st0" d="M144.7,126.1c-4.8,15.9-9.6,31.1-19.4,44c-11.2,14.8-26.3,20.7-44.8,19.8c0-2.7-0.2-5.3,0-7.9
				c1.4-15.5,8.9-27.5,21.3-36.6C114.6,136,129.2,130.8,144.7,126.1z"/>
			<path class="st0" d="M486.9,125.5c17.8,5.5,34.7,11.4,48.3,23.8c11.1,10.1,16.2,22.9,16.2,37.8c0,0.6-0.1,1.3-0.2,2.2
				c-16.1,0.8-30-3.4-41.1-15.3c-9.5-10.3-14.8-22.9-19.2-35.9C489.5,134.1,488.3,130.1,486.9,125.5z"/>
			<path class="st0" d="M586.5,405.5c-9.7,10.3-19.7,20-32,27.1c-8,4.7-16.6,7.9-26,8.3c-9.2,0.4-19.7-2.1-27.4-7
				c1.3-2.4,2.4-5,3.8-7.4c8.7-15,22.1-22.6,39-24.6c14-1.6,27.7,0.5,41.5,2.9C585.7,404.9,585.9,405.2,586.5,405.5z"/>
			<path class="st0" d="M146.5,438.3c-9.5-8.7-15.6-19.1-16.9-31.9c-1.6-14.8,2.6-28.4,8.3-41.8c2.4-5.6,5.2-11,8.1-17.2
				c9.8,18.2,19.5,35.6,18.3,56.5C163.6,417.9,156.7,428.8,146.5,438.3z"/>
			<path class="st0" d="M130.3,434.9c-13.4,7.2-27.1,8.9-41.4,3.8c-17.8-6.3-30.9-19.1-44.2-33c4.8-0.8,8.8-1.5,12.8-2.1
				c13.5-1.9,27-2.8,40.4,1C112.7,408.7,125.7,420.8,130.3,434.9z"/>
			<path class="st0" d="M574.8,296.9c-6-19.8-2.3-36.9,11.5-51.6c10-10.7,22.3-18.3,35.6-25.9c-0.7,7.2-1.2,13.7-2.1,20.3
				c-1.8,13.4-5.2,26.2-13.2,37.4C598.8,288,588,294.1,574.8,296.9z"/>
			<path class="st0" d="M176.4,383.7c4.7,4.5,9.2,8.6,13.4,13c9.5,10,18,20.7,21.6,34.4c3.5,13.5,0.6,25.9-6,38.1
				c-12.3-5.6-21.5-13.9-26.8-26.1c-4.6-10.8-5.8-22.2-5.2-33.8c0.4-8,1.6-15.9,2.5-23.9C175.8,385.1,176,384.7,176.4,383.7z"/>
			<path class="st0" d="M145.3,501.5c13.4-10,26.3-19.4,42-23.9c17.8-5.1,33.4-0.8,47.6,11c-9,13-21,20.8-36.6,22.5
				c-16.4,1.8-31.9-2.5-47.3-7.6C149.2,503,147.5,502.3,145.3,501.5z"/>
			<path class="st0" d="M90.8,393.3c-12.9,4-25.3,3.9-37.4-1.8c-13-6.1-22.4-16.3-30.8-27.5c-3.5-4.7-6.8-9.7-10.2-14.6
				c0.5-0.4,0.7-0.7,1-0.7c15.7,0.1,31.4,0.9,46.2,6.7C76.9,362.1,86.7,375.1,90.8,393.3z"/>
			<path class="st0" d="M541.8,455.4c-17,12-33.7,23-54.6,24.6c-12.1,0.9-26.4-4.1-35.2-12.5c8.7-12.6,20.1-21.1,35.7-23
				c12.2-1.5,24,1,35.6,4.5C529.3,450.9,535.3,453.2,541.8,455.4z"/>
			<path class="st0" d="M485.8,347.8c8.2,15.8,15.8,31.8,16.5,50.1c0.6,15.9-5.4,29-17.2,39.8c-11.8-10.8-18.9-23.6-17.8-39.8
				c0.4-6.6,1.6-13.4,3.9-19.6c3.9-10.5,8.9-20.7,13.4-31C485,347.5,485.4,347.7,485.8,347.8z"/>
			<path class="st0" d="M179.7,468.3c-13.9,11.4-29.3,14.9-46.4,10.5c-16-4.1-29.5-12.9-43.4-22.8c5.8-2.1,11.1-4,16.4-5.8
				c10-3.3,20.2-5.6,30.9-5.6C155.5,444.8,169.3,453.2,179.7,468.3z"/>
			<path class="st0" d="M73.8,76.3c7.6,14.5,14.5,28.4,16.7,44.1c2.6,18.8-4,34.1-18.3,46.5c-11.2-10.8-17-23.6-16.4-39.1
				c0.6-14.5,5.8-27.5,12.1-40.3C69.6,83.9,71.6,80.4,73.8,76.3z"/>
			<path class="st0" d="M9.7,219.9c17.8,10.7,35.1,20.6,44.8,39.1c6.5,12.4,6.3,25.2,2.3,38.5c-13.3-2.7-24.1-9-31.9-20
				s-11.2-23.7-13-36.8C11,234.1,10.5,227.4,9.7,219.9z"/>
			<path class="st0" d="M109.8,188.9c-0.6,18.2-1.1,35.8-9.2,52c-6.9,13.9-20.2,23.7-36,26.3c-2.5-7.1-3.3-14.3-2.5-21.8
				c1.1-10,5.2-18.7,11.3-26.5C83.2,206.4,96,197.6,109.8,188.9z"/>
			<path class="st0" d="M512.3,308.7c11.6,14.9,22.2,29.4,26.2,47.5c3.3,15.3-0.2,29-9.6,41.8c-11.8-7.4-20.6-17-24-30.7
				s-1.3-27.2,2.2-40.6C508.5,320.8,510.4,315.1,512.3,308.7z"/>
			<path class="st0" d="M287.1,487.1c-17.2,2-31.6-2.7-43.5-14.7c-12.1-12.2-18.9-27.4-25.3-43.1c0.5-0.2,0.9-0.4,1.1-0.4
				c15.4,3.1,30.6,6.7,44.2,15.2C279.3,454,286.5,468.6,287.1,487.1z"/>
			<path class="st0" d="M559.4,166.3c-13.9-12.1-20.7-26.9-18.4-45.3c2-16.2,9.1-30.5,16.8-45.2c1,1.8,1.8,3.2,2.6,4.6
				c6.9,12.9,13,26.1,14.9,40.8C577.7,138.9,572.4,153.8,559.4,166.3z"/>
			<path class="st0" d="M119.2,309.3c5.2,15.9,9.9,31.2,9.2,47.5c-0.8,18.6-10,31.9-25.6,41.7c-8.4-11.2-12.3-23.4-10.4-37.3
				c2.1-15.5,9.7-28.4,18.5-40.8C113.4,316.8,116.2,313.4,119.2,309.3z"/>
			<path class="st0" d="M413.4,428.5c-7.8,18.7-15.7,36.9-32.4,49.3c-10.7,8-22.9,10.3-36.4,8.7c0.1-9.7,2.3-18.6,7.1-26.7
				c6.1-10.2,15.3-16.7,25.9-21.4c11-4.9,22.6-7.6,34.3-10C412.2,428.3,412.5,428.4,413.4,428.5z"/>
			<path class="st0" d="M80.2,334.5c-6.9-11.9-9.4-24.2-6.3-37.5c3.2-13.6,10.8-24.8,19.8-35.2c4-4.6,8.3-9,13-14.1
				c0.8,4.1,1.5,7.4,2.1,10.8c2.4,13.7,4,27.3,0.9,41.1C106.1,316.1,95.7,327.1,80.2,334.5z"/>
			<path class="st0" d="M525.3,247.7c13.8,14.1,27.2,28.5,32.3,48.5c3.1,12.4,0.6,27.3-6.4,37.5c-10.3-4.8-18.9-11.6-24.5-21.8
				c-5.8-10.6-7.2-22-6.3-33.8c0.8-10.1,2.4-20.2,3.7-30.3C524.5,247.9,524.9,247.8,525.3,247.7z"/>
			<path class="st0" d="M315.6,486.8c6.6,0,12,5.2,12.1,11.8c0.1,6.8-5.2,12.3-11.9,12.3c-6.6,0.1-12.2-5.6-12.1-12.2
				C303.7,492.2,309.1,486.9,315.6,486.8z"/>
		</g>
	</g>
</g>
<g id="Calque_2">
</g>
<g>
	<g>
		<path class="st1" d="M135.2,242.9c0.4-2.5,0.6-5,1.1-7.4c2.1-10.3,6.8-18.9,15.9-24.7c5.4-3.5,11.4-5.1,17.8-5.7
			c6.8-0.5,13.4-0.1,19.8,2.3c9.8,3.7,16.2,10.7,19.4,20.5c4,12.5,3.7,25.1-0.8,37.4c-4.4,11.8-13.2,18.7-25.5,21
			c-7.7,1.5-15.5,1.3-23.1-0.8c-11.9-3.3-19.2-11.3-22.5-23c-1-3.5-1.3-7.2-1.9-10.8c-0.1-0.5-0.2-0.9-0.3-1.4
			C135.2,247.8,135.2,245.4,135.2,242.9z M194.5,245.8c0-4.3-0.4-8.9-1.7-13.3c-2-6.5-5.8-11.4-12.7-13c-2.4-0.6-5-0.8-7.5-0.6
			c-7.8,0.5-13.5,4.2-16.8,11.3c-1.6,3.5-2.4,7.1-2.7,10.9c-0.5,6.7-0.3,13.3,1.9,19.8c2,5.8,5.7,10.2,11.7,11.9
			c2.6,0.7,5.4,1,8.1,1c8.6-0.1,14.5-4.5,17.4-12.6C194,256.2,194.4,251.1,194.5,245.8z"/>
		<path class="st1" d="M219.6,214.8c0-2.9,0-5.6,0-8.5c0.5,0,0.9,0,1.4,0c8.2,0,16.3,0,24.5,0c1,0,1.5,0.3,2,1.2
			c10.9,18.2,21.8,36.4,32.8,54.6c0.3,0.4,0.5,0.9,1,1.6c0.1-0.6,0.2-0.9,0.2-1.2c0-14.6,0-29.1,0-43.7c0-1.5-0.8-2.4-2-3.1
			c-0.7-0.4-0.9-0.8-0.8-1.6c0-2.5,0-5,0-7.6c6.9,0,13.7,0,20.6,0c0,3,0,6,0,9.2c-1.2,0.1-2.5,0.3-3.8,0.4c-1,0.1-1.5,0.6-1.4,1.6
			c0,0.5,0,1,0,1.6c0,21.6,0,43.2,0,64.8c0,0.6,0,1.1,0,1.8c-0.6,0-1,0.1-1.5,0.1c-5.1,0-10.1,0-15.2,0c-1,0-1.5-0.3-2-1.1
			c-11.1-18.2-22.3-36.5-33.4-54.7c-0.2-0.4-0.5-0.8-0.9-1.4c-0.1,0.6-0.1,1-0.1,1.3c0,14.7,0,29.4,0,44.1c0,2.1,0.2,2.3,2.3,2.5
			c2,0.2,4,0.5,5.9,0.8c0.3,0.1,0.8,0.5,0.8,0.8c0.1,2.5,0,5,0,7.6c-10.2,0-20.2,0-30.4,0c0-2.7,0-5.5,0-8.4
			c2.2-0.2,4.3-0.5,6.5-0.8c1.9-0.3,2.1-0.5,2.1-2.3c0-18.8,0-37.6,0-56.4c0-1.9-0.3-2.1-2.2-2.3
			C223.9,215.4,221.8,215.1,219.6,214.8z"/>
		<path class="st1" d="M384.6,285.8c-11.6,0-23.1,0-34.6,0c0-2.8,0-5.6,0-8.4c2.9-0.3,5.8-0.7,8.9-1c-0.2-0.8-0.4-1.4-0.7-2.1
			c-1-2.8-1.9-5.6-2.9-8.3c-0.2-0.7-0.6-1.1-1.4-1.1c-8.4,0-16.8,0-25.2,0c-0.4,0-1.1,0.3-1.2,0.6c-1.3,3.5-2.4,7.1-3.7,10.9
			c2.9,0.3,5.7,0.7,8.6,1c0,2.8,0,5.6,0,8.4c-10.1,0-20.3,0-30.4,0c0-2.8,0-5.5,0-8.4c1.4-0.4,2.9-0.8,4.4-1.1
			c1.8-0.4,2.9-1.4,3.5-3.2c7.3-21.9,14.6-43.7,21.9-65.6c0.4-1.1,0.8-1.5,2-1.5c5.9,0.1,11.8,0.1,17.7,0c1,0,1.5,0.2,1.8,1.3
			c7.7,22.1,15.5,44.2,23.3,66.2c0.5,1.5,1.4,2.4,2.9,2.7c1.7,0.3,3.3,0.8,5,1.2C384.6,280.2,384.6,282.9,384.6,285.8z M331,253
			c7,0,13.7,0,20.5,0c-0.1-0.4-0.2-0.8-0.3-1.1c-3-9.2-6-18.5-9.1-27.7c-0.1-0.4-0.5-0.7-0.8-1.1c-0.2,0.4-0.6,0.7-0.7,1.1
			c-2.1,6.2-4.2,12.4-6.3,18.7C333.3,246.3,332.2,249.6,331,253z"/>
		<path class="st1" d="M437.1,234.4c0-0.7,0-1.1,0-1.5c0-8.3,0-16.6,0-24.8c0-1.3,0.4-1.7,1.7-1.7c18.5,0,37.1,0,55.6,0
			c1.7,0,1.7,0,1.7,1.7c0,3.6,0,7.1,0,10.7c0,0.7-0.3,1.5-0.7,2c-11.9,13.4-19.3,28.9-23.5,46.2c-1.4,5.8-2.2,11.7-2.5,17.7
			c0,0.8-0.3,1.1-1.2,1.1c-5.6,0-11.2,0-16.8,0c-1,0-1.2-0.5-1.1-1.3c0.5-3.7,0.9-7.5,1.6-11.2c3.3-16.8,10-32.1,20.3-45.8
			c1.2-1.6,2.5-3.1,3.8-4.6c0.3-0.3,0.5-0.7,0.9-1.2c-0.7-0.1-1.1-0.2-1.5-0.2c-7.2,0-14.5,0-21.7,0c-1.4,0-2.1,0.5-2.3,1.9
			c-0.5,3-1.1,6-1.7,9c-0.1,0.4-0.6,1-0.9,1C445.1,233.8,441.2,234.1,437.1,234.4z"/>
		<path class="st1" d="M423.3,239.6c0,10.3,0,20.6,0,31c0,0.6,0.1,1.2,0.1,1.8c0.1,0.9,0.7,1.3,1.6,1.4c3.1,0.3,6.3,0.6,9.4,0.8
			c2.3,0.1,2.3,0.1,2.3,2.4c0,2.5,0,5,0,7.5c0,0.9-0.2,1.3-1.2,1.3c-15.1,0-30.3,0-45.4,0c-1,0-1.3-0.3-1.3-1.3
			c0.1-1.9,0-3.7,0.1-5.6c0-0.5,0.5-1.2,0.9-1.3c3.8-1.3,7.7-2.6,11.6-3.8c0.9-0.3,1.4-0.8,1.5-1.7c0.1-0.4,0-0.9,0-1.3
			c0-15.8,0-31.6,0-47.3c0-2.7-0.4-3.2-3-3.8c-3.2-0.7-6.3-1.3-9.5-2c-0.8-0.2-1.1-0.4-1-1.3c0.4-3,0.8-5.9,1.2-8.9
			c0.1-0.8,0.5-1.1,1.3-1.1c10.1,0,20.1,0,30.2,0c1.1,0,1.2,0.6,1.2,1.5C423.3,218.4,423.3,229,423.3,239.6z"/>
	</g>
</g>
<image style="overflow:visible;" width="1393" height="393" xlink:href="../../../../Downloads/ONA17-wide.png"  transform="matrix(1 0 0 1 -835.6 -902)">
</image>
</svg>
