<?xml version="1.0" encoding="utf-8"?>
<!-- Generator: Adobe Illustrator 16.0.4, SVG Export Plug-In . SVG Version: 6.00 Build 0)  -->
<!DOCTYPE svg PUBLIC "-//W3C//DTD SVG 1.1//EN" "http://www.w3.org/Graphics/SVG/1.1/DTD/svg11.dtd">
<svg version="1.1" id="Calque_1" xmlns="http://www.w3.org/2000/svg" xmlns:xlink="http://www.w3.org/1999/xlink" x="0px" y="0px"
	 width="500px" height="500px" viewBox="0 0 500 500" style="enable-background:new 0 0 500 500;" xml:space="preserve">
<style type="text/css">
<![CDATA[
	.st0{opacity:0.55;}
	.st1{fill:#FCCC04;}
]]>
</style>
<circle class="st0" cx="250" cy="250" r="250"/>
<path class="st1" d="M250,324c-62.9,0-121.8-31.5-139.7-74c10.9-25.9,37.1-47.8,70.2-60.8c-6.7,11.7-10.7,25.3-10.7,39.8
	c0,44.2,36,80.2,80.2,80.2c44.2,0,80.2-36,80.2-80.2c0-14.5-3.9-28.1-10.7-39.8c33.1,13.1,59.3,34.9,70.2,60.8
	C371.8,292.5,312.9,324,250,324z M302.9,229c0,29.2-23.7,52.9-52.9,52.9c-29.2,0-52.9-23.8-52.9-52.9c0-29.2,23.8-52.9,52.9-52.9
	C279.2,176,302.9,199.8,302.9,229z M417.1,245.5c-19.1-55.2-90.9-96.7-167.1-96.7c-76.2,0-148,41.6-167.1,96.7l-1.5,4.5l1.5,4.5
	c19.1,55.2,90.9,96.7,167.1,96.7c76.2,0,148-41.6,167.1-96.8l1.5-4.4L417.1,245.5z"/>
</svg>
