<?xml version="1.0" encoding="utf-8"?>
<!-- Generator: Adobe Illustrator 16.0.4, SVG Export Plug-In . SVG Version: 6.00 Build 0)  -->
<!DOCTYPE svg PUBLIC "-//W3C//DTD SVG 1.1//EN" "http://www.w3.org/Graphics/SVG/1.1/DTD/svg11.dtd">
<svg version="1.1" id="Calque_1" xmlns="http://www.w3.org/2000/svg" xmlns:xlink="http://www.w3.org/1999/xlink" x="0px" y="0px"
	 width="500px" height="277px" viewBox="0 0 500 277" enable-background="new 0 0 500 277" xml:space="preserve">
<g opacity="0.05">
	<g>
		<path fill-rule="evenodd" clip-rule="evenodd" d="M207.167,274c-4.407-0.756-8.821-1.473-13.217-2.29
			c-1.885-0.351-3.73-0.912-5.977-1.474c1.877-1.631,3.472-3.062,5.115-4.434c6.201-5.173,12.672-9.89,20.618-12.091
			c8.94-2.476,16.928-0.282,24.462,4.898c-4.57,7.95-11.11,12.929-20.064,14.598c-1.522,0.283-3.052,0.529-4.578,0.792
			C211.406,274,209.286,274,207.167,274z"/>
		<path fill-rule="evenodd" clip-rule="evenodd" d="M341.464,4.659c0.863,0.457,1.705,0.966,2.597,1.365
			c7.367,3.289,14.491,6.975,20.41,12.604c7.168,6.816,10.247,15.138,9.126,24.985c-0.035,0.301-0.127,0.593-0.225,1.044
			c-7.786-0.467-14.671-2.827-20.101-8.604c-5.662-6.02-8.292-13.521-10.211-21.326c-0.814-3.317-1.323-6.71-1.972-10.068
			C341.214,4.659,341.339,4.659,341.464,4.659z"/>
		<path fill-rule="evenodd" clip-rule="evenodd" d="M71,136.338c8.082,1.15,16.147,2.359,23.702,5.709
			c10.549,4.675,16.412,12.773,17.711,24.211c0.019,0.174-0.035,0.354-0.073,0.691c-7.369,1.398-14.343,0.527-20.791-3.498
			c-7.089-4.427-11.79-10.978-15.851-18.064c-1.635-2.853-3.137-5.78-4.699-8.675C71,136.587,71,136.462,71,136.338z"/>
		<path fill-rule="evenodd" clip-rule="evenodd" d="M91.32,52.739c6.516,8.04,12.665,15.694,15.31,25.472
			c2.526,9.336,0.098,17.559-5.619,25.244c-6.588-4.127-11.16-9.67-13.104-17.234c-1.929-7.506-1.122-14.965,0.529-22.375
			C89.233,60.267,90.271,56.743,91.32,52.739z"/>
		<path fill-rule="evenodd" clip-rule="evenodd" d="M398.582,103.051c-6.196-8.217-8.324-17.099-5.084-26.966
			c2.933-8.938,8.639-16.151,14.914-23.787c1.269,5.393,2.595,10.277,3.542,15.235c1.152,6.035,1.306,12.107-0.184,18.159
			C410.019,92.806,405.212,99.26,398.582,103.051z"/>
		<path fill-rule="evenodd" clip-rule="evenodd" d="M311.366,270.277c-5.492,0.987-10.965,2.102-16.482,2.921
			c-4.836,0.719-9.701,0.511-14.497-0.558c-8.418-1.874-14.55-6.79-18.923-14.338c3.958-2.837,8.253-4.798,13.061-5.604
			c6.485-1.088,12.492,0.463,18.253,3.336C299.759,259.517,305.612,264.521,311.366,270.277z"/>
		<path fill-rule="evenodd" clip-rule="evenodd" d="M346.771,255.062c-7.125,2.629-14.033,4.915-21.326,5.418
			c-3.873,0.269-7.865,0.168-11.685-0.473c-7.71-1.29-13.449-5.801-17.954-12.248c7.205-5.959,15.176-8.746,24.467-6.863
			c7.808,1.582,14.448,5.604,20.865,10.068C342.963,252.234,344.736,253.578,346.771,255.062z"/>
		<path fill-rule="evenodd" clip-rule="evenodd" d="M387.154,166.584c1.128-10.812,6.005-18.837,15.565-23.784
			c8.045-4.163,16.805-5.526,25.898-6.765c-5.215,10.49-10.438,20.631-20.524,27.052
			C401.688,167.166,394.689,168.036,387.154,166.584z"/>
		<path fill-rule="evenodd" clip-rule="evenodd" d="M367.348,77.61c9.465,6.123,18.802,12.405,24.063,22.961
			c3.424,6.869,3.512,13.979,1.226,21.418c-7.654-1.695-14.051-5.116-18.512-11.644c-3.978-5.818-5.6-12.444-6.366-19.303
			c-0.488-4.379-0.646-8.796-0.952-13.194C366.986,77.77,367.168,77.689,367.348,77.61z"/>
		<path fill-rule="evenodd" clip-rule="evenodd" d="M329.263,188.079c1.604,10.53,2.817,20.594-0.212,30.618
			c-2.577,8.526-8.167,14.354-16.383,18.064c-2.983-5.224-4.596-10.67-4.266-16.621c0.298-5.367,2.249-10.179,5.093-14.665
			C317.674,198.885,323.2,193.523,329.263,188.079z"/>
		<path fill-rule="evenodd" clip-rule="evenodd" d="M422.284,168.537c-6.234,9.482-12.598,18.856-23.306,24.021
			c-6.854,3.304-13.901,3.282-21.245,1.031c1.747-7.68,5.219-14.053,11.789-18.47c5.63-3.785,12.003-5.417,18.615-6.152
			c4.627-0.516,9.295-0.672,13.944-0.987C422.149,168.166,422.216,168.352,422.284,168.537z"/>
		<path fill-rule="evenodd" clip-rule="evenodd" d="M158.633,4.947c-1.481,8.453-3.151,16.34-6.854,23.633
			c-2.524,4.972-5.909,9.218-10.743,12.154c-4.518,2.745-9.471,3.975-14.85,4.253c-1.064-7.598,0.142-14.576,4.546-20.866
			c4.639-6.624,11.142-10.946,18.18-14.562C151.982,7.981,155.149,6.593,158.633,4.947z"/>
		<path fill-rule="evenodd" clip-rule="evenodd" d="M152.528,42.031c-2.717,9.045-5.449,17.653-11.024,25.001
			c-6.371,8.396-14.968,11.766-25.454,11.234c0-1.554-0.114-3.031,0.019-4.484c0.804-8.805,5.085-15.61,12.108-20.811
			C135.405,47.621,143.714,44.702,152.528,42.031z"/>
		<path fill-rule="evenodd" clip-rule="evenodd" d="M347.071,41.662c10.134,3.155,19.726,6.461,27.446,13.531
			c6.297,5.769,9.199,13.017,9.192,21.493c-0.001,0.358-0.058,0.717-0.102,1.226c-9.144,0.482-17.073-1.927-23.371-8.717
			c-5.428-5.851-8.42-13.022-10.936-20.436C348.545,46.534,347.888,44.274,347.071,41.662z"/>
		<path fill-rule="evenodd" clip-rule="evenodd" d="M403.696,200.856c-5.517,5.865-11.226,11.377-18.176,15.43
			c-4.572,2.666-9.437,4.469-14.794,4.726c-5.217,0.25-11.193-1.218-15.591-3.968c0.715-1.386,1.384-2.831,2.182-4.203
			c4.958-8.504,12.552-12.872,22.171-13.976c7.954-0.912,15.772,0.29,23.575,1.632C403.231,200.526,403.378,200.672,403.696,200.856
			z"/>
		<path fill-rule="evenodd" clip-rule="evenodd" d="M153.573,219.504c-5.426-4.971-8.856-10.839-9.636-18.115
			c-0.9-8.399,1.474-16.171,4.739-23.736c1.372-3.18,2.959-6.265,4.622-9.757c5.547,10.363,11.065,20.249,10.406,32.103
			C163.263,207.92,159.371,214.122,153.573,219.504z"/>
		<path fill-rule="evenodd" clip-rule="evenodd" d="M144.377,217.573c-7.614,4.079-15.424,5.053-23.531,2.174
			c-10.132-3.598-17.557-10.86-25.146-18.771c2.709-0.438,4.991-0.851,7.284-1.171c7.692-1.066,15.371-1.568,22.993,0.56
			C134.323,202.692,141.738,209.546,144.377,217.573z"/>
		<path fill-rule="evenodd" clip-rule="evenodd" d="M397.032,139.142c-3.396-11.233-1.286-20.951,6.527-29.354
			c5.673-6.098,12.676-10.392,20.235-14.729c-0.411,4.069-0.678,7.81-1.189,11.517c-1.048,7.596-2.972,14.914-7.511,21.287
			C410.678,134.065,404.558,137.544,397.032,139.142z"/>
		<path fill-rule="evenodd" clip-rule="evenodd" d="M170.556,188.466c2.653,2.574,5.215,4.907,7.603,7.407
			c5.422,5.677,10.216,11.774,12.258,19.58c2.008,7.673,0.34,14.742-3.411,21.669c-7.019-3.173-12.248-7.874-15.249-14.865
			c-2.64-6.151-3.313-12.646-2.967-19.231c0.239-4.534,0.919-9.043,1.413-13.562C170.227,189.239,170.354,189.026,170.556,188.466z"
			/>
		<path fill-rule="evenodd" clip-rule="evenodd" d="M152.863,255.42c7.614-5.685,14.977-11.011,23.899-13.566
			c10.111-2.896,19.008-0.451,27.052,6.246c-5.128,7.372-11.911,11.815-20.831,12.789c-9.35,1.022-18.151-1.409-26.874-4.308
			C155.123,256.254,154.149,255.881,152.863,255.42z"/>
		<path fill-rule="evenodd" clip-rule="evenodd" d="M121.892,193.931c-7.358,2.253-14.389,2.224-21.27-1.032
			c-7.377-3.488-12.741-9.255-17.521-15.642c-2.01-2.688-3.841-5.507-5.778-8.302c0.282-0.212,0.419-0.402,0.555-0.402
			c8.937,0.042,17.826,0.484,26.282,3.791C113.972,176.182,119.549,183.557,121.892,193.931z"/>
		<path fill-rule="evenodd" clip-rule="evenodd" d="M378.316,229.246c-9.67,6.801-19.14,13.07-31.039,13.985
			c-6.901,0.529-15.021-2.325-20.019-7.087c4.958-7.173,11.403-11.986,20.297-13.087c6.962-0.86,13.639,0.546,20.221,2.562
			C371.208,226.669,374.57,227.947,378.316,229.246z"/>
		<path fill-rule="evenodd" clip-rule="evenodd" d="M346.482,168.04c4.645,8.982,8.969,18.085,9.378,28.466
			c0.355,9.03-3.048,16.479-9.801,22.647c-6.695-6.145-10.717-13.423-10.125-22.598c0.242-3.747,0.903-7.606,2.189-11.116
			c2.195-5.995,5.034-11.754,7.603-17.612C345.979,167.898,346.23,167.968,346.482,168.04z"/>
		<path fill-rule="evenodd" clip-rule="evenodd" d="M172.429,236.582c-7.928,6.472-16.657,8.484-26.391,5.997
			c-9.106-2.327-16.795-7.354-24.682-12.972c3.312-1.173,6.286-2.301,9.306-3.281c5.703-1.854,11.509-3.21,17.556-3.186
			C158.667,223.183,166.503,227.954,172.429,236.582z"/>
		<path fill-rule="evenodd" clip-rule="evenodd" d="M112.208,13.694c4.318,8.241,8.269,16.144,9.509,25.059
			c1.491,10.709-2.252,19.371-10.402,26.436c-6.361-6.146-9.654-13.415-9.307-22.238c0.323-8.224,3.3-15.642,6.855-22.887
			C109.871,18.013,110.986,16.015,112.208,13.694z"/>
		<path fill-rule="evenodd" clip-rule="evenodd" d="M75.798,95.318c10.13,6.088,19.972,11.711,25.494,22.246
			c3.684,7.025,3.561,14.33,1.315,21.899c-7.582-1.562-13.722-5.105-18.159-11.379c-4.441-6.279-6.341-13.478-7.401-20.941
			C76.513,103.386,76.24,99.592,75.798,95.318z"/>
		<path fill-rule="evenodd" clip-rule="evenodd" d="M132.714,77.699c-0.354,10.374-0.637,20.341-5.205,29.558
			c-3.924,7.919-11.47,13.479-20.475,14.979c-1.419-4.012-1.888-8.148-1.432-12.396c0.61-5.681,2.965-10.627,6.452-15.079
			C117.599,87.681,124.839,82.66,132.714,77.699z"/>
		<path fill-rule="evenodd" clip-rule="evenodd" d="M361.515,145.81c6.6,8.465,12.628,16.691,14.878,26.979
			c1.899,8.682-0.106,16.507-5.485,23.738c-6.731-4.201-11.706-9.649-13.65-17.468c-1.939-7.801-0.729-15.463,1.245-23.054
			C359.357,152.715,360.423,149.478,361.515,145.81z"/>
		<path fill-rule="evenodd" clip-rule="evenodd" d="M233.497,247.26c-9.754,1.152-17.953-1.531-24.717-8.366
			c-6.859-6.931-10.773-15.583-14.367-24.495c0.31-0.11,0.487-0.241,0.633-0.213c8.758,1.742,17.416,3.798,25.103,8.636
			C229.066,228.434,233.16,236.705,233.497,247.26z"/>
		<path fill-rule="evenodd" clip-rule="evenodd" d="M388.303,64.852c-7.924-6.878-11.744-15.3-10.484-25.747
			c1.109-9.205,5.175-17.326,9.573-25.682c0.581,1.038,1.043,1.822,1.47,2.626c3.901,7.345,7.377,14.854,8.488,23.213
			C398.68,49.278,395.692,57.781,388.303,64.852z"/>
		<path fill-rule="evenodd" clip-rule="evenodd" d="M138.048,146.188c2.953,9.057,5.623,17.725,5.225,26.993
			c-0.454,10.548-5.663,18.16-14.544,23.684c-4.764-6.343-6.984-13.317-5.928-21.204c1.176-8.791,5.538-16.155,10.537-23.215
			C134.769,150.425,136.315,148.485,138.048,146.188z"/>
		<path fill-rule="evenodd" clip-rule="evenodd" d="M305.286,213.937c-4.423,10.658-8.95,20.975-18.432,28.02
			c-6.107,4.537-13.037,5.855-20.694,4.972c0.068-5.502,1.291-10.559,4.059-15.199c3.459-5.799,8.714-9.476,14.729-12.188
			c6.226-2.807,12.836-4.338,19.49-5.702C304.604,213.804,304.792,213.875,305.286,213.937z"/>
		<path fill-rule="evenodd" clip-rule="evenodd" d="M115.889,160.462c-3.905-6.781-5.348-13.771-3.564-21.307
			c1.831-7.737,6.167-14.088,11.232-20.001c2.261-2.641,4.7-5.13,7.37-8.026c0.465,2.322,0.88,4.217,1.219,6.123
			c1.381,7.762,2.25,15.544,0.519,23.37C130.58,150.05,124.66,156.271,115.889,160.462z"/>
		<path fill-rule="evenodd" clip-rule="evenodd" d="M368.941,111.16c7.837,8.033,15.47,16.203,18.338,27.577
			c1.773,7.031,0.354,15.506-3.647,21.323c-5.854-2.753-10.756-6.586-13.92-12.377c-3.276-5.998-4.11-12.53-3.574-19.199
			c0.462-5.753,1.389-11.469,2.109-17.201C368.479,111.242,368.711,111.202,368.941,111.16z"/>
		<path fill-rule="evenodd" clip-rule="evenodd" d="M249.7,247.089c3.751-0.021,6.808,2.962,6.867,6.702
			c0.06,3.838-2.971,6.968-6.779,7.001c-3.752,0.034-6.941-3.161-6.901-6.913C242.925,250.151,245.979,247.107,249.7,247.089z"/>
	</g>
</g>
</svg>
