<?xml version="1.0" encoding="utf-8"?>
<!-- Generator: Adobe Illustrator 16.0.4, SVG Export Plug-In . SVG Version: 6.00 Build 0)  -->
<!DOCTYPE svg PUBLIC "-//W3C//DTD SVG 1.1//EN" "http://www.w3.org/Graphics/SVG/1.1/DTD/svg11.dtd">
<svg version="1.1" id="Calque_1" xmlns="http://www.w3.org/2000/svg" xmlns:xlink="http://www.w3.org/1999/xlink" x="0px" y="0px"
	 width="500px" height="500px" viewBox="0 0 500 500" style="enable-background:new 0 0 500 500;" xml:space="preserve">
<style type="text/css">
<![CDATA[
	.st0{opacity:0.55;}
	.st1{fill:#FCCC04;stroke:#FCCC04;stroke-width:8;stroke-miterlimit:10;}
]]>
</style>
<circle class="st0" cx="250" cy="250" r="250"/>
<path class="st1" d="M233.5,179.7L233.5,179.7c-1.8,1.9-2.7,4.4-2.6,6.9c0.1,2.6,1.2,5,3.1,6.8c1.9,1.7,4.4,2.7,7,2.6
	c2.6-0.1,5-1.2,6.8-3.1l43.4-43.4c16.6-16.6,42.8-16.6,59.4,0c16.6,16.6,16.6,42.8,0,59.4l-48,48c-16.6,16.6-42.8,16.6-59.4,0
	c-1.8-1.9-4.3-2.9-6.9-2.9c-2.6,0-5.1,1-6.9,2.8c-1.8,1.8-2.9,4.3-2.8,6.9c0,2.6,1.1,5.1,2.9,6.9c23.9,23.9,62.9,23.9,86.8,0l48-48
	c23.9-23.9,23.9-62.9,0-86.8c-23.9-23.9-62.9-23.9-86.8,0L234,179.2C233.8,179.3,233.7,179.5,233.5,179.7z M135.8,277.4
	c-23.9,23.9-23.9,62.9,0,86.8c23.9,23.9,62.9,23.9,86.8,0l43.4-43.4c1.9-1.8,2.9-4.3,2.9-6.9c0-2.6-1-5.1-2.8-6.9
	c-1.8-1.8-4.3-2.9-6.9-2.9c-2.6,0-5.1,1.1-6.9,2.9l-43.4,43.4c-16.6,16.6-42.8,16.6-59.4,0c-16.6-16.6-16.6-42.8,0-59.4l48-48
	c16.6-16.6,42.8-16.6,59.4,0c1.8,1.9,4.3,2.9,6.9,2.9c2.6,0,5.1-1,6.9-2.8c1.8-1.8,2.9-4.3,2.8-6.9c0-2.6-1.1-5.1-2.9-6.9
	c-23.9-23.9-62.9-23.9-86.8,0L135.8,277.4z"/>
</svg>
