<?xml version="1.0" encoding="utf-8"?>
<!-- Generator: Adobe Illustrator 16.0.4, SVG Export Plug-In . SVG Version: 6.00 Build 0)  -->
<!DOCTYPE svg PUBLIC "-//W3C//DTD SVG 1.1//EN" "http://www.w3.org/Graphics/SVG/1.1/DTD/svg11.dtd">
<svg version="1.1" id="Calque_1" xmlns="http://www.w3.org/2000/svg" xmlns:xlink="http://www.w3.org/1999/xlink" x="0px" y="0px"
	 width="269px" height="85px" viewBox="-54.966 -109.307 269 85" enable-background="new -54.966 -109.307 269 85"
	 xml:space="preserve">
<g id="Page-1">
	<g id="logo">
		<path id="Fill-2" fill="#FFFFFF" d="M40.062-93.22l-0.283,4.424H27.028v-0.153c0.369-0.021,1.301-0.108,1.605-0.238
			c0.521-0.196,0.674-0.585,0.674-1.062v-11.84c0-0.476-0.131-0.846-0.673-1.085c-0.39-0.173-1.213-0.26-1.604-0.282v-0.15h7.393
			v0.151c-0.39,0.023-1.171,0.045-1.561,0.174c-0.542,0.174-0.672,0.608-0.672,1.086v11.212c0,1.733,0.39,1.93,2.45,1.93
			c1.323,0,2.516-0.043,2.993-0.522c0.673-0.694,1.887-2.798,2.256-3.643L40.062-93.22"/>
		<path id="Fill-3" fill="#FFFFFF" d="M40.294-88.796v-0.152c0.498-0.021,1.322-0.13,1.626-0.238
			c0.521-0.174,0.672-0.542,0.672-1.02v-11.885c0-0.476-0.13-0.89-0.673-1.084c-0.39-0.152-1.148-0.26-1.626-0.282v-0.151h12.252
			v3.6H52.33c-0.282-0.975-1.67-3.123-2.689-3.252c-0.521-0.064-1.366-0.109-2.038-0.109h-2.126v6.767h1.821
			c1.216,0,1.606-0.389,1.866-0.672c0.391-0.368,0.823-1.626,0.912-2.19h0.215v6.095h-0.216c-0.067-0.65-0.608-1.974-0.912-2.299
			c-0.284-0.326-0.695-0.672-1.866-0.672h-1.821v5.378c0,1.692,0.368,1.908,2.452,1.908c1.365,0,2.818,0.022,3.339-0.498
			c0.759-0.783,1.908-2.864,2.233-3.579h0.195l-0.282,4.335L40.294-88.796"/>
		<path id="Fill-4" fill="#FFFFFF" d="M72.223-99.726h-0.194c-0.261-0.955-1.583-3.405-2.516-3.535
			c-0.499-0.064-1.128-0.087-1.671-0.087h-0.953v13.034c0,0.476,0.173,0.868,0.673,1.083c0.259,0.108,1.366,0.261,1.755,0.282v0.152
			h-7.741v-0.153c0.39-0.021,1.475-0.13,1.756-0.238c0.521-0.196,0.672-0.607,0.672-1.085v-13.076h-0.931
			c-0.499,0-1.193,0.021-1.67,0.087c-0.933,0.13-2.277,2.58-2.537,3.535H58.67v-3.882h13.553V-99.726"/>
		<path id="Fill-5" fill="#FFFFFF" d="M72.668-88.796v-0.152c0.499-0.021,1.324-0.13,1.627-0.238
			c0.521-0.174,0.671-0.542,0.671-1.02v-11.885c0-0.476-0.13-0.89-0.672-1.084c-0.389-0.152-1.149-0.26-1.628-0.282v-0.151h12.255
			v3.6h-0.217c-0.283-0.975-1.671-3.123-2.69-3.252c-0.521-0.064-1.366-0.109-2.038-0.109h-2.125v6.767h1.82
			c1.217,0,1.605-0.389,1.865-0.672c0.391-0.368,0.823-1.626,0.911-2.19h0.218v6.095h-0.218c-0.064-0.65-0.605-1.974-0.91-2.299
			c-0.281-0.326-0.695-0.672-1.865-0.672h-1.82v5.378c0,1.692,0.367,1.908,2.449,1.908c1.366,0,2.82,0.022,3.338-0.498
			c0.76-0.783,1.91-2.864,2.235-3.579h0.196l-0.281,4.335L72.668-88.796"/>
		<path id="Fill-6" fill="#FFFFFF" d="M105.844-88.796h-7.633v-0.152c0.368-0.021,1.495-0.108,1.8-0.259
			c0.498-0.26,0.694-0.608,0.694-1.107v-12.077l-5.466,13.359H94.85c-0.217-0.673-0.76-2.234-1.108-3.017l-4.382-10.018v9.824
			c0,1.669,0.24,2.451,0.718,2.862c0.366,0.304,1.799,0.412,2.188,0.434v0.152h-5.94v-0.153c0.368-0.042,1.475-0.042,1.996-0.413
			c0.498-0.368,0.693-1.214,0.693-2.862v-8.892c0-0.889-0.218-1.497-0.651-1.843c-0.521-0.412-1.344-0.476-1.93-0.499v-0.15h5.269
			l4.75,10.669l3.622-8.827c0.326-0.781,0.457-1.604,0.476-1.843h5.27v0.151c-0.39,0.023-1.192,0.131-1.584,0.261
			c-0.541,0.174-0.672,0.585-0.672,1.063v11.818c0,0.478,0.175,0.825,0.672,1.062c0.239,0.131,1.193,0.282,1.604,0.304v0.152"/>
		<path id="Fill-7" fill="#FFFFFF" d="M113.507-95.455h-1.366v5.184c0,0.478,0.152,0.891,0.673,1.086
			c0.26,0.108,1.108,0.217,1.649,0.238v0.152h-7.482v-0.153c0.389-0.021,1.322-0.13,1.604-0.238
			c0.521-0.195,0.672-0.585,0.672-1.061v-11.843c0-0.476-0.129-0.89-0.672-1.085c-0.475-0.173-1.258-0.26-1.647-0.282v-0.15h7.525
			c3.057,0,5.03,1.235,5.03,3.6c0,3.08-2.951,4.555-5.987,4.555L113.507-95.455L113.507-95.455z M113.268-103.327h-1.128v7.569h0.76
			c2.775,0,3.362-2.277,3.362-3.73C116.261-101.375,115.59-103.327,113.268-103.327z"/>
		<path id="Fill-8" fill="#FFFFFF" d="M126.11-88.493c-2.19,0-3.645-0.693-4.359-1.171l-0.716,1.063h-0.217l-0.131-5.249h0.196
			c1.062,2.776,2.625,5.075,5.141,5.075c2.059,0,2.928-1.453,2.928-3.015c0-1.301-0.869-2.278-2.318-2.818
			c-1.109-0.435-1.974-0.717-2.949-1.129c-1.757-0.759-2.605-2.126-2.605-4.012c0-2.32,1.91-4.186,4.729-4.186
			c1.712,0,3.146,0.542,3.882,1.085l0.672-0.977h0.217l0.088,5.031h-0.196c-0.821-2.537-2.126-4.858-4.62-4.858
			c-1.366,0-2.515,1.041-2.515,2.58c0,1.302,0.713,2.148,2.212,2.821c0.977,0.455,2.038,0.737,2.883,1.106
			c1.78,0.802,2.93,1.778,2.93,4.077C131.357-90.423,129.167-88.493,126.11-88.493"/>
	</g>
</g>
<g>
	<path fill="#FCCC04" d="M-18.067-38.786c0.497,0.489,0.985,0.748,1.467,0.78v0.955c-2.296-0.094-5.188-0.14-8.681-0.14
		c-3.629,0-6.298,0.045-8.004,0.14v-0.955c1.195-0.047,2.051-0.194,2.571-0.442c0.52-0.25,0.779-0.682,0.779-1.303
		c0-0.481-0.193-1.233-0.582-2.257l-2.837-7.819h-9.611l-0.813,2.142c-1.024,2.668-1.536,4.739-1.536,6.212
		c0,1.303,0.36,2.195,1.081,2.675c0.721,0.482,1.796,0.746,3.223,0.792v0.955c-2.373-0.094-4.451-0.14-6.235-0.14
		c-1.505,0-2.731,0.045-3.677,0.14v-0.955c0.776-0.125,1.517-0.614,2.222-1.466c0.706-0.853,1.423-2.226,2.152-4.118l10.587-27.202
		c0.683,0.062,1.521,0.092,2.514,0.092c0.992,0,1.823-0.03,2.489-0.092l11.543,29.738C-19.012-40.031-18.563-39.276-18.067-38.786z
		 M-38.009-62.696l-4.584,11.914h8.912L-38.009-62.696z"/>
	<path fill="#FCCC04" d="M9.218-39.088c0.395,0.659,1.082,0.99,2.059,0.99v1c-0.993-0.092-1.979-0.14-2.956-0.14
		c-3.287,0-6.049,0.217-8.284,0.651v-3.374c-0.65,1.24-1.435,2.148-2.349,2.723c-0.915,0.574-2.071,0.861-3.467,0.861
		c-1.893,0-3.568-0.465-5.027-1.396c-1.457-0.931-2.606-2.381-3.443-4.352c-0.838-1.969-1.257-4.46-1.257-7.469
		c0-2.808,0.434-5.173,1.304-7.097c0.868-1.924,2.093-3.367,3.676-4.329c1.583-0.962,3.452-1.442,5.608-1.442
		c2.078,0,3.73,0.403,4.956,1.21v-7.353c0-1.475-0.201-2.541-0.604-3.2c-0.403-0.659-1.094-0.989-2.071-0.989v-1
		c0.993,0.092,1.977,0.14,2.954,0.14c3.336,0,6.104-0.225,8.309-0.676v32.041C8.624-40.814,8.821-39.748,9.218-39.088z
		 M-2.197-60.88c-1.473,0-2.575,0.942-3.304,2.827c-0.728,1.884-1.094,4.758-1.094,8.622c0,3.909,0.288,6.647,0.861,8.213
		c0.574,1.567,1.357,2.351,2.35,2.351c0.589,0,1.145-0.147,1.664-0.443c0.52-0.295,0.943-0.702,1.269-1.222
		c0.325-0.52,0.487-1.105,0.487-1.758v-17.963C-0.661-60.671-1.406-60.88-2.197-60.88z"/>
	<path fill="#FCCC04" d="M33.219-61.602c1.815,0,3.041-0.062,3.677-0.187v1.002c-0.652,0.248-1.253,0.72-1.804,1.418
		c-0.55,0.698-1.074,1.768-1.57,3.211l-6.446,19.105c-0.822-0.078-1.59-0.117-2.304-0.117c-0.698,0-1.473,0.04-2.327,0.117
		l-8.285-21.06c-0.697-1.784-1.621-2.675-2.768-2.675v-1.002c2.543,0.187,5.376,0.281,8.494,0.281c1.582,0,3.645-0.094,6.189-0.281
		v1.002c-0.76,0-1.33,0.026-1.711,0.081c-0.379,0.055-0.666,0.209-0.86,0.466c-0.195,0.256-0.229,0.678-0.104,1.268l5.188,14.427
		l2.21-6.562c0.605-1.799,0.909-3.428,0.909-4.886c0-1.489-0.322-2.642-0.966-3.455c-0.643-0.815-1.484-1.261-2.524-1.338v-1.002
		C29.412-61.664,31.079-61.602,33.219-61.602z"/>
	<path fill="#FCCC04" d="M46.296-50.059c0,3.054,0.532,5.23,1.596,6.525c1.062,1.295,2.36,1.943,3.897,1.943
		c2.31,0,4.233-1.062,5.77-3.188l0.814,0.302c-0.45,1.413-1.1,2.728-1.954,3.945c-0.854,1.218-1.956,2.214-3.304,2.991
		c-1.351,0.775-2.917,1.163-4.701,1.163c-3.336,0-6.008-1.035-8.016-3.106c-2.01-2.07-3.014-5.372-3.014-9.901
		c0-2.947,0.528-5.399,1.583-7.354c1.055-1.953,2.502-3.397,4.339-4.327c1.838-0.931,3.953-1.396,6.341-1.396
		c6.004,0,9.005,3.561,9.005,10.68h-12.31C46.312-51.411,46.296-50.836,46.296-50.059z M51.148-58.914
		c-0.396-1.622-1.012-2.433-1.85-2.433c-0.869,0-1.567,0.683-2.094,2.048c-0.527,1.365-0.869,3.569-1.024,6.609h5.516
		C51.726-55.219,51.545-57.293,51.148-58.914z"/>
	<path fill="#FCCC04" d="M77.827-62.462c1.55,0,2.667,0.476,3.35,1.43c0.682,0.956,1.024,2.083,1.024,3.387
		c0,1.426-0.399,2.563-1.2,3.408c-0.799,0.846-1.856,1.269-3.175,1.269c-1.381,0-2.436-0.307-3.166-0.919
		c-0.728-0.614-1.093-1.447-1.093-2.501c0-1.892,0.815-3.374,2.444-4.445c-0.575,0-1.088,0.109-1.537,0.326
		c-0.806,0.341-1.476,0.904-2.011,1.687c-0.535,0.784-0.804,1.641-0.804,2.572v14.286c0,1.009,0.141,1.795,0.419,2.363
		c0.279,0.566,0.714,0.965,1.304,1.198c0.588,0.233,1.38,0.349,2.373,0.349v1.001c-3.91-0.125-6.476-0.187-7.702-0.187
		c-1.18,0-3.724,0.062-7.633,0.187v-1.001c0.667,0,1.194-0.101,1.583-0.303c0.388-0.202,0.667-0.551,0.837-1.047
		s0.257-1.187,0.257-2.071v-15.125c0-1.474-0.201-2.541-0.604-3.199c-0.403-0.66-1.096-0.988-2.072-0.988v-1.002
		c1.009,0.094,1.993,0.141,2.955,0.141c3.304,0,6.066-0.218,8.284-0.652v3.422C72.901-61.269,74.958-62.462,77.827-62.462z"/>
	<path fill="#FCCC04" d="M99.049-61.741v0.955h-4.676v19.732c0,0.621,0.106,1.062,0.323,1.326c0.22,0.265,0.59,0.395,1.117,0.395
		c0.387,0,0.814-0.111,1.282-0.335c0.465-0.226,0.891-0.579,1.276-1.061l0.724,0.583c-1.46,2.513-3.715,3.77-6.771,3.77
		c-2.188,0-3.826-0.543-4.911-1.628c-0.651-0.652-1.087-1.474-1.303-2.467c-0.217-0.993-0.325-2.382-0.325-4.165v-16.149h-3.608
		v-0.955h3.608v-5.678c1.721,0,3.271-0.167,4.654-0.5c1.379-0.333,2.689-0.866,3.933-1.595v7.772H99.049z"/>
	<path fill="#FCCC04" d="M111.52-39.403c0.171,0.496,0.45,0.845,0.838,1.047c0.388,0.202,0.915,0.303,1.582,0.303v1.001
		c-3.41-0.125-5.669-0.187-6.771-0.187c-1.1,0-3.482,0.062-7.144,0.187v-1.001c0.668,0,1.194-0.101,1.582-0.303
		c0.389-0.202,0.665-0.551,0.838-1.047c0.171-0.496,0.256-1.187,0.256-2.071v-15.125c0-1.474-0.201-2.541-0.604-3.199
		c-0.403-0.66-1.094-0.988-2.071-0.988v-1.002c1.008,0.094,1.993,0.141,2.957,0.141c3.302,0,6.062-0.218,8.281-0.652v20.827
		C111.264-40.589,111.349-39.899,111.52-39.403z M110.544-73.283c0.899,0.699,1.349,1.72,1.349,3.071
		c0,1.333-0.449,2.351-1.349,3.049c-0.9,0.698-2.183,1.046-3.84,1.046c-1.692,0-2.979-0.345-3.862-1.036
		c-0.884-0.69-1.328-1.71-1.328-3.059c0-1.351,0.444-2.373,1.328-3.071c0.884-0.698,2.17-1.047,3.862-1.047
		C108.361-74.33,109.643-73.981,110.544-73.283z"/>
	<path fill="#FCCC04" d="M118.885-41.729c0.551,1.303,1.265,2.318,2.139,3.048c0.879,0.729,1.882,1.093,3.016,1.093
		c0.805,0,1.471-0.221,1.989-0.663c0.52-0.442,0.778-1.09,0.778-1.942c0-0.885-0.182-1.68-0.546-2.386s-0.812-1.335-1.337-1.886
		c-0.529-0.55-1.375-1.354-2.536-2.408c-1.352-1.241-2.37-2.226-3.061-2.955c-0.69-0.73-1.283-1.577-1.781-2.548
		c-0.496-0.97-0.744-2.044-0.744-3.223c0-1.366,0.411-2.567,1.23-3.606c0.824-1.04,1.92-1.844,3.285-2.409
		c1.365-0.567,2.849-0.849,4.444-0.849c1.256,0,2.424,0.136,3.5,0.407c1.08,0.271,1.913,0.57,2.503,0.897
		c0.327,0.185,0.61,0.278,0.86,0.278c0.636,0,1.032-0.512,1.187-1.536h0.954c-0.122,1.66-0.184,4.522-0.184,8.588h-0.956
		c-0.248-2.08-0.841-3.845-1.779-5.295c-0.94-1.449-2.303-2.176-4.084-2.176c-0.81,0-1.479,0.242-2.014,0.722
		c-0.535,0.482-0.803,1.125-0.803,1.931c0,1.07,0.355,2.014,1.071,2.827c0.713,0.815,1.554,1.599,2.523,2.351
		c0.971,0.752,1.68,1.315,2.129,1.687c1.18,0.977,2.117,1.824,2.818,2.537c0.696,0.713,1.259,1.524,1.684,2.432
		c0.429,0.907,0.641,1.934,0.641,3.082c0,1.412-0.43,2.68-1.29,3.805c-0.861,1.125-2.026,1.996-3.49,2.619
		c-1.466,0.62-3.075,0.93-4.829,0.93c-1.987,0-3.622-0.404-4.911-1.21c-1.024-0.527-1.822-0.791-2.396-0.791
		c-0.605,0-1.047,0.551-1.324,1.652h-0.956c0.126-1.815,0.187-4.987,0.187-9.517h0.955
		C117.958-44.537,118.335-43.033,118.885-41.729z"/>
	<path fill="#FCCC04" d="M149.753-39.403c0.17,0.496,0.45,0.845,0.837,1.047c0.386,0.202,0.915,0.303,1.583,0.303v1.001
		c-3.413-0.125-5.67-0.187-6.771-0.187c-1.104,0-3.482,0.062-7.146,0.187v-1.001c0.667,0,1.194-0.101,1.584-0.303
		c0.388-0.202,0.665-0.551,0.838-1.047c0.168-0.496,0.254-1.187,0.254-2.071v-15.125c0-1.474-0.201-2.541-0.604-3.199
		c-0.402-0.66-1.095-0.988-2.072-0.988v-1.002c1.01,0.094,1.995,0.141,2.957,0.141c3.304,0,6.064-0.218,8.285-0.652v20.827
		C149.499-40.589,149.583-39.899,149.753-39.403z M148.775-73.283c0.899,0.699,1.348,1.72,1.348,3.071
		c0,1.333-0.448,2.351-1.348,3.049c-0.899,0.698-2.179,1.046-3.841,1.046c-1.69,0-2.979-0.345-3.862-1.036
		c-0.885-0.69-1.326-1.71-1.326-3.059c0-1.351,0.441-2.373,1.326-3.071c0.884-0.698,2.172-1.047,3.862-1.047
		C146.596-74.33,147.876-73.981,148.775-73.283z"/>
	<path fill="#FCCC04" d="M172.813-62.462c2.528,0,4.317,0.635,5.376,1.907c0.479,0.574,0.833,1.346,1.056,2.316
		c0.227,0.968,0.339,2.253,0.339,3.851v12.915c0,0.884,0.085,1.575,0.256,2.071s0.446,0.845,0.827,1.047
		c0.379,0.202,0.901,0.303,1.569,0.303v1.001c-3.413-0.125-5.631-0.187-6.655-0.187c-1.101,0-3.357,0.062-6.77,0.187v-1.001
		c0.558,0,0.992-0.101,1.302-0.303c0.311-0.202,0.535-0.546,0.676-1.035c0.14-0.488,0.207-1.183,0.207-2.083v-15.497
		c0-1.024-0.185-1.78-0.559-2.27c-0.37-0.489-0.96-0.733-1.769-0.733c-0.587,0-1.146,0.147-1.673,0.442s-0.954,0.703-1.28,1.222
		c-0.325,0.52-0.49,1.106-0.49,1.757v15.079c0,0.884,0.07,1.575,0.211,2.071c0.138,0.496,0.368,0.845,0.687,1.047
		c0.317,0.202,0.759,0.303,1.315,0.303v1.001c-3.229-0.125-5.328-0.187-6.308-0.187c-1.1,0-3.482,0.062-7.142,0.187v-1.001
		c0.666,0,1.193-0.101,1.581-0.303c0.387-0.202,0.667-0.551,0.835-1.047c0.175-0.496,0.258-1.187,0.258-2.071v-15.125
		c0-1.474-0.201-2.541-0.605-3.199c-0.402-0.66-1.093-0.988-2.068-0.988v-1.002c1.006,0.094,1.992,0.141,2.953,0.141
		c3.307,0,6.065-0.218,8.283-0.652v3.422C166.67-61.269,169.198-62.462,172.813-62.462z"/>
	<path fill="#FCCC04" d="M207.087-42.416c1.29,0.876,1.932,2.299,1.932,4.27c0,1.691-0.525,3.304-1.582,4.84
		c-1.055,1.536-2.638,2.789-4.759,3.759c-2.117,0.969-4.703,1.454-7.761,1.454c-2.743,0-4.951-0.19-6.618-0.57
		c-1.668-0.38-2.847-0.865-3.535-1.454c-0.692-0.59-1.038-1.233-1.038-1.932c0-0.87,0.314-1.447,0.943-1.734
		c0.628-0.286,1.791-0.522,3.49-0.708c1.697-0.186,2.836-0.628,3.409-1.326h-1.56c-0.809,0-1.641-0.137-2.502-0.408
		c-0.858-0.272-1.61-0.775-2.244-1.513c-0.636-0.736-0.954-1.749-0.954-3.037c0-1.054,0.197-1.978,0.593-2.769
		c0.396-0.792,1.036-1.533,1.92-2.223c0.885-0.69,2.103-1.399,3.651-2.129c-1.83-0.559-3.253-1.416-4.269-2.572
		c-1.019-1.155-1.522-2.609-1.522-4.362c0-1.691,0.476-3.107,1.429-4.247c0.954-1.14,2.269-1.989,3.945-2.548
		c1.674-0.558,3.614-0.837,5.817-0.837c1.009,0,1.962,0.062,2.861,0.186c-0.03-0.326-0.046-0.653-0.046-0.979
		c0-1.892,0.444-3.416,1.339-4.572c0.89-1.155,2.238-1.734,4.036-1.734c1.179,0,2.16,0.283,2.943,0.851
		c0.784,0.565,1.175,1.345,1.175,2.337c0,0.589-0.176,1.122-0.522,1.595c-0.35,0.473-0.82,0.845-1.407,1.116
		c-0.591,0.273-1.248,0.407-1.979,0.407c-1.086,0-1.957-0.205-2.617-0.616c-0.658-0.411-1.206-1.035-1.641-1.873
		c-0.218,0.635-0.326,1.466-0.326,2.489c0,0.374,0.023,0.746,0.069,1.118c2.281,0.434,4.07,1.265,5.362,2.491
		c1.3,1.225,1.946,2.83,1.946,4.816c0,1.69-0.479,3.106-1.433,4.246c-0.951,1.141-2.269,1.989-3.942,2.548
		c-1.677,0.558-3.615,0.837-5.818,0.837c-1.66,0-3.165-0.154-4.514-0.466c-0.668,0.435-1.146,0.824-1.431,1.164
		c-0.288,0.342-0.432,0.746-0.432,1.21c0,1.04,0.566,1.559,1.699,1.559h10.818C204.111-43.731,205.802-43.292,207.087-42.416z
		 M192.057-34.226c-0.094,0.597-0.14,1.097-0.14,1.501c0,1.21,0.362,2.148,1.091,2.815c0.733,0.667,1.802,1,3.213,1
		c1.228,0,2.306-0.225,3.234-0.675c0.931-0.45,1.656-1.082,2.174-1.896c0.522-0.815,0.783-1.75,0.783-2.805
		c0-0.512-0.167-0.896-0.501-1.152c-0.334-0.255-0.897-0.383-1.687-0.383h-7.703C192.304-35.354,192.15-34.823,192.057-34.226z
		 M194.07-60.043c-0.413,1.04-0.619,2.776-0.619,5.213c0,2.451,0.206,4.192,0.619,5.224c0.411,1.031,1.011,1.548,1.803,1.548
		c0.807,0,1.416-0.517,1.828-1.548c0.411-1.032,0.614-2.773,0.614-5.224s-0.203-4.193-0.614-5.225
		c-0.412-1.031-1.021-1.547-1.828-1.547C195.081-61.602,194.481-61.083,194.07-60.043z"/>
</g>
</svg>
