<?xml version="1.0" encoding="utf-8"?>
<!-- Generator: Adobe Illustrator 16.0.4, SVG Export Plug-In . SVG Version: 6.00 Build 0)  -->
<!DOCTYPE svg PUBLIC "-//W3C//DTD SVG 1.1//EN" "http://www.w3.org/Graphics/SVG/1.1/DTD/svg11.dtd">
<svg version="1.1" id="Calque_1" xmlns="http://www.w3.org/2000/svg" xmlns:xlink="http://www.w3.org/1999/xlink" x="0px" y="0px"
	 width="679px" height="679px" viewBox="0 0 679 679" enable-background="new 0 0 679 679" xml:space="preserve">
<g>
	<path d="M140.96,389.318c-12.303,0-18.852,15.479-18.852,39.888c0,23.813,3.771,35.324,8.931,40.88
		c2.381,2.381,5.754,3.374,9.326,3.374c12.105,0,18.653-16.474,18.653-40.483c0-23.418-3.969-35.125-9.128-40.285
		C147.312,390.112,144.533,389.318,140.96,389.318z"/>
	<path d="M534.667,405.392c-5.556,0-9.327,2.383-11.707,4.565c-0.992,3.373-1.787,7.344-1.787,17.661
		c0,27.187,6.351,45.245,19.25,45.245c11.311,0,16.469-12.304,16.469-34.33C556.892,414.521,547.765,405.392,534.667,405.392z"/>
	<path d="M342.179,447.462c0,7.938,4.367,12.899,11.51,12.899c4.764,0,8.533-3.175,11.114-6.151l1.189-27.98
		C347.735,431.191,342.179,437.938,342.179,447.462z"/>
	<path d="M339.5,0C151.999,0,0,152,0,339.5C0,527.001,151.999,679,339.5,679S679,527.001,679,339.5C679,152,527.001,0,339.5,0z
		 M139.571,477.627c-30.759,0-48.421-21.035-48.421-46.238c0-25.797,20.639-46.635,50.802-46.635
		c30.561,0,48.421,21.035,48.421,45.841C190.373,456.789,169.934,477.627,139.571,477.627z M258.04,474.848l0.596-3.373l3.175-0.197
		c6.747-0.399,6.747-1.787,6.747-3.375v-46.237c0-15.082-6.35-18.853-15.677-18.853c-5.954,0-10.518,1.984-13.692,3.968v61.321
		c0,1.786,0.992,2.579,7.738,3.176l3.175,0.197l0.397,3.373h-51.397l0.596-3.373l2.778-0.197c5.756-0.399,7.938-0.994,7.938-3.375
		V415.91c0-12.304-1.587-13.892-8.335-15.876l-3.968-0.992l0.198-2.579l41.276-11.51l-0.396,17.065h0.396
		c10.12-8.335,22.027-17.265,34.529-17.265c6.549,0,11.708,2.579,16.272,7.144c4.763,4.764,6.747,13.892,6.747,23.615v52.39
		c0,1.39,0.992,2.184,9.724,3.375l2.183,0.197l0.597,3.373H258.04z M384.052,477.427c-9.725,0-16.868-6.549-18.259-18.852
		l-0.595-0.198c-9.326,10.915-17.66,18.854-28.774,18.854c-11.906,0-21.63-8.932-21.63-20.244c0-15.477,14.089-24.804,50.999-34.727
		l0.199-5.557c0.596-13.494-6.746-24.012-20.043-24.012c-7.341,0-10.518,1.985-10.518,3.97c0,1.389,6.352,6.548,6.352,12.304
		c0,6.151-5.558,11.707-13.297,11.707c-7.144,0-13.097-3.771-13.097-10.715c0-14.686,27.583-25.203,47.428-25.203
		c22.821,0,32.743,9.724,31.951,32.347l-1.589,34.927c-0.396,7.738,2.58,10.716,6.944,10.716c2.78,0,5.954-3.176,8.534-6.151
		l1.985,2.183C404.889,466.115,394.769,477.427,384.052,477.427z M417.388,474.848l0.597-3.771l5.753-0.794
		c5.359-0.396,8.137-0.991,8.137-3.373v-76.401l-17.859-1.788l0.595-3.373l47.628-9.324v91.086c0,1.784,3.373,2.778,9.128,3.174
		l5.359,0.794l0.595,3.771H417.388z M480.392,316.362c-8.022-4.382-17.398-12.04-26.201-15.344
		c-6.201-1.782-13.537-2.153-20.871-2.743c-15.49-4.489-30.43-9.238-44.926-14.387l-2.711-0.972l-1.098,0.135
		c-0.735,0.091-1.423,0.2-2.069,0.328c-1.296,0.261-2.439,0.621-3.43,1.063c-1.962,0.885-3.467,2.167-4.518,4.21
		c-0.234-0.321-0.507-0.585-0.815-0.677c-0.093-0.047-0.208-0.065-0.324-0.056c0.089,0.875,0.234,2.299,0.283,3.204
		c-0.059,0.263-0.106,0.546-0.145,0.823c-0.544-0.128-1.545-0.896-1.581,0.318c0.1,0.52,0.616,1.633,1.159,2.854
		c-0.012,0.763,0.059,1.352,0.159,1.809c-3.276,3.036-6.943,6.262-10.487,9.294c-5.08,1.775-10.265,3.236-15.008,4.951l1.803,3.099
		c-3.578,5.307-11.696,2.752-15.498,7.664c2.982,3.364,6.169,6.976,9.646,10.937c-3.748-0.489,0.226,6.196-3.525,5.701
		c-2.374-0.314-3.388,4.125-7.464,1.038c-11.894-6.63-11.282,1.39-18.097,5.792c-2.271,1.466-6.645-4.085-9.583-7.764
		c-4.983,8.852-19.749-0.902-26.129,6.251c-4.372-5.393-9.168-13.321-14.759-17.863c-4.084-2.777-9.3-4.741-14.502-6.666
		c-8.352-5.251-16.549-10.163-24.56-14.838c-0.966-0.548-2.073-1.247-2.912-1.668l-1.84-0.563l-1.75-0.482
		c-0.616-0.198-1.041-0.2-1.442-0.178c-1.65,0.038-3.1,0.393-4.383,1.17c-1.293,0.679-2.271,1.794-2.932,2.915
		c-0.238-0.273-0.536-0.484-0.871-0.493c0.035,0.601,0.09,1.575,0.089,2.189c-0.06,0.173-0.113,0.355-0.158,0.537
		c-0.51-0.099-1.188-0.941-1.535,0.084c0.002,0.39,0.396,1.201,0.82,2.09c-0.271,0.242-0.924,0.662-1.368,0.971
		c-0.5,0.358-0.975,0.603-1.501,1.03c-1.037,0.795-2.079,1.561-3.132,2.301c-1.033,0.676-2.157,1.587-3.274,2.423l-3.412,2.516
		c-3.388,0.783-6.915,1.297-10.346,2.433l1.323,2.356c-0.636,0.95-1.49,1.503-2.461,1.861c-0.997,0.402-2.123,0.634-3.242,0.853
		c-2.271,0.473-4.446,0.832-5.913,2.969c-0.748,1.547,1.046,2.262,2.032,3.603c-7.284,5.396-15.47,11.3-24.854,17.034
		c-9.357,5.712-22.4,8.163-34.346,10.227l-21.363-0.796c2.214-0.629,4.434-1.262,6.644-1.891c-1.805,0.534-5.394,0.717-7.337,1.169
		c-0.016-0.023-0.037-0.036-0.049-0.06c1.832-0.9,4.145-1.306,6.493-1.64c1.18-0.166,2.353-0.333,3.47-0.491
		c1.088-0.214,2.083-0.494,2.966-0.818c-2.915-0.055-4.88-0.686-5.935-1.51c-1.051-0.819-1.216-1.854-0.718-2.992
		c0.249-0.568,0.665-1.164,1.223-1.773c0.53-0.649,1.192-1.33,1.974-2.019c1.558-1.385,3.602-2.789,5.935-4.192
		c-1.635,0.657-4.96,1.889-5.173,1.011c-0.543-2.198,1.506-2.721,3.932-2.922c2.33-0.311,5.046-0.329,5.689-1.123
		c-0.593-1.706-2.993-0.85-5.563,0.076c-2.646,0.834-5.55,1.63-6.76,0.175c1.578-0.587,3.041-1.613,4.517-2.526
		c1.451-0.949,2.849-1.892,4.511-2.142c0.014-2.479-1.847-1.625-3.814-0.481c-1.967,1.153-4.238,2.354-4.571,1.075
		c3.1-1.088,4.555-1.801,7.5-3.155c-5.253-0.562-3.796-6.172-7.446-7.482c-3.04-2.039-6.167-3.905-7.639-5.959
		c-1.503-2.137-1.422-4.389,1.403-8.001c0.587-2.271,4.078-3.64,7.65-5.635c-2.052-0.62-4.274-1.007-6.52-1.646
		c0.993-1.957,1.953-4.197,2.875-6.189c0.91-1.967,1.853-4.113,2.812-6.076c0.608-0.939,1.283-1.864,2.013-2.774
		c0.757-0.98,1.576-1.963,2.44-2.922c0.87-0.968,1.772-1.895,2.741-2.851c0.993-1.004,2.027-1.994,3.088-2.963
		c4.227-3.848,9.243-7.837,14.16-11.278l1.504-1.306c3.01-1.903,7.043-4.782,12.439-8.487c2.552-1.832,5.729-7.403,8.915-9.549
		c1.559-1.08,3.391-2.167,5.194-3.284c1.83-1.112,3.634-2.267,5.592-3.406c4.115-2.21,8.089-4.624,12.824-6.721
		c1.371-0.639,2.748-1.281,4.13-1.925c1.517-0.721,3.227-1.384,4.918-1.935c3.39-1.164,6.794-2.332,10.198-3.5
		c13.653-4.525,28.255-4.837,40.914-0.603c7.838,2.632,14.657,6.767,20.566,11.512c3.107,2.463,5.342,4.687,7.701,6.794
		c0.061,0.055,0.117,0.106,0.179,0.162c3.04-3.264,6.108-6.37,9.086-8.431l1.859-1.618c5.807-3.651,15.383-10.574,26.604-19.111
		c7.916-6.112,16.474-9.181,25.294-15.991c5.768-4.525,11.892-8.696,18.119-11.761c6.23-3.096,12.547-5.291,19.34-6.493
		c1.669-0.251,3.361-0.529,5.069-0.598c1.705-0.202,3.419-0.271,5.125-0.271c3.409-0.018,6.758,0.268,10.003,0.75
		c6.495,0.97,12.62,2.846,18.562,5.387c5.984,2.321,11.528,6.376,16.979,9.654c2.73,1.692,5.403,3.349,8.008,4.965
		c2.583,1.714,5.125,3.368,7.667,4.957l0.846,0.538l0.463,0.262l0.913,0.518c0.607,0.341,1.201,0.676,1.788,1.005
		c1.172,0.656,2.306,1.283,3.415,1.848c2.209,1.146,4.249,2.165,6.091,3.037c3.676,1.758,6.623,2.807,8.481,3.204
		c17.746,11.412,36.198,20.622,54.71,29.131c9.251,4.284,18.53,8.397,27.827,12.525c9.286,4.163,18.578,8.38,27.922,12.808
		c-4.13,2.121,4.271,9.591,0.165,11.723c-2.616,1.316-9.23-5.832-14.999-6.546c-15.776,0.655-24.664,10.049-30.149,19.313
		c-1.839,3.129-9.605-0.791-14.724-3.469c-0.759,6.654-6.598,9.166-12.873,11.34C489.267,308.564,482.578,310.427,480.392,316.362z
		 M538.042,477.627c-28.378,0-49.612-21.631-49.612-51.794c0-44.057,41.277-80.569,95.254-83.943l1.588,3.374
		c-36.713,5.159-57.748,35.522-63.106,59.137l0.396,0.396c9.725-7.344,19.647-10.717,28.974-10.717
		c21.035,0,36.315,14.09,36.315,38.103C587.851,456.789,566.419,477.627,538.042,477.627z"/>
	<path opacity="0.1" d="M141.952,384.754c-30.163,0-50.802,20.838-50.802,46.635c0,25.203,17.662,46.238,48.421,46.238
		c30.362,0,50.802-20.838,50.802-47.032C190.373,405.789,172.513,384.754,141.952,384.754z M140.365,473.46
		c-3.572,0-6.945-0.993-9.326-3.374c-5.16-5.556-8.931-17.066-8.931-40.88c0-24.409,6.549-39.888,18.852-39.888
		c3.573,0,6.352,0.794,8.931,3.373c5.159,5.16,9.128,16.867,9.128,40.285C159.019,456.986,152.471,473.46,140.365,473.46z"/>
	<path opacity="0.1" d="M306.857,471.277c-8.731-1.191-9.724-1.985-9.724-3.375v-52.39c0-9.724-1.984-18.852-6.747-23.615
		c-4.564-4.564-9.724-7.144-16.272-7.144c-12.502,0-24.409,8.93-34.529,17.265h-0.396l0.396-17.065l-41.276,11.51l-0.198,2.579
		l3.968,0.992c6.748,1.984,8.335,3.572,8.335,15.876v51.992c0,2.381-2.182,2.976-7.938,3.375l-2.778,0.197l-0.596,3.373h51.397
		l-0.397-3.373l-3.175-0.197c-6.746-0.597-7.738-1.39-7.738-3.176V406.78c3.175-1.983,7.738-3.968,13.692-3.968
		c9.327,0,15.677,3.771,15.677,18.853v46.237c0,1.588,0,2.976-6.747,3.375l-3.175,0.197l-0.596,3.373h51.597l-0.597-3.373
		L306.857,471.277z"/>
	<path opacity="0.1" d="M400.124,462.743c-4.364,0-7.34-2.978-6.944-10.716l1.589-34.927c0.792-22.623-9.13-32.347-31.951-32.347
		c-19.845,0-47.428,10.518-47.428,25.203c0,6.944,5.953,10.715,13.097,10.715c7.739,0,13.297-5.556,13.297-11.707
		c0-5.756-6.352-10.915-6.352-12.304c0-1.984,3.177-3.97,10.518-3.97c13.297,0,20.639,10.518,20.043,24.012l-0.199,5.557
		c-36.91,9.923-50.999,19.25-50.999,34.727c0,11.312,9.724,20.244,21.63,20.244c11.114,0,19.448-7.938,28.774-18.854l0.595,0.198
		c1.391,12.303,8.534,18.852,18.259,18.852c10.717,0,20.837-11.312,26.592-18.652l-1.985-2.183
		C406.078,459.567,402.904,462.743,400.124,462.743z M364.803,454.21c-2.581,2.977-6.351,6.151-11.114,6.151
		c-7.143,0-11.51-4.961-11.51-12.899c0-9.524,5.557-16.271,23.813-21.232L364.803,454.21z"/>
	<path opacity="0.1" d="M334.114,321.934c-19.422-21.902-29.947-32.934-52.354-56.321c-2.273-1.199-6.349-4.386-11.584-8.836
		c-0.433-0.382-0.872-4.309-1.319-4.702c-0.543-0.489-1.095-0.985-1.653-1.489c-1.055-0.955-2.14-1.938-3.246-2.94
		c-0.062-0.055-0.118-0.106-0.179-0.162c-2.359-2.107-4.594-4.332-7.701-6.794c-5.909-4.745-12.729-8.88-20.566-11.512
		c-12.659-4.235-27.261-3.923-40.914,0.603c-3.404,1.168-6.809,2.336-10.198,3.5c-1.691,0.55-3.401,1.213-4.918,1.935
		c-1.382,0.645-2.759,1.286-4.13,1.925c-4.735,2.097-8.709,4.511-12.824,6.721c-1.958,1.139-3.762,2.294-5.592,3.406
		c-1.804,1.117-3.636,2.204-5.194,3.284c-3.187,2.146-6.363,7.717-8.915,9.549c-5.396,3.706-9.43,6.584-12.439,8.487l-1.504,1.306
		c-4.917,3.441-9.934,7.43-14.16,11.278c-1.061,0.97-2.095,1.959-3.088,2.963c-0.969,0.957-1.871,1.883-2.741,2.851
		c-0.864,0.959-1.684,1.942-2.44,2.922c-0.729,0.91-1.404,1.834-2.013,2.774c-0.959,1.963-1.901,4.109-2.812,6.076
		c-0.922,1.992-1.882,4.232-2.875,6.189c2.245,0.64,4.468,1.026,6.52,1.646c-3.572,1.995-7.063,3.363-7.65,5.635
		c-2.825,3.612-2.906,5.864-1.403,8.001c1.472,2.054,4.599,3.92,7.639,5.959c3.65,1.311,2.193,6.921,7.446,7.482
		c-2.945,1.354-4.4,2.067-7.5,3.155c0.333,1.278,2.604,0.078,4.571-1.075c1.968-1.144,3.828-1.998,3.814,0.481
		c-1.662,0.25-3.06,1.192-4.511,2.142c-1.476,0.913-2.938,1.939-4.517,2.526c1.21,1.455,4.114,0.659,6.76-0.175
		c2.57-0.926,4.971-1.782,5.563-0.076c-0.644,0.794-3.359,0.812-5.689,1.123c-2.426,0.201-4.475,0.724-3.932,2.922
		c0.213,0.878,3.538-0.354,5.173-1.011c-2.333,1.403-4.377,2.808-5.935,4.192c-0.781,0.688-1.443,1.369-1.974,2.019
		c-0.558,0.609-0.974,1.205-1.223,1.773c-0.498,1.139-0.333,2.173,0.718,2.992c1.055,0.824,3.02,1.455,5.935,1.51
		c-0.883,0.324-1.878,0.604-2.966,0.818c-1.117,0.158-2.29,0.325-3.47,0.491c-2.349,0.334-4.661,0.739-6.493,1.64
		c0.012,0.023,0.033,0.036,0.049,0.06c1.943-0.452,5.532-0.635,7.337-1.169c-2.21,0.629-4.43,1.262-6.644,1.891l21.363,0.796
		c11.945-2.063,24.988-4.515,34.346-10.227c9.384-5.734,17.569-11.639,24.854-17.034c-0.986-1.341-2.78-2.056-2.032-3.603
		c1.467-2.137,3.642-2.496,5.913-2.969c1.119-0.219,2.245-0.45,3.242-0.853c0.971-0.358,1.825-0.911,2.461-1.861l-1.323-2.356
		c3.431-1.136,6.958-1.649,10.346-2.433l3.412-2.516c1.117-0.836,2.241-1.747,3.274-2.423c1.053-0.74,2.095-1.506,3.132-2.301
		c0.526-0.428,1.001-0.672,1.501-1.03c0.444-0.309,1.098-0.729,1.368-0.971c-0.424-0.889-0.818-1.7-0.82-2.09
		c0.347-1.025,1.025-0.183,1.535-0.084c0.045-0.182,0.099-0.364,0.158-0.537c0.001-0.614-0.054-1.589-0.089-2.189
		c0.335,0.009,0.633,0.22,0.871,0.493c0.66-1.121,1.639-2.236,2.932-2.915c1.283-0.777,2.732-1.132,4.383-1.17
		c0.401-0.022,0.826-0.021,1.442,0.178l1.75,0.482l1.84,0.563c0.839,0.421,1.946,1.12,2.912,1.668
		c8.011,4.675,16.208,9.587,24.56,14.838c5.202,1.925,10.418,3.889,14.502,6.666c5.591,4.542,10.387,12.471,14.759,17.863
		c6.38-7.153,21.146,2.601,26.129-6.251c2.938,3.679,7.312,9.229,9.583,7.764c6.814-4.402,6.203-12.422,18.097-5.792
		c4.076,3.087,5.09-1.353,7.464-1.038c3.751,0.495-0.223-6.19,3.525-5.701C340.283,328.909,337.097,325.298,334.114,321.934z"/>
</g>
</svg>
