<?xml version="1.0" encoding="utf-8"?>
<!-- Generator: Adobe Illustrator 16.0.4, SVG Export Plug-In . SVG Version: 6.00 Build 0)  -->
<!DOCTYPE svg PUBLIC "-//W3C//DTD SVG 1.1//EN" "http://www.w3.org/Graphics/SVG/1.1/DTD/svg11.dtd">
<svg version="1.1" id="Calque_1" xmlns="http://www.w3.org/2000/svg" xmlns:xlink="http://www.w3.org/1999/xlink" x="0px" y="0px"
	 width="504.209px" height="504.209px" viewBox="0 0 504.209 504.209" enable-background="new 0 0 504.209 504.209"
	 xml:space="preserve">
<g>
	<path d="M189.713,217.25c-0.74-0.207-1.507-0.441-2.265-0.444c-7.614-0.033-15.23-0.02-22.96-0.02c0,9.662,0,19.255,0,28.911
		c7.617,0,15.108,0.318,22.56-0.089c7.529-0.41,12.752-5.971,13.35-13.273C200.979,225.218,196.734,219.212,189.713,217.25z"/>
	<path d="M239.568,270.175c9.189,0,18.104,0,27.3,0c-4.425-13.185-8.801-26.226-13.407-39.944
		C248.715,243.878,244.173,256.937,239.568,270.175z"/>
	<path d="M400.022,217.261c-7.047-0.929-14.256-0.625-21.494-0.868c0,24.41,0,48.348,0,72.35c6.32,0,12.503,0.305,18.642-0.071
		c9.805-0.603,16.027-6.603,17.323-16.404c0.562-4.269,0.912-8.605,0.86-12.904c-0.108-8.934-0.129-17.902-0.973-26.783
		C413.586,224.201,408.11,218.325,400.022,217.261z"/>
	<path d="M252.104,0C112.871,0,0,112.871,0,252.104s112.871,252.104,252.104,252.104s252.104-112.871,252.104-252.104
		S391.338,0,252.104,0z M437.061,268.448c-0.076,7.367-1.379,14.61-5.044,21.176c-7.008,12.558-18.384,17.977-32.137,18.466
		c-13.801,0.489-27.634,0.132-41.453,0.21c-1.544,0.008-2.45-0.423-3.321-1.783c-13.36-20.846-26.79-41.647-40.206-62.454
		c-0.631-0.979-1.286-1.941-1.93-2.911c-0.185,0.072-0.368,0.146-0.551,0.219c0,22.259,0,44.517,0,66.897
		c-10.835,0-21.408,0.026-31.978-0.073c-0.577-0.005-1.428-0.961-1.666-1.644c-1.894-5.383-3.72-10.79-5.44-16.229
		c-0.435-1.367-1.099-1.77-2.471-1.764c-11.889,0.044-23.779,0.044-35.668,0c-1.299-0.006-1.945,0.422-2.32,1.66
		c-0.714,2.356-1.555,4.679-2.359,7.008c-1.271,3.684-2.555,7.363-3.832,11.043c-7.112,0-13.991-0.228-20.843,0.098
		c-3.378,0.158-4.933-0.982-6.343-3.975c-6.108-12.968-12.499-25.8-18.835-38.66c-0.328-0.668-1.069-1.593-1.64-1.607
		c-4.827-0.129-9.66-0.074-14.771-0.074c0,14.913,0,29.527,0,44.038c-7.344,0-14.404,0-21.733,0c0-5.282,0-10.39,0-15.959
		c-0.681,0.812-1.022,1.209-1.355,1.616c-6.009,7.312-13.742,11.791-22.905,13.901c-1.77,0.407-3.561,0.726-5.342,1.085
		c-3.243,0-6.485,0-9.729,0c-0.408-0.147-0.807-0.376-1.227-0.433c-14.519-1.928-32.777-12.571-34.055-36.331
		c-0.188-3.502-0.564-6.993-0.854-10.49c0-2.779,0-5.559,0-8.339c0.129-0.807,0.347-1.611,0.373-2.421
		c0.206-6.474,0.088-12.974,0.614-19.422c1.283-15.729,9.586-26.637,24.02-32.587c10.512-4.334,21.428-4.037,32.21-0.732
		c7.088,2.171,12.791,6.569,17.897,11.93c-4.989,4.92-9.864,9.724-15.117,14.902c-0.419-0.579-0.827-1.367-1.434-1.948
		c-4.088-3.913-8.63-6.825-14.473-7.572c-10.62-1.364-19.604,4.872-20.943,15.477c-1.746,13.822-1.397,27.728-0.272,41.59
		c0.513,6.319,3.082,11.733,9.081,14.651c7.494,3.646,14.895,3.127,21.584-1.924c6.992-5.28,7.437-12.965,7.135-21.04
		c-6.6,0-12.966,0-19.325,0c0-6.148,0-12.115,0-18.202c11.433,0,22.674,0,34.235,0c0-16.27,0-32.418,0-48.536
		c0.55-0.073,0.776-0.13,1.003-0.13c14.745-0.006,29.495-0.236,44.236,0.045c18.856,0.361,31.931,12.266,34.152,30.567
		c1.604,13.204-4.963,25.396-16.854,31.293c-1.004,0.496-2.014,0.979-3.107,1.509c3.761,7.249,7.401,14.271,11.278,21.743
		c1.226-3.335,2.289-6.203,3.336-9.078c8.965-24.62,17.949-49.235,26.844-73.881c0.645-1.786,1.487-2.323,3.319-2.257
		c3.932,0.146,7.879,0.178,11.808-0.008c2.104-0.102,3.054,0.546,3.784,2.567c8.956,24.785,18.016,49.532,27.054,74.285
		c0.254,0.696,0.585,1.366,0.881,2.05c0.159-0.056,0.32-0.112,0.479-0.167c0-26.146,0-52.291,0-78.682
		c5.778,0,11.396,0.067,17.01-0.042c1.676-0.034,2.593,0.52,3.498,1.925c13.485,20.948,27.038,41.854,40.578,62.77
		c0.501,0.774,1.028,1.533,1.544,2.3c0.187-0.078,0.373-0.159,0.558-0.237c0-22.191,0-44.382,0-66.715
		c5.497,0,10.739-0.036,15.982,0.007c10.958,0.094,21.95-0.285,32.862,0.463c19.139,1.312,32.785,15.288,33.78,34.483
		C437.289,244.202,437.186,256.337,437.061,268.448z"/>
</g>
</svg>
