<?xml version="1.0" encoding="utf-8"?>
<!-- Generator: Adobe Illustrator 21.1.0, SVG Export Plug-In . SVG Version: 6.00 Build 0)  -->
<svg version="1.1" id="Calque_1" xmlns="http://www.w3.org/2000/svg" xmlns:xlink="http://www.w3.org/1999/xlink" x="0px" y="0px"
	 viewBox="0 0 295.4 38.2" style="enable-background:new 0 0 295.4 38.2;" xml:space="preserve">
<style type="text/css">
	.st0{fill:#FCCC04;}
</style>
<g>
	<path class="st0" d="M29.8,6.2c-0.4,0.4-0.8,1.1-0.9,2c-0.2,0.9-0.2,2.3-0.2,4.1v24.4c-0.4,0-0.9-0.1-1.5-0.1c-0.5,0-1.1,0-1.7,0.1
		L5.1,14.6v13.2c0,2.3,0.1,3.9,0.3,4.9c0.2,1,0.6,1.7,1.2,2.2c0.6,0.5,1.7,0.8,3.2,1v0.9c-1.2-0.1-2.9-0.1-5.2-0.1
		c-1.6,0-2.9,0-3.8,0.1v-0.9c1-0.2,1.7-0.5,2.1-1c0.5-0.4,0.8-1.1,0.9-2.1C3.9,31.9,4,30.6,4,28.7V9.2c0-1.1-0.1-2-0.2-2.5
		C3.6,6.2,3.3,5.8,2.9,5.6S1.7,5.3,0.7,5.2V4.3c0.9,0.1,2.2,0.1,3.8,0.1c1.7,0,3.1,0,4.2-0.1l18.8,19.8V13.3c0-2.3-0.1-3.9-0.3-4.9
		c-0.2-1-0.6-1.7-1.2-2.2c-0.6-0.5-1.7-0.8-3.1-1V4.3c1.2,0.1,3,0.1,5.1,0.1c1.6,0,2.9,0,3.8-0.1v0.9C30.9,5.5,30.2,5.8,29.8,6.2z"
		/>
	<path class="st0" d="M44.6,14.4c-0.5-0.8-1.4-1.2-2.7-1.2c-0.4,0-0.8,0.1-1.2,0.2c-0.4,0.1-0.8,0.3-1.2,0.6c2,0.8,3.1,2.1,3.1,4.1
		c0,0.7-0.2,1.4-0.5,1.9c-0.4,0.6-0.9,1-1.6,1.4C39.8,21.9,39,22,38.1,22c-0.7,0-1.4-0.2-2-0.5c-0.6-0.4-1-0.8-1.3-1.4
		c-0.3-0.6-0.5-1.3-0.5-2c0-0.9,0.3-1.7,0.8-2.5c0.5-0.7,1.2-1.3,2.1-1.8c1.9-1,4.4-1.5,7.3-1.5c1.7,0,3.2,0.2,4.4,0.5
		c1.2,0.3,2.2,0.9,3,1.8c0.6,0.6,1,1.4,1.2,2.4c0.2,1,0.3,2.3,0.3,4v12.3c0,0.7,0.1,1.2,0.2,1.5c0.1,0.3,0.3,0.4,0.5,0.4
		c0.2,0,0.5-0.1,0.7-0.2c0.2-0.1,0.5-0.3,0.8-0.5l0.4,0.8c-0.7,0.6-1.6,1-2.5,1.3c-1,0.3-2.1,0.4-3.5,0.4c-1.6,0-2.8-0.3-3.6-1
		c-0.8-0.7-1.1-1.5-1.2-2.5c-0.6,1.1-1.5,1.9-2.7,2.5c-1.2,0.6-2.5,0.9-3.9,0.9c-1.8,0-3.2-0.5-4.2-1.4c-1-1-1.5-2.2-1.5-3.8
		c0-1.6,0.5-2.9,1.4-3.9c0.9-1,2.4-1.9,4.4-2.6c1.6-0.6,2.8-1,3.6-1.4c0.8-0.3,1.4-0.7,2-1.2c0.5-0.5,0.8-1,0.8-1.7V17
		C45.3,16.1,45.1,15.2,44.6,14.4z M43.5,25c-1.5,1.4-2.2,3.2-2.2,5.2c0,2.2,0.8,3.2,2.3,3.2c0.6,0,1.2-0.3,1.7-0.8V23
		C45.1,23.4,44.5,24.1,43.5,25z"/>
	<path class="st0" d="M72.5,13V14H68v19c0,0.6,0.1,1,0.3,1.3c0.2,0.3,0.6,0.4,1.1,0.4c0.4,0,0.8-0.1,1.2-0.3c0.4-0.2,0.9-0.6,1.2-1
		l0.7,0.6c-1.4,2.4-3.6,3.6-6.5,3.6c-2.1,0-3.7-0.5-4.7-1.6c-0.6-0.6-1-1.4-1.3-2.4c-0.2-1-0.3-2.3-0.3-4V14h-3.5V13h3.5V7.6
		c1.7,0,3.2-0.2,4.5-0.5c1.3-0.3,2.6-0.8,3.8-1.5V13H72.5z"/>
	<path class="st0" d="M84.6,34.6c0.2,0.5,0.4,0.8,0.8,1c0.4,0.2,0.9,0.3,1.5,0.3v1c-3.3-0.1-5.5-0.2-6.5-0.2s-3.4,0.1-6.9,0.2v-1
		c0.6,0,1.2-0.1,1.5-0.3c0.4-0.2,0.6-0.5,0.8-1c0.2-0.5,0.2-1.1,0.2-2V18c0-1.4-0.2-2.4-0.6-3.1c-0.4-0.6-1.1-1-2-1v-1
		c1,0.1,1.9,0.1,2.8,0.1c3.2,0,5.8-0.2,8-0.6v20.1C84.3,33.4,84.4,34.1,84.6,34.6z M83.6,1.9c0.9,0.7,1.3,1.7,1.3,3
		c0,1.3-0.4,2.3-1.3,2.9c-0.9,0.7-2.1,1-3.7,1c-1.6,0-2.9-0.3-3.7-1s-1.3-1.6-1.3-2.9c0-1.3,0.4-2.3,1.3-3c0.9-0.7,2.1-1,3.7-1
		C81.5,0.9,82.7,1.3,83.6,1.9z"/>
	<path class="st0" d="M107.8,13.2c1.7,0,2.9-0.1,3.5-0.2v1c-0.6,0.2-1.2,0.7-1.7,1.4c-0.5,0.7-1,1.7-1.5,3.1l-6.2,18.4
		c-0.8-0.1-1.5-0.1-2.2-0.1c-0.7,0-1.4,0-2.2,0.1l-8-20.3c-0.7-1.7-1.6-2.6-2.7-2.6v-1c2.4,0.2,5.2,0.3,8.2,0.3c1.5,0,3.5-0.1,6-0.3
		v1c-0.7,0-1.3,0-1.6,0.1c-0.4,0.1-0.6,0.2-0.8,0.4c-0.2,0.2-0.2,0.7-0.1,1.2l5,13.9l2.1-6.3c0.6-1.7,0.9-3.3,0.9-4.7
		c0-1.4-0.3-2.5-0.9-3.3c-0.6-0.8-1.4-1.2-2.4-1.3v-1C104.1,13.1,105.7,13.2,107.8,13.2z"/>
	<path class="st0" d="M120.4,24.3c0,2.9,0.5,5,1.5,6.3c1,1.2,2.3,1.9,3.8,1.9c2.2,0,4.1-1,5.6-3.1l0.8,0.3c-0.4,1.4-1.1,2.6-1.9,3.8
		c-0.8,1.2-1.9,2.1-3.2,2.9c-1.3,0.7-2.8,1.1-4.5,1.1c-3.2,0-5.8-1-7.7-3c-1.9-2-2.9-5.2-2.9-9.5c0-2.8,0.5-5.2,1.5-7.1
		c1-1.9,2.4-3.3,4.2-4.2c1.8-0.9,3.8-1.3,6.1-1.3c5.8,0,8.7,3.4,8.7,10.3h-11.9C120.4,23,120.4,23.5,120.4,24.3z M125.1,15.8
		c-0.4-1.6-1-2.3-1.8-2.3c-0.8,0-1.5,0.7-2,2c-0.5,1.3-0.8,3.4-1,6.4h5.3C125.6,19.3,125.4,17.3,125.1,15.8z"/>
	<path class="st0" d="M149.5,32.7c1.3,2.3,3.3,3.4,6.1,3.4c1.7,0,3-0.4,4-1.2c1-0.8,1.5-1.9,1.5-3.3c0-1.2-0.3-2.3-0.8-3.3
		c-0.5-1-1.3-1.8-2.2-2.6c-0.9-0.8-2.2-1.7-3.7-2.7c-1.9-1.2-3.3-2.3-4.4-3.2c-1.1-0.9-2-2-2.7-3.2c-0.7-1.2-1.1-2.6-1.1-4.2
		c0-1.9,0.5-3.5,1.6-4.8c1-1.3,2.4-2.3,4.1-2.9c1.7-0.6,3.6-0.9,5.7-0.9c1.8,0,3.2,0.2,4.3,0.5c1.1,0.3,2.1,0.8,3.2,1.3
		c0.4,0.2,0.8,0.4,1,0.5c0.2,0.1,0.4,0.1,0.6,0.1c0.3,0,0.5-0.2,0.6-0.5c0.1-0.3,0.3-0.8,0.4-1.5h1.1c-0.1,2.2-0.2,5.9-0.2,11.2
		h-1.1c-0.1-1.7-0.5-3.4-1.2-5c-0.7-1.6-1.6-2.9-2.8-3.9c-1.2-1-2.5-1.5-4-1.5c-1.4,0-2.5,0.4-3.4,1.1c-0.9,0.7-1.3,1.8-1.3,3.1
		c0,1.1,0.3,2.1,0.8,2.8c0.5,0.8,1.2,1.5,2.1,2.2c0.9,0.7,2.6,1.9,5.2,3.7c1.7,1.2,3,2.2,4,3.1c1,0.9,1.8,1.9,2.5,3.1
		c0.6,1.2,1,2.6,1,4.1c0,2-0.6,3.7-1.7,5c-1.1,1.4-2.6,2.4-4.5,3.1c-1.9,0.7-4,1-6.3,1c-1.9,0-3.4-0.2-4.7-0.5s-2.4-0.7-3.5-1.2
		c-0.7-0.4-1.2-0.6-1.5-0.6c-0.3,0-0.5,0.2-0.7,0.5c-0.1,0.3-0.3,0.8-0.4,1.5h-1.1c0.1-2.3,0.2-6.8,0.2-13.3h1.1
		C147.4,27.4,148.2,30.4,149.5,32.7z"/>
	<path class="st0" d="M187.9,13V14h-4.5v19c0,0.6,0.1,1,0.3,1.3c0.2,0.3,0.6,0.4,1.1,0.4c0.4,0,0.8-0.1,1.2-0.3
		c0.4-0.2,0.9-0.6,1.2-1l0.7,0.6c-1.4,2.4-3.6,3.6-6.5,3.6c-2.1,0-3.7-0.5-4.7-1.6c-0.6-0.6-1-1.4-1.3-2.4c-0.2-1-0.3-2.3-0.3-4V14
		h-3.5V13h3.5V7.6c1.7,0,3.2-0.2,4.5-0.5c1.3-0.3,2.6-0.8,3.8-1.5V13H187.9z"/>
	<path class="st0" d="M209.6,15.3c2,2,3.1,5.2,3.1,9.6c0,4.4-1,7.6-3.1,9.6s-5,2.9-8.7,2.9c-3.8,0-6.7-1-8.7-2.9s-3.1-5.2-3.1-9.6
		c0-4.4,1-7.6,3.1-9.6c2.1-2,5-3,8.7-3S207.5,13.3,209.6,15.3z M198.5,16.2c-0.6,1.9-0.9,4.9-0.9,8.8c0,3.9,0.3,6.8,0.9,8.7
		c0.6,1.9,1.4,2.9,2.3,2.9s1.7-1,2.3-2.9c0.6-1.9,0.9-4.8,0.9-8.7c0-3.9-0.3-6.9-0.9-8.8c-0.6-1.9-1.4-2.9-2.3-2.9
		S199.1,14.2,198.5,16.2z"/>
	<path class="st0" d="M231.8,12.3c1.5,0,2.6,0.5,3.2,1.4c0.7,0.9,1,2,1,3.3c0,1.4-0.4,2.5-1.2,3.3c-0.8,0.8-1.8,1.2-3.1,1.2
		c-1.3,0-2.3-0.3-3-0.9c-0.7-0.6-1.1-1.4-1.1-2.4c0-1.8,0.8-3.2,2.4-4.3c-0.6,0-1,0.1-1.5,0.3c-0.8,0.3-1.4,0.9-1.9,1.6
		c-0.5,0.8-0.8,1.6-0.8,2.5v13.8c0,1,0.1,1.7,0.4,2.3c0.3,0.5,0.7,0.9,1.3,1.2c0.6,0.2,1.3,0.3,2.3,0.3v1c-3.8-0.1-6.2-0.2-7.4-0.2
		c-1.1,0-3.6,0.1-7.3,0.2v-1c0.6,0,1.1-0.1,1.5-0.3c0.4-0.2,0.6-0.5,0.8-1c0.2-0.5,0.2-1.1,0.2-2V18c0-1.4-0.2-2.4-0.6-3.1
		c-0.4-0.6-1.1-1-2-1v-1c1,0.1,1.9,0.1,2.8,0.1c3.2,0,5.8-0.2,8-0.6v3.3C227,13.5,229,12.3,231.8,12.3z"/>
	<path class="st0" d="M248.2,34.6c0.2,0.5,0.4,0.8,0.8,1c0.4,0.2,0.9,0.3,1.5,0.3v1c-3.3-0.1-5.5-0.2-6.5-0.2
		c-1.1,0-3.4,0.1-6.9,0.2v-1c0.6,0,1.1-0.1,1.5-0.3c0.4-0.2,0.6-0.5,0.8-1c0.2-0.5,0.2-1.1,0.2-2V18c0-1.4-0.2-2.4-0.6-3.1
		c-0.4-0.6-1.1-1-2-1v-1c1,0.1,1.9,0.1,2.8,0.1c3.2,0,5.8-0.2,8-0.6v20.1C247.9,33.4,248,34.1,248.2,34.6z M247.2,1.9
		c0.9,0.7,1.3,1.7,1.3,3c0,1.3-0.4,2.3-1.3,2.9c-0.9,0.7-2.1,1-3.7,1c-1.6,0-2.9-0.3-3.7-1c-0.9-0.7-1.3-1.6-1.3-2.9
		c0-1.3,0.4-2.3,1.3-3c0.9-0.7,2.1-1,3.7-1C245.1,0.9,246.4,1.3,247.2,1.9z"/>
	<path class="st0" d="M261.3,24.3c0,2.9,0.5,5,1.5,6.3c1,1.2,2.3,1.9,3.8,1.9c2.2,0,4.1-1,5.6-3.1l0.8,0.3c-0.4,1.4-1.1,2.6-1.9,3.8
		s-1.9,2.1-3.2,2.9c-1.3,0.7-2.8,1.1-4.5,1.1c-3.2,0-5.8-1-7.7-3c-1.9-2-2.9-5.2-2.9-9.5c0-2.8,0.5-5.2,1.5-7.1
		c1-1.9,2.4-3.3,4.2-4.2c1.8-0.9,3.8-1.3,6.1-1.3c5.8,0,8.7,3.4,8.7,10.3h-11.9C261.3,23,261.3,23.5,261.3,24.3z M266,15.8
		c-0.4-1.6-1-2.3-1.8-2.3c-0.8,0-1.5,0.7-2,2c-0.5,1.3-0.8,3.4-1,6.4h5.3C266.5,19.3,266.3,17.3,266,15.8z"/>
	<path class="st0" d="M278.3,32.3c0.5,1.3,1.2,2.2,2.1,2.9c0.8,0.7,1.8,1.1,2.9,1.1c0.8,0,1.4-0.2,1.9-0.6c0.5-0.4,0.8-1,0.8-1.9
		c0-0.9-0.2-1.6-0.5-2.3c-0.4-0.7-0.8-1.3-1.3-1.8c-0.5-0.5-1.3-1.3-2.4-2.3c-1.3-1.2-2.3-2.1-2.9-2.8c-0.7-0.7-1.2-1.5-1.7-2.5
		c-0.5-0.9-0.7-2-0.7-3.1c0-1.3,0.4-2.5,1.2-3.5c0.8-1,1.8-1.8,3.2-2.3c1.3-0.5,2.7-0.8,4.3-0.8c1.2,0,2.3,0.1,3.4,0.4
		c1,0.3,1.8,0.5,2.4,0.9c0.3,0.2,0.6,0.3,0.8,0.3c0.6,0,1-0.5,1.1-1.5h0.9c-0.1,1.6-0.2,4.4-0.2,8.3h-0.9c-0.2-2-0.8-3.7-1.7-5.1
		c-0.9-1.4-2.2-2.1-3.9-2.1c-0.8,0-1.4,0.2-1.9,0.7c-0.5,0.5-0.8,1.1-0.8,1.9c0,1,0.3,1.9,1,2.7c0.7,0.8,1.5,1.5,2.4,2.3
		c0.9,0.7,1.6,1.3,2,1.6c1.1,0.9,2,1.8,2.7,2.4s1.2,1.5,1.6,2.3c0.4,0.9,0.6,1.9,0.6,3c0,1.4-0.4,2.6-1.2,3.7
		c-0.8,1.1-1.9,1.9-3.4,2.5s-3,0.9-4.6,0.9c-1.9,0-3.5-0.4-4.7-1.2c-1-0.5-1.8-0.8-2.3-0.8c-0.6,0-1,0.5-1.3,1.6h-0.9
		c0.1-1.7,0.2-4.8,0.2-9.2h0.9C277.5,29.6,277.8,31.1,278.3,32.3z"/>
</g>
</svg>
