<?xml version="1.0" encoding="utf-8"?>
<!-- Generator: Adobe Illustrator 22.0.0, SVG Export Plug-In . SVG Version: 6.00 Build 0)  -->
<svg version="1.1" id="Calque_1" xmlns="http://www.w3.org/2000/svg" xmlns:xlink="http://www.w3.org/1999/xlink" x="0px" y="0px"
	 viewBox="0 0 1232 456" style="enable-background:new 0 0 1232 456;" xml:space="preserve">
<style type="text/css">
	.st0{fill:#FFFFFF;}
</style>
<path class="st0" d="M264,306.8c-0.2,1.8-1.1,3.1-1.1,3.1s-0.9,0.9-2.4,1.3c-20.8,8.6-44,5.7-44,5.7c-37.5-4.2-61.4-27.5-69-57.6
	c-11.3-45.1,11.1-77.2,16.5-84c13.2-16.1,33.8-27.5,54-30.1c17.7-2.6,35.8-0.9,52.7,5c0,0,8.7,2.9,15.2,7.3c3.3,2.2,3.7,3.1,3.7,3.1
	s0.2,0.4-0.7,4l-6.1,32.3c-0.2,1.3-1.1,2-1.1,2s-0.4,0.2-3.5-1.8c-19.5-14.1-42.3-12.3-42.3-12.3c-17.4,1.1-37.5,10.3-43.6,33.6
	c-5.4,20.7,0.2,38.1,12.4,48.4c8.2,7.2,21,11,34.5,10.3c14.8-1.1,26.5-7.1,25.6-6.6c0,0,0.7-0.2,1.3-0.4c3-1.5,3.7-1.3,3.7-1.3
	s0.7,0.7,0.2,2.6L264,306.8L264,306.8z M375.1,197c0,0-0.2,0-0.4,0.4L353,247.4c-0.4,0.6-0.2,1.1-0.2,1.1s0.2,0.2,1.3,0.2l31.9,0.2
	c0.2,0,0.4-0.2,0.4-0.2s0.2-0.2,0-0.9l-11.1-50.4C375.3,197,375.1,197,375.1,197L375.1,197z M735.3,196.4c0,0-0.2,0-0.4,0.9
	L713.1,247c-0.4,1.5-0.2,1.7-0.2,1.7s0.6,0.4,1.1,0.4l32.1-0.2h0.4c0,0,0.2-0.2,0-0.9l-10.9-51C735.5,196.4,735.3,196.4,735.3,196.4
	L735.3,196.4z M441,312.3l-38.6,0.2c-0.9,0-1.5-0.4-1.5-0.4s-0.2-0.2-0.4-1.8l-6.1-25.3c0-0.7-0.4-0.9-0.4-0.9h-55.1
	c-1.1,0-1.7,0.9-1.7,0.9s-0.9,0.6-1.5,2.2l-10.9,23.6c-0.4,0.9-0.6,1.1-0.6,1.1s-0.7,0.4-1.3,0.4h-44.9c-1.3,0.2-1.5-0.4-1.5-0.4
	s-0.2-0.7,0.2-1.5l77.9-158.8c0.4-0.9,1.1-1.1,1.1-1.1h51.2c0.9,0,1.5,0.7,1.5,0.7s0.2,0.2,0.4,0.9l33.4,159.2
	c0,0.7-0.4,0.9-0.4,0.9S441.5,312.3,441,312.3L441,312.3z M614.6,312.7h-41c0,0-0.2-0.2-0.4-0.4l-55.1-99.2
	c-0.4-0.4-0.7-0.4-0.7-0.4s-0.4,0-0.4,0.7l-13.7,97.4c-0.2,1.1-0.4,1.3-0.4,1.3s-0.4,0.2-1.1,0.2h-39.5c-0.6,0-1.1-0.4-1.1-0.4
	s-0.9-0.9-0.7-1.8l21.7-157.7c0.2-0.9,0.7-1.1,0.7-1.1s0.6-0.6,1.3-0.6h44.1c0.6,0,1.1,0.4,1.1,0.4s0.4,0.2,0.7,0.9l49.7,88.4
	c0.9,1.7,1.5,1.5,1.5,1.5s0.7,0,1.1-2l12.6-88c0-0.7,0.4-0.9,0.4-0.9s0.2-0.4,0.9-0.4l41.4,0.4c0.9,0,1.1,0.2,1.1,0.2
	s0.2,0.2,0.2,0.7l-22.3,159c-0.2,0.9-0.7,1.5-0.7,1.5S615.7,312.7,614.6,312.7L614.6,312.7z M800.6,312.9h-39.7
	c-0.9,0.4-1.5-0.4-1.5-0.4s-0.2-0.2-0.4-1.5l-5.2-24.8c-0.4-1.3-0.9-2-0.9-2s-1.1-0.7-2.4-0.7h-51.7c-1.1,0-1.7,0.7-1.7,0.7
	s-0.9,0.9-1.3,2.2l-11.7,25.3c-0.2,0.6-0.7,0.9-0.7,0.9s-0.9,0.2-1.3,0.2h-44.7c-1.1,0.2-1.5-0.4-1.5-0.4s-0.2-0.4,0.4-1.3
	l78.8-159.5c0.4-0.2,0.9-0.9,0.9-0.9s0.4-0.2,1.7-0.2h48.8c1.1,0,1.7,0.7,1.7,0.7s0.2,0.2,0.4,0.9l32.7,160.1c0,0.4-0.2,0.6-0.2,0.6
	S801.2,312.9,800.6,312.9L800.6,312.9z M914.5,310.5c-0.2,1.3-0.4,1.8-0.4,1.8s-0.2,0.4-1.3,0.4h-89.4c-2.6,0-3.3-0.6-3.3-0.6
	s-0.4-0.9-0.2-2.9L842,153c0.2-2,0.6-2.6,0.6-2.6h43c1.1,0,1.5,0.2,1.5,0.2s0.2,0.6,0,1.5l-16.7,122.1c-0.2,1.3,0.4,1.5,0.4,1.5
	s0.4,0.2,2.2,0.2h44.3c0.9,0,1.3,0.5,1.3,0.5s0.2,0.2,0.2,1.3L914.5,310.5L914.5,310.5z M1086.6,248.7c0,0-0.2,0.4-0.9,0.4h-55.6
	c-0.9,0-1.3,0.4-1.3,0.4s-0.6,0.2-0.6,1.3v60c0,0.9-0.4,1.1-0.4,1.1s-0.2,0.4-0.9,0.4h-44.1c-0.6,0-1.1-0.4-1.1-0.4
	s-0.2-0.2-0.2-1.3v-60.1c0-0.6-0.6-1.1-0.6-1.1s-0.2-0.4-0.9-0.4h-56.9c-1.1,0-1.3-0.2-1.3-0.2s-0.4-0.4-0.4-1.8v-44
	c0-0.4,0.4-1.1,0.4-1.1s0.2-0.2,0.6-0.2h58.1c0.4,0,0.4-0.2,0.4-0.2s0.4-0.2,0.4-0.7v-52.6c0-0.7,0.2-1.1,0.2-1.1s0.4-0.2,1.7-0.2
	h43.2c0.9,0,1.1,0.2,1.1,0.2s0.4,0.4,0.4,1.3v52.8h56.4c1.5,0,2,0.2,2,0.2s0.6,0.2,0.6,1.5v44.4
	C1087.2,248,1086.6,248.7,1086.6,248.7L1086.6,248.7z"/>
</svg>
