<?xml version="1.0" encoding="utf-8"?>
<!-- Generator: Adobe Illustrator 21.1.0, SVG Export Plug-In . SVG Version: 6.00 Build 0)  -->
<svg version="1.1" id="Calque_1" xmlns="http://www.w3.org/2000/svg" xmlns:xlink="http://www.w3.org/1999/xlink" x="0px" y="0px"
	 viewBox="0 0 1232 456" style="enable-background:new 0 0 1232 456;" xml:space="preserve">
<style type="text/css">
	.st0{display:none;}
	.st1{display:inline;}
	.st2{fill:#FFFFFF;}
</style>
<g id="Calque_1_1_" class="st0">
	<g id="Page-1" class="st1">
		<g id="logo">
			<path id="Fill-2" class="st2" d="M262.1,255l-2.6,40H144.4v-1.4c3.3-0.2,11.8-1,14.5-2.2c4.7-1.8,6.1-5.3,6.1-9.6v-107
				c0-4.3-1.2-7.6-6.1-9.8c-3.5-1.6-11-2.3-14.5-2.6V161h66.8v1.4c-3.5,0.2-10.6,0.4-14.1,1.6c-4.9,1.6-6.1,5.5-6.1,9.8v101.3
				c0,15.7,3.5,17.4,22.1,17.4c12,0,22.7-0.4,27-4.7c6.1-6.3,17-25.3,20.4-32.9h1.6"/>
			<path id="Fill-3" class="st2" d="M264.2,295v-1.4c4.5-0.2,12-1.2,14.7-2.2c4.7-1.6,6.1-4.9,6.1-9.2V174.9c0-4.3-1.2-8-6.1-9.8
				c-3.5-1.4-10.4-2.3-14.7-2.6v-1.4h110.7v32.5h-2c-2.5-8.8-15.1-28.2-24.3-29.4c-4.7-0.6-12.3-1-18.4-1H311v61.1h16.4
				c11,0,14.5-3.5,16.9-6.1c3.5-3.3,7.4-14.7,8.2-19.8h1.9v55.1h-2c-0.6-5.9-5.5-17.8-8.2-20.8c-2.6-2.9-6.3-6.1-16.9-6.1H311v48.6
				c0,15.3,3.3,17.2,22.1,17.2c12.3,0,25.5,0.2,30.2-4.5c6.9-7.1,17.2-25.9,20.2-32.3h1.8l-2.5,39.2L264.2,295"/>
			<path id="Fill-4" class="st2" d="M552.7,196.3h-1.8c-2.4-8.6-14.3-30.8-22.7-31.9c-4.5-0.6-10.2-0.8-15.1-0.8h-8.6v117.8
				c0,4.3,1.6,7.8,6.1,9.8c2.3,1,12.3,2.4,15.9,2.5v1.4h-69.9v-1.4c3.5-0.2,13.3-1.2,15.9-2.2c4.7-1.8,6.1-5.5,6.1-9.8V163.5H470
				c-4.5,0-10.8,0.2-15.1,0.8c-8.4,1.2-20.6,23.3-22.9,31.9h-1.8v-35.1h122.5V196.3"/>
			<path id="Fill-5" class="st2" d="M556.7,295v-1.4c4.5-0.2,12-1.2,14.7-2.2c4.7-1.6,6.1-4.9,6.1-9.2V174.9c0-4.3-1.2-8-6.1-9.8
				c-3.5-1.4-10.4-2.3-14.7-2.6v-1.4h110.7v32.5h-2c-2.6-8.8-15.1-28.2-24.3-29.4c-4.7-0.6-12.3-1-18.4-1h-19.2v61.1H620
				c11,0,14.5-3.5,16.9-6.1c3.5-3.3,7.4-14.7,8.2-19.8h2v55.1h-2c-0.6-5.9-5.5-17.8-8.2-20.8c-2.5-2.9-6.3-6.1-16.9-6.1h-16.4v48.6
				c0,15.3,3.3,17.2,22.1,17.2c12.3,0,25.5,0.2,30.2-4.5c6.9-7.1,17.3-25.9,20.2-32.3h1.8l-2.5,39.2L556.7,295"/>
			<path id="Fill-6" class="st2" d="M856.5,295h-69v-1.4c3.3-0.2,13.5-1,16.3-2.3c4.5-2.3,6.3-5.5,6.3-10V172.2l-49.4,120.7h-3.5
				c-2-6.1-6.9-20.2-10-27.2l-39.6-90.5V264c0,15.1,2.2,22.1,6.5,25.9c3.3,2.7,16.3,3.7,19.8,3.9v1.4h-53.7v-1.4
				c3.3-0.4,13.3-0.4,18-3.7c4.5-3.3,6.3-11,6.3-25.9v-80.3c0-8-2-13.5-5.9-16.7c-4.7-3.7-12.1-4.3-17.4-4.5v-1.4h47.6l42.9,96.4
				l32.7-79.8c2.9-7.1,4.1-14.5,4.3-16.6h47.6v1.4c-3.5,0.2-10.8,1.2-14.3,2.4c-4.9,1.6-6.1,5.3-6.1,9.6v106.8
				c0,4.3,1.6,7.5,6.1,9.6c2.2,1.2,10.8,2.5,14.5,2.7L856.5,295"/>
			<path id="Fill-7" class="st2" d="M925.7,234.9h-12.3v46.8c0,4.3,1.4,8,6.1,9.8c2.3,1,10,2,14.9,2.2v1.4h-67.6v-1.4
				c3.5-0.2,11.9-1.2,14.5-2.2c4.7-1.8,6.1-5.3,6.1-9.6v-107c0-4.3-1.2-8-6.1-9.8c-4.3-1.6-11.4-2.3-14.9-2.6v-1.4h68
				c27.6,0,45.5,11.2,45.5,32.5C979.8,221.5,953.1,234.9,925.7,234.9L925.7,234.9L925.7,234.9z M923.5,163.7h-10.2v68.4h6.9
				c25.1,0,30.4-20.6,30.4-33.7C950.6,181.4,944.5,163.7,923.5,163.7z"/>
			<path id="Fill-8" class="st2" d="M1039.6,297.8c-19.8,0-32.9-6.3-39.4-10.6l-6.5,9.6h-2l-1.2-47.4h1.8
				c9.6,25.1,23.7,45.9,46.4,45.9c18.6,0,26.5-13.1,26.5-27.2c0-11.8-7.8-20.6-20.9-25.5c-10-3.9-17.8-6.5-26.6-10.2
				c-15.9-6.9-23.5-19.2-23.5-36.2c0-21,17.2-37.8,42.7-37.8c15.5,0,28.4,4.9,35.1,9.8l6.1-8.8h2l0.8,45.5h-1.8
				c-7.4-22.9-19.2-43.9-41.7-43.9c-12.3,0-22.7,9.4-22.7,23.3c0,11.8,6.5,19.4,20,25.5c8.8,4.1,18.4,6.7,26,10
				c16.1,7.2,26.5,16.1,26.5,36.8C1087,280.3,1067.2,297.8,1039.6,297.8"/>
		</g>
	</g>
</g>
<g id="Calque_2" class="st0">
	<g class="st1">
		<g>
			<g>
				<path class="st2" d="M589,184.8l-19.7,75c-3.6,12.9-6.3,18.1-18.3,17.2c-9.6,0-11.7-7.2-9.6-17.2l19.7-75h-55.3l-22.3,86.8
					c-8.3,29.3,17.7,39.3,36.1,39.3c15.1,0,34.4-3.6,44.7-15.8l-2.6,13.9h49.4c3.5-12.1,5.5-19.2,7.6-30.1l24.3-94.2L589,184.8
					L589,184.8z M709.6,180.2c-28.1,0-60.7,6.4-67,33.9c-12,49.4,67,35.6,67,55.7c0,9.2-7.1,13.7-18.1,13.7
					c-12.9,0-18.4-8.3-18.4-13.7c0.5-4.6,0-4.6,2-9.2h-47.7c-8.1,36.4,17.9,49.3,60.4,49.3c66.2,0,73-27.2,75.4-39.1
					c4.1-18.4-12.7-32.8-28.8-37.6c-31.9-8.1-40.3-11.7-38.4-20.9c1.3-5.5,6.4-8.3,14.6-8.3c7.4,0,9.5,0.9,11.8,2.8
					c3.7,3.7,4.7,9.1,2.9,15.5h41.9C771,189.3,737.7,180.2,709.6,180.2z M828.1,279c-8.4-2.8-4.6-10.1-3.7-13.8l12.3-49.4h21.9
					l7.7-31h-21.5l8.4-33h-52.5l-8.4,33h-15.9l-7.9,31h16.2l-13.3,53.1c-7.7,26.3,2.2,41,38,41c7.6,0,8.5,0,26-1.7l6.7-27.5
					C835.5,279.9,833.6,279.9,828.1,279z M1075.9,140H1022l-11.6,31.9h35.2L1075.9,140z M1080.4,254.3c11-42-2.6-74.1-60.7-74.1
					c-26,0-46.4,9-60.4,24.2l4.7-20.5c-24.2,0.9-26.5,1.8-42.2,15.5h-1.3l3.3-14.6h-51.2c-2.9,12.7-6.8,27.5-9.1,38.4l-21.9,85.9
					h54.3l11.4-46.5c4.5-21.4,12.5-37.5,38.9-38.4c-2.5,5.4-4.5,11.1-5.9,17.3c-7,28.4,4.9,68.4,62.7,68.4c13.1,0,30.5-0.8,46.1-7.2
					c15.5-6.4,24-19.2,28.8-35.5h-43.5c-3.2,8-11.4,14.5-27.5,12.7c-15.9-0.9-20-14.7-17.3-25.6H1080.4L1080.4,254.3z M1019.3,208.6
					c9.1,0,14.1,3.7,15.4,7.2c1.8,4.6,2.4,6.4,1.8,12.9h-42C996.8,216.9,1000.5,208.6,1019.3,208.6z M282,191.1l29.6-48.3h-42.5
					l-22.3,48.3H282z M304.8,184.8l-31.1,124.3h57.6l31.1-124.3H304.8z M364.7,174.7l8.2-32.8h-57.7l-7.7,32.8H364.7z M384.8,141.8
					l-42,167.2h54.4l41.4-167.2C438.5,141.8,384.8,141.8,384.8,141.8z M450.1,142.8l-42,166.3h54.8l41.6-166.3H450.1z M250.8,141.8
					h-67.1L143,309.1h120.7l9.7-41.9h-53.5L250.8,141.8z"/>
			</g>
		</g>
	</g>
</g>
<g id="Calque_3">
	<g id="Symbols">
		<g id="Header" transform="translate(-577.000000, -25.000000)">
			<g id="LOGO_PME_NEW_FINAL_LOGO-PME" transform="translate(577.000000, 25.000000)">
				<path id="Shape" class="st2" d="M370.2,318.8h-98.4v-3.5c3.8-0.3,8.2-0.6,11.7-2.5c4.4-2.2,7.9-4.4,10.4-10.7
					c3.2-7.9,3.8-19.6,3.8-35.3V137.1c0-15.8-0.6-27.4-4.4-35.3c-2.5-5.4-6-8.5-10.7-10.7c-2.8-0.9-6.3-1.9-11-2.2V85H383
					c52,0,85.8,17,85.8,58.7c0,25.6-12,42.6-28.4,53c-13.6,8.2-35.6,14.8-71.9,14.8c-5,0-21.8-0.9-25.6-1.6v56.5
					c0,15.8,0.9,27.4,4.4,34.7c2.2,5.7,6,8.8,11.4,11c3.2,1.6,7.9,2.2,11.7,2.5v4.2H370.2z M343,202.1c3.8,0.9,21.5,2.2,25.9,2.2
					c24.6,0,38.8-7.3,45.4-17.7c6.6-9.1,8.5-28.4,8.5-41c0-40.1-17.7-53.3-45.4-53.3L360.1,92c-7.3,0-11.4,0.9-14.2,3.8
					c-2.8,3.8-2.8,9.5-2.8,17.7v88.6H343z"/>
				<path id="Shape_1_" class="st2" d="M757.5,88.8c-3.8,0.3-8.5,0.9-12,2.5c-3.5,2.2-7.9,5-10.4,10.7c-3.2,7.6-3.8,20.5-3.8,40.1
					v119.6c0,17.7,0.6,31.9,3.8,40.1c2.5,5,6.3,8.5,12,10.7c2.5,0.9,6.3,1.9,10.4,2.2v3.8h-98.1v-3.8c3.8-0.3,8.2-0.9,11-2.2
					c5-1.9,9.5-5.4,11.7-10.7c3.2-8.2,4.4-22.4,4.4-40.1V118.2h-1.9L605.2,320h-12.9l-83.6-202.8h-1.9v152.7c0,17,2.2,25.6,5.4,31.5
					c3.8,6,7.9,9.5,13.2,11c3.5,1.6,6,1.9,10.4,2.2v3.8h-65.3v-3.8c3.5-0.3,6.3-0.6,9.5-1.9c5.4-1.6,9.5-5,13.2-11
					c3.2-6.3,5.7-14.8,5.7-31.9V140.6c0-18.6-0.9-29-4.7-37.2c-2.8-7.6-7.6-10.4-12-12c-3.5-1.6-7.6-1.9-11.4-2.2v-3.8h73.5
					l71.9,175.7h1.3l70.7-175.7h69.4v3.4H757.5z"/>
				<path id="Shape_2_" class="st2" d="M962.6,318.8h-189v-3.5c3.8-0.3,7.9-0.6,10.7-2.2c4.7-1.9,9.1-5.7,11.4-10.4
					c3.8-8.2,4.4-23,4.4-40.4V141.8c0-17.7-0.6-31.5-3.8-40.1c-2.5-5.4-6.3-8.5-11.4-11c-3.5-1.6-7.3-1.9-11-2.2V85h179.5l8.2,65
					h-3.8c-8.2-16.1-20.2-34.7-32.5-45.7c-6.6-6.3-16.4-12-31.9-12h-25.2c-5.7,0-11.4,0.3-14.5,3.8c-8.8,5.7-8.2,20.2-8.2,30.6v66.9
					h25.9c13.2,0,20.2-2.5,26.2-8.2c7.9-7.9,12-20.8,14.2-30.9h3.5v86.1h-3.8c-2.5-10.4-6-22.7-14.2-30.9
					c-5.7-5.7-13.2-8.5-26.2-8.5h-25.9v70c0,12.3-0.6,28.1,7.9,34.7c3.8,3.8,11.4,5.7,19.6,5.7h22.4c18.6,0,29.7-5.7,39.4-16.4
					c14.5-13.9,24.9-33.4,32.8-48.6h3.2L962.6,318.8z"/>
				<path id="Shape_3_" class="st2" d="M297.6,340.2h7.6l6,17c0.9,2.5,1.3,4.1,1.3,4.1l0,0c0,0,0.3-1.6,1.3-4.1l6-17h7.6v28.4h-5
					v-23l0,0c0,0-0.6,2.2-1.6,5.4l-6,17.3h-4.1l-6-17.3c-1.3-3.2-1.6-5.4-1.6-5.4l0,0v23h-4.7v-28.4H297.6z"/>
				<path id="Shape_4_" class="st2" d="M414.7,361.4H404l-2.5,6.9h-5l10.1-28.4h6l10.1,28.4h-5.4L414.7,361.4z M408,348.7l-2.8,8.8
					h8.2l-2.8-8.8c-0.6-2.2-0.9-3.8-0.9-3.8l0,0C409.3,345,408.7,346.5,408,348.7z"/>
				<path id="Shape_5_" class="st2" d="M495.7,354.4c0,7.6,2.8,10.7,7.6,10.7c4.4,0,6.9-2.5,7.3-7.3v-0.6h-7.3v-3.8h12v14.8h-4.1
					v-3.8l0,0c-1.3,2.5-4.1,4.4-8.5,4.4c-7.9,0-12.3-5.4-12.3-14.5s5.4-14.8,13.2-14.8c6.3,0,10.7,3.2,11.4,8.5h-5.4
					c-0.3-2.8-2.8-4.7-6-4.7C498.6,343.7,495.7,347.5,495.7,354.4z"/>
				<path id="Shape_6_" class="st2" d="M604.2,361.4h-10.7l-2.5,6.9h-5l10.1-28.4h6l10.1,28.4h-5.4L604.2,361.4z M597.9,348.7
					l-2.8,8.8h8.2l-2.8-8.8c-0.6-2.2-0.9-3.8-0.9-3.8l0,0C598.9,345,598.6,346.5,597.9,348.7z"/>
				<polygon id="Shape_7_" class="st2" points="679.6,340.2 700.1,340.2 700.1,344 685.3,364.5 700.4,364.5 700.4,368.6 679,368.6 
					679,364.8 693.8,344.3 679.6,344.3 				"/>
				<polygon id="Shape_8_" class="st2" points="762.9,340.2 768,340.2 768,368.6 762.9,368.6 				"/>
				<path id="Shape_9_" class="st2" d="M836.1,340.2h6l10.4,17.3c1.3,2.2,1.9,3.8,1.9,3.8l0,0v-21.1h4.7v28.4h-5.7L843,351
					c-1.3-2.2-1.9-3.8-1.9-3.8l0,0v21.5h-4.7v-28.4h-0.3V340.2z"/>
				<polygon id="Shape_10_" class="st2" points="927.6,340.2 946.2,340.2 946.2,344.3 932.9,344.3 932.9,352.5 945.2,352.5 
					945.2,356.6 932.9,356.6 932.9,364.8 946.5,364.8 946.5,368.9 927.6,368.9 				"/>
			</g>
		</g>
	</g>
</g>
</svg>
