<?xml version="1.0" encoding="utf-8"?>
<!-- Generator: Adobe Illustrator 22.0.0, SVG Export Plug-In . SVG Version: 6.00 Build 0)  -->
<svg version="1.1" id="Calque_1" xmlns="http://www.w3.org/2000/svg" xmlns:xlink="http://www.w3.org/1999/xlink" x="0px" y="0px"
	 viewBox="0 0 295.4 71.7" style="enable-background:new 0 0 295.4 71.7;" xml:space="preserve">
<style type="text/css">
	.st0{fill:#FCCC04;}
	.st1{fill:#FFFFFF;}
</style>
<g>
	<path class="st0" d="M29.8,6.2c-0.4,0.4-0.8,1.1-0.9,2c-0.2,0.9-0.2,2.3-0.2,4.1v24.4c-0.4,0-0.9-0.1-1.5-0.1c-0.5,0-1.1,0-1.7,0.1
		L5.1,14.6v13.2c0,2.3,0.1,3.9,0.3,4.9c0.2,1,0.6,1.7,1.2,2.2s1.7,0.8,3.2,1v0.9c-1.2-0.1-2.9-0.1-5.2-0.1c-1.6,0-2.9,0-3.8,0.1
		v-0.9c1-0.2,1.7-0.5,2.1-1c0.5-0.4,0.8-1.1,0.9-2.1C3.9,31.9,4,30.6,4,28.7V9.2c0-1.1-0.1-2-0.2-2.5C3.6,6.2,3.3,5.8,2.9,5.6
		S1.7,5.3,0.7,5.2V4.3c0.9,0.1,2.2,0.1,3.8,0.1c1.7,0,3.1,0,4.2-0.1l18.8,19.8V13.3c0-2.3-0.1-3.9-0.3-4.9c-0.2-1-0.6-1.7-1.2-2.2
		s-1.7-0.8-3.1-1V4.3c1.2,0.1,3,0.1,5.1,0.1c1.6,0,2.9,0,3.8-0.1v0.9C30.9,5.5,30.2,5.8,29.8,6.2z"/>
	<path class="st0" d="M44.6,14.4c-0.5-0.8-1.4-1.2-2.7-1.2c-0.4,0-0.8,0.1-1.2,0.2c-0.4,0.1-0.8,0.3-1.2,0.6c2,0.8,3.1,2.1,3.1,4.1
		c0,0.7-0.2,1.4-0.5,1.9c-0.4,0.6-0.9,1-1.6,1.4C39.8,21.9,39,22,38.1,22c-0.7,0-1.4-0.2-2-0.5c-0.6-0.4-1-0.8-1.3-1.4
		s-0.5-1.3-0.5-2c0-0.9,0.3-1.7,0.8-2.5c0.5-0.7,1.2-1.3,2.1-1.8c1.9-1,4.4-1.5,7.3-1.5c1.7,0,3.2,0.2,4.4,0.5s2.2,0.9,3,1.8
		c0.6,0.6,1,1.4,1.2,2.4s0.3,2.3,0.3,4v12.3c0,0.7,0.1,1.2,0.2,1.5c0.1,0.3,0.3,0.4,0.5,0.4s0.5-0.1,0.7-0.2
		c0.2-0.1,0.5-0.3,0.8-0.5l0.4,0.8c-0.7,0.6-1.6,1-2.5,1.3c-1,0.3-2.1,0.4-3.5,0.4c-1.6,0-2.8-0.3-3.6-1s-1.1-1.5-1.2-2.5
		c-0.6,1.1-1.5,1.9-2.7,2.5s-2.5,0.9-3.9,0.9c-1.8,0-3.2-0.5-4.2-1.4c-1-1-1.5-2.2-1.5-3.8c0-1.6,0.5-2.9,1.4-3.9s2.4-1.9,4.4-2.6
		c1.6-0.6,2.8-1,3.6-1.4c0.8-0.3,1.4-0.7,2-1.2c0.5-0.5,0.8-1,0.8-1.7V17C45.3,16.1,45.1,15.2,44.6,14.4z M43.5,25
		c-1.5,1.4-2.2,3.2-2.2,5.2c0,2.2,0.8,3.2,2.3,3.2c0.6,0,1.2-0.3,1.7-0.8V23C45.1,23.4,44.5,24.1,43.5,25z"/>
	<path class="st0" d="M72.5,13v1H68v19c0,0.6,0.1,1,0.3,1.3c0.2,0.3,0.6,0.4,1.1,0.4c0.4,0,0.8-0.1,1.2-0.3c0.4-0.2,0.9-0.6,1.2-1
		l0.7,0.6c-1.4,2.4-3.6,3.6-6.5,3.6c-2.1,0-3.7-0.5-4.7-1.6c-0.6-0.6-1-1.4-1.3-2.4c-0.2-1-0.3-2.3-0.3-4V14h-3.5v-1h3.5V7.6
		c1.7,0,3.2-0.2,4.5-0.5s2.6-0.8,3.8-1.5V13H72.5z"/>
	<path class="st0" d="M84.6,34.6c0.2,0.5,0.4,0.8,0.8,1s0.9,0.3,1.5,0.3v1c-3.3-0.1-5.5-0.2-6.5-0.2s-3.4,0.1-6.9,0.2v-1
		c0.6,0,1.2-0.1,1.5-0.3c0.4-0.2,0.6-0.5,0.8-1c0.2-0.5,0.2-1.1,0.2-2V18c0-1.4-0.2-2.4-0.6-3.1c-0.4-0.6-1.1-1-2-1v-1
		c1,0.1,1.9,0.1,2.8,0.1c3.2,0,5.8-0.2,8-0.6v20.1C84.3,33.4,84.4,34.1,84.6,34.6z M83.6,1.9c0.9,0.7,1.3,1.7,1.3,3
		s-0.4,2.3-1.3,2.9c-0.9,0.7-2.1,1-3.7,1s-2.9-0.3-3.7-1s-1.3-1.6-1.3-2.9s0.4-2.3,1.3-3s2.1-1,3.7-1C81.5,0.9,82.7,1.3,83.6,1.9z"
		/>
	<path class="st0" d="M107.8,13.2c1.7,0,2.9-0.1,3.5-0.2v1c-0.6,0.2-1.2,0.7-1.7,1.4c-0.5,0.7-1,1.7-1.5,3.1l-6.2,18.4
		c-0.8-0.1-1.5-0.1-2.2-0.1s-1.4,0-2.2,0.1l-8-20.3c-0.7-1.7-1.6-2.6-2.7-2.6v-1c2.4,0.2,5.2,0.3,8.2,0.3c1.5,0,3.5-0.1,6-0.3v1
		c-0.7,0-1.3,0-1.6,0.1c-0.4,0.1-0.6,0.2-0.8,0.4c-0.2,0.2-0.2,0.7-0.1,1.2l5,13.9l2.1-6.3c0.6-1.7,0.9-3.3,0.9-4.7
		c0-1.4-0.3-2.5-0.9-3.3s-1.4-1.2-2.4-1.3v-1C104.1,13.1,105.7,13.2,107.8,13.2z"/>
	<path class="st0" d="M120.4,24.3c0,2.9,0.5,5,1.5,6.3c1,1.2,2.3,1.9,3.8,1.9c2.2,0,4.1-1,5.6-3.1l0.8,0.3c-0.4,1.4-1.1,2.6-1.9,3.8
		c-0.8,1.2-1.9,2.1-3.2,2.9c-1.3,0.7-2.8,1.1-4.5,1.1c-3.2,0-5.8-1-7.7-3c-1.9-2-2.9-5.2-2.9-9.5c0-2.8,0.5-5.2,1.5-7.1
		s2.4-3.3,4.2-4.2c1.8-0.9,3.8-1.3,6.1-1.3c5.8,0,8.7,3.4,8.7,10.3h-11.9C120.4,23,120.4,23.5,120.4,24.3z M125.1,15.8
		c-0.4-1.6-1-2.3-1.8-2.3s-1.5,0.7-2,2s-0.8,3.4-1,6.4h5.3C125.6,19.3,125.4,17.3,125.1,15.8z"/>
	<path class="st0" d="M149.5,32.7c1.3,2.3,3.3,3.4,6.1,3.4c1.7,0,3-0.4,4-1.2s1.5-1.9,1.5-3.3c0-1.2-0.3-2.3-0.8-3.3
		s-1.3-1.8-2.2-2.6c-0.9-0.8-2.2-1.7-3.7-2.7c-1.9-1.2-3.3-2.3-4.4-3.2c-1.1-0.9-2-2-2.7-3.2s-1.1-2.6-1.1-4.2
		c0-1.9,0.5-3.5,1.6-4.8c1-1.3,2.4-2.3,4.1-2.9c1.7-0.6,3.6-0.9,5.7-0.9c1.8,0,3.2,0.2,4.3,0.5s2.1,0.8,3.2,1.3
		c0.4,0.2,0.8,0.4,1,0.5s0.4,0.1,0.6,0.1c0.3,0,0.5-0.2,0.6-0.5s0.3-0.8,0.4-1.5h1.1c-0.1,2.2-0.2,5.9-0.2,11.2h-1.1
		c-0.1-1.7-0.5-3.4-1.2-5s-1.6-2.9-2.8-3.9S161,5,159.5,5c-1.4,0-2.5,0.4-3.4,1.1s-1.3,1.8-1.3,3.1c0,1.1,0.3,2.1,0.8,2.8
		c0.5,0.8,1.2,1.5,2.1,2.2c0.9,0.7,2.6,1.9,5.2,3.7c1.7,1.2,3,2.2,4,3.1s1.8,1.9,2.5,3.1c0.6,1.2,1,2.6,1,4.1c0,2-0.6,3.7-1.7,5
		c-1.1,1.4-2.6,2.4-4.5,3.1c-1.9,0.7-4,1-6.3,1c-1.9,0-3.4-0.2-4.7-0.5s-2.4-0.7-3.5-1.2c-0.7-0.4-1.2-0.6-1.5-0.6s-0.5,0.2-0.7,0.5
		c-0.1,0.3-0.3,0.8-0.4,1.5H146c0.1-2.3,0.2-6.8,0.2-13.3h1.1C147.4,27.4,148.2,30.4,149.5,32.7z"/>
	<path class="st0" d="M187.9,13v1h-4.5v19c0,0.6,0.1,1,0.3,1.3s0.6,0.4,1.1,0.4c0.4,0,0.8-0.1,1.2-0.3s0.9-0.6,1.2-1l0.7,0.6
		c-1.4,2.4-3.6,3.6-6.5,3.6c-2.1,0-3.7-0.5-4.7-1.6c-0.6-0.6-1-1.4-1.3-2.4c-0.2-1-0.3-2.3-0.3-4V14h-3.5v-1h3.5V7.6
		c1.7,0,3.2-0.2,4.5-0.5s2.6-0.8,3.8-1.5V13H187.9z"/>
	<path class="st0" d="M209.6,15.3c2,2,3.1,5.2,3.1,9.6s-1,7.6-3.1,9.6s-5,2.9-8.7,2.9c-3.8,0-6.7-1-8.7-2.9s-3.1-5.2-3.1-9.6
		s1-7.6,3.1-9.6s5-3,8.7-3S207.5,13.3,209.6,15.3z M198.5,16.2c-0.6,1.9-0.9,4.9-0.9,8.8s0.3,6.8,0.9,8.7c0.6,1.9,1.4,2.9,2.3,2.9
		s1.7-1,2.3-2.9c0.6-1.9,0.9-4.8,0.9-8.7s-0.3-6.9-0.9-8.8c-0.6-1.9-1.4-2.9-2.3-2.9S199.1,14.2,198.5,16.2z"/>
	<path class="st0" d="M231.8,12.3c1.5,0,2.6,0.5,3.2,1.4c0.7,0.9,1,2,1,3.3c0,1.4-0.4,2.5-1.2,3.3s-1.8,1.2-3.1,1.2s-2.3-0.3-3-0.9
		s-1.1-1.4-1.1-2.4c0-1.8,0.8-3.2,2.4-4.3c-0.6,0-1,0.1-1.5,0.3c-0.8,0.3-1.4,0.9-1.9,1.6c-0.5,0.8-0.8,1.6-0.8,2.5v13.8
		c0,1,0.1,1.7,0.4,2.3c0.3,0.5,0.7,0.9,1.3,1.2c0.6,0.2,1.3,0.3,2.3,0.3v1c-3.8-0.1-6.2-0.2-7.4-0.2c-1.1,0-3.6,0.1-7.3,0.2v-1
		c0.6,0,1.1-0.1,1.5-0.3s0.6-0.5,0.8-1s0.2-1.1,0.2-2V18c0-1.4-0.2-2.4-0.6-3.1c-0.4-0.6-1.1-1-2-1v-1c1,0.1,1.9,0.1,2.8,0.1
		c3.2,0,5.8-0.2,8-0.6v3.3C227,13.5,229,12.3,231.8,12.3z"/>
	<path class="st0" d="M248.2,34.6c0.2,0.5,0.4,0.8,0.8,1c0.4,0.2,0.9,0.3,1.5,0.3v1c-3.3-0.1-5.5-0.2-6.5-0.2
		c-1.1,0-3.4,0.1-6.9,0.2v-1c0.6,0,1.1-0.1,1.5-0.3s0.6-0.5,0.8-1s0.2-1.1,0.2-2V18c0-1.4-0.2-2.4-0.6-3.1c-0.4-0.6-1.1-1-2-1v-1
		c1,0.1,1.9,0.1,2.8,0.1c3.2,0,5.8-0.2,8-0.6v20.1C247.9,33.4,248,34.1,248.2,34.6z M247.2,1.9c0.9,0.7,1.3,1.7,1.3,3
		s-0.4,2.3-1.3,2.9c-0.9,0.7-2.1,1-3.7,1c-1.6,0-2.9-0.3-3.7-1c-0.9-0.7-1.3-1.6-1.3-2.9s0.4-2.3,1.3-3c0.9-0.7,2.1-1,3.7-1
		C245.1,0.9,246.4,1.3,247.2,1.9z"/>
	<path class="st0" d="M261.3,24.3c0,2.9,0.5,5,1.5,6.3c1,1.2,2.3,1.9,3.8,1.9c2.2,0,4.1-1,5.6-3.1l0.8,0.3c-0.4,1.4-1.1,2.6-1.9,3.8
		s-1.9,2.1-3.2,2.9c-1.3,0.7-2.8,1.1-4.5,1.1c-3.2,0-5.8-1-7.7-3c-1.9-2-2.9-5.2-2.9-9.5c0-2.8,0.5-5.2,1.5-7.1s2.4-3.3,4.2-4.2
		s3.8-1.3,6.1-1.3c5.8,0,8.7,3.4,8.7,10.3h-11.9C261.3,23,261.3,23.5,261.3,24.3z M266,15.8c-0.4-1.6-1-2.3-1.8-2.3s-1.5,0.7-2,2
		s-0.8,3.4-1,6.4h5.3C266.5,19.3,266.3,17.3,266,15.8z"/>
	<path class="st0" d="M278.3,32.3c0.5,1.3,1.2,2.2,2.1,2.9c0.8,0.7,1.8,1.1,2.9,1.1c0.8,0,1.4-0.2,1.9-0.6c0.5-0.4,0.8-1,0.8-1.9
		s-0.2-1.6-0.5-2.3c-0.4-0.7-0.8-1.3-1.3-1.8s-1.3-1.3-2.4-2.3c-1.3-1.2-2.3-2.1-2.9-2.8c-0.7-0.7-1.2-1.5-1.7-2.5
		c-0.5-0.9-0.7-2-0.7-3.1c0-1.3,0.4-2.5,1.2-3.5c0.8-1,1.8-1.8,3.2-2.3c1.3-0.5,2.7-0.8,4.3-0.8c1.2,0,2.3,0.1,3.4,0.4
		c1,0.3,1.8,0.5,2.4,0.9c0.3,0.2,0.6,0.3,0.8,0.3c0.6,0,1-0.5,1.1-1.5h0.9c-0.1,1.6-0.2,4.4-0.2,8.3h-0.9c-0.2-2-0.8-3.7-1.7-5.1
		c-0.9-1.4-2.2-2.1-3.9-2.1c-0.8,0-1.4,0.2-1.9,0.7s-0.8,1.1-0.8,1.9c0,1,0.3,1.9,1,2.7c0.7,0.8,1.5,1.5,2.4,2.3
		c0.9,0.7,1.6,1.3,2,1.6c1.1,0.9,2,1.8,2.7,2.4s1.2,1.5,1.6,2.3c0.4,0.9,0.6,1.9,0.6,3c0,1.4-0.4,2.6-1.2,3.7
		c-0.8,1.1-1.9,1.9-3.4,2.5s-3,0.9-4.6,0.9c-1.9,0-3.5-0.4-4.7-1.2c-1-0.5-1.8-0.8-2.3-0.8c-0.6,0-1,0.5-1.3,1.6h-0.9
		c0.1-1.7,0.2-4.8,0.2-9.2h0.9C277.5,29.6,277.8,31.1,278.3,32.3z"/>
</g>
<g>
	<path class="st1" d="M28.9,50.2h2.7v14.7h-2.7V50.2z"/>
	<path class="st1" d="M34.7,54.3h2.6V56c0.8-1.1,1.9-1.9,3.3-1.9c1.9,0,3.3,1.1,3.3,3.2v7.6h-2.6v-6.8c0-1.3-0.6-1.7-1.5-1.7
		c-1.3,0-2.4,1.5-2.4,4.3v4.2h-2.6V54.3z"/>
	<path class="st1" d="M46.7,54.3h2.6V56c0.8-1.1,1.9-1.9,3.3-1.9c1.9,0,3.3,1.1,3.3,3.2v7.6h-2.6v-6.8c0-1.3-0.6-1.7-1.5-1.7
		c-1.3,0-2.4,1.5-2.4,4.3v4.2h-2.6V54.3z"/>
	<path class="st1" d="M58.1,59.6c0-3.1,2-5.5,5.4-5.5s5.4,2.4,5.4,5.5s-2,5.5-5.4,5.5S58.1,62.7,58.1,59.6z M66.2,59.6
		c0-1.7-1-3.2-2.6-3.2s-2.6,1.5-2.6,3.2c0,1.7,1,3.2,2.6,3.2S66.2,61.4,66.2,59.6z"/>
	<path class="st1" d="M69.8,54.3h2.6l2.1,7.4l2.1-7.4h2.6l-3.6,10.6h-2.4L69.8,54.3z"/>
	<path class="st1" d="M80.2,61.9c0-2.1,1.7-3.5,4.4-3.5h1.8v-0.5c0-1.1-0.9-1.6-1.8-1.6c-0.8,0-1.5,0.3-1.8,1.2l-2.2-0.5
		c0.3-1.7,1.9-2.9,4-2.9c2.8,0,4.5,1.5,4.5,4.4v6.3h-2.1l-0.3-1.3c-0.7,0.9-1.7,1.5-3.3,1.5C81.6,65.1,80.2,64,80.2,61.9z
		 M86.5,60.7v-0.2h-1.7c-1.1,0-1.8,0.4-1.8,1.4c0,0.6,0.5,1,1.2,1C85.3,62.9,86.5,62,86.5,60.7z"/>
	<path class="st1" d="M92.1,61.2v-4.6h-1.6v-2.2h1.6v-2.6l2.6-1.6v4.3h2.8v2.2h-2.8v4.6c0,1.3,0.5,1.7,1.4,1.7c0.4,0,0.7-0.1,1-0.3
		l0.6,2.1c-0.6,0.3-1.2,0.4-1.7,0.4C93.6,65.1,92.1,63.8,92.1,61.2z"/>
	<path class="st1" d="M98.5,59.6c0-2.5,1.4-5.5,5.1-5.5c3.5,0,4.9,2.9,4.9,5.2v1.1h-7.3c0.1,1.2,0.9,2.4,2.5,2.4
		c1.2,0,1.9-0.5,2.6-1.6l2.1,0.8c-0.8,1.9-2.2,3.1-4.8,3.1C99.9,65.1,98.5,62.1,98.5,59.6z M105.8,58.4c-0.2-1-0.9-2-2.3-2
		c-1.3,0-2.1,1-2.3,2H105.8z"/>
	<path class="st1" d="M110.5,63.3c0-1,0.8-1.8,1.8-1.8s1.8,0.8,1.8,1.8s-0.8,1.8-1.8,1.8S110.5,64.3,110.5,63.3z"/>
	<path class="st1" d="M115.5,57.6c0-4.9,3.3-7.5,6.9-7.5c3.2,0,5.4,1.6,6.1,4.5l-2.5,0.6c-0.6-1.5-1.6-2.6-3.6-2.6
		c-2.3,0-4.2,1.6-4.2,5s1.9,5,4.2,5c2,0,3.1-1.1,3.6-2.6l2.5,0.6c-0.7,2.8-2.9,4.5-6.1,4.5C118.8,65.1,115.5,62.5,115.5,57.6z"/>
	<path class="st1" d="M130.3,59.6c0-3.1,2-5.5,5.4-5.5s5.4,2.4,5.4,5.5s-2,5.5-5.4,5.5S130.3,62.7,130.3,59.6z M138.3,59.6
		c0-1.7-1-3.2-2.6-3.2s-2.6,1.5-2.6,3.2c0,1.7,1,3.2,2.6,3.2S138.3,61.4,138.3,59.6z"/>
	<path class="st1" d="M143.4,54.3h2.6V56c0.8-1.1,1.9-1.9,3.3-1.9c1.9,0,3.3,1.1,3.3,3.2v7.6h-2.6v-6.8c0-1.3-0.6-1.7-1.5-1.7
		c-1.3,0-2.4,1.5-2.4,4.3v4.2h-2.6V54.3z"/>
	<path class="st1" d="M155.4,54.3h2.6V56c0.8-1.1,1.9-1.9,3.3-1.9c1.9,0,3.3,1.1,3.3,3.2v7.6h-2.6v-6.8c0-1.3-0.6-1.7-1.5-1.7
		c-1.3,0-2.4,1.5-2.4,4.3v4.2h-2.6V54.3z"/>
	<path class="st1" d="M166.9,59.6c0-2.5,1.4-5.5,5.1-5.5c3.5,0,4.9,2.9,4.9,5.2v1.1h-7.3c0.1,1.2,0.9,2.4,2.5,2.4
		c1.2,0,1.9-0.5,2.6-1.6l2.1,0.8c-0.8,1.9-2.2,3.1-4.8,3.1C168.3,65.1,166.9,62.1,166.9,59.6z M174.2,58.4c-0.2-1-0.9-2-2.3-2
		c-1.3,0-2.1,1-2.3,2H174.2z"/>
	<path class="st1" d="M178.7,59.6c0-3,1.7-5.5,5.2-5.5c2.4,0,4,1,4.8,3l-2.3,0.9c-0.5-1.1-1.3-1.7-2.5-1.7c-1.6,0-2.4,1.4-2.4,3.2
		c0,1.9,0.8,3.2,2.4,3.2c1.2,0,1.9-0.6,2.5-1.7l2.3,0.9c-0.8,2-2.5,3-4.8,3C180.4,65.1,178.7,62.6,178.7,59.6z"/>
	<path class="st1" d="M191.2,61.2v-4.6h-1.6v-2.2h1.6v-2.6l2.6-1.6v4.3h2.8v2.2h-2.8v4.6c0,1.3,0.5,1.7,1.4,1.7c0.4,0,0.7-0.1,1-0.3
		l0.6,2.1c-0.6,0.3-1.2,0.4-1.7,0.4C192.7,65.1,191.2,63.8,191.2,61.2z"/>
	<path class="st1" d="M198.3,63.3c0-1,0.8-1.8,1.8-1.8s1.8,0.8,1.8,1.8s-0.8,1.8-1.8,1.8S198.3,64.3,198.3,63.3z"/>
	<path class="st1" d="M204.6,50.2h9.1v2.5h-6.4v3.1h5.1v2.5h-5.1v4.1h6.6v2.5h-9.3V50.2z"/>
	<path class="st1" d="M216.3,54.3h2.6V56c0.8-1.1,1.9-1.9,3.3-1.9c1.9,0,3.3,1.1,3.3,3.2v7.6h-2.6v-6.8c0-1.3-0.6-1.7-1.5-1.7
		c-1.3,0-2.4,1.5-2.4,4.3v4.2h-2.6V54.3z"/>
	<path class="st1" d="M227.2,65.9c0-0.9,0.3-1.6,0.9-2.1c-0.3-0.4-0.5-1-0.5-1.6c0-1,0.5-1.8,1.3-2.2c-0.5-0.6-0.7-1.3-0.7-2.2
		c0-2.2,1.7-3.6,3.9-3.6c0.7,0,1.4,0.2,2,0.5l2-1l1,1.7l-1.5,0.8c0.3,0.5,0.4,1,0.4,1.7c0,2.2-1.7,3.5-3.9,3.5
		c-0.5,0-1.1-0.1-1.5-0.2c-0.3,0.2-0.5,0.5-0.5,0.8c0,0.5,0.4,0.8,1,0.8h2.2c2.2,0,3.7,1.1,3.7,3.1c0,2.6-2.5,3.7-4.8,3.7
		C229.3,69.4,227.2,68.2,227.2,65.9z M234.2,65.9c0-0.9-0.7-1.1-1.7-1.1h-1.4c-0.4,0-0.8,0-1.2-0.1c-0.2,0.3-0.2,0.6-0.2,1
		c0,1,1,1.5,2.4,1.5C233.3,67.2,234.2,66.8,234.2,65.9z M233.5,57.7c0-0.9-0.6-1.5-1.4-1.5s-1.4,0.6-1.4,1.5c0,0.9,0.6,1.4,1.4,1.4
		S233.5,58.6,233.5,57.7z"/>
	<path class="st1" d="M238.1,61.9c0-2.1,1.7-3.5,4.4-3.5h1.8v-0.5c0-1.1-0.9-1.6-1.8-1.6c-0.8,0-1.5,0.3-1.8,1.2l-2.2-0.5
		c0.3-1.7,1.9-2.9,4-2.9c2.8,0,4.5,1.5,4.5,4.4v6.3h-2.1l-0.3-1.3c-0.7,0.9-1.7,1.5-3.3,1.5C239.5,65.1,238.1,64,238.1,61.9z
		 M244.4,60.7v-0.2h-1.7c-1.1,0-1.8,0.4-1.8,1.4c0,0.6,0.5,1,1.2,1C243.2,62.9,244.4,62,244.4,60.7z"/>
	<path class="st1" d="M248.8,65.9c0-0.9,0.3-1.6,0.9-2.1c-0.3-0.4-0.5-1-0.5-1.6c0-1,0.5-1.8,1.3-2.2c-0.5-0.6-0.7-1.3-0.7-2.2
		c0-2.2,1.7-3.6,3.9-3.6c0.7,0,1.4,0.2,2,0.5l2-1l1,1.7l-1.5,0.8c0.3,0.5,0.4,1,0.4,1.7c0,2.2-1.7,3.5-3.9,3.5
		c-0.5,0-1.1-0.1-1.5-0.2c-0.3,0.2-0.5,0.5-0.5,0.8c0,0.5,0.4,0.8,1,0.8h2.2c2.2,0,3.7,1.1,3.7,3.1c0,2.6-2.5,3.7-4.8,3.7
		C250.9,69.4,248.8,68.2,248.8,65.9z M255.8,65.9c0-0.9-0.7-1.1-1.7-1.1h-1.4c-0.4,0-0.8,0-1.2-0.1c-0.2,0.3-0.2,0.6-0.2,1
		c0,1,1,1.5,2.4,1.5C254.9,67.2,255.8,66.8,255.8,65.9z M255.1,57.7c0-0.9-0.6-1.5-1.4-1.5s-1.4,0.6-1.4,1.5c0,0.9,0.6,1.4,1.4,1.4
		S255.1,58.6,255.1,57.7z"/>
	<path class="st1" d="M259.6,59.6c0-2.5,1.4-5.5,5.1-5.5c3.5,0,4.9,2.9,4.9,5.2v1.1h-7.3c0.1,1.2,0.9,2.4,2.5,2.4
		c1.2,0,1.9-0.5,2.6-1.6l2.1,0.8c-0.8,1.9-2.2,3.1-4.8,3.1C261,65.1,259.6,62.1,259.6,59.6z M266.9,58.4c-0.2-1-0.9-2-2.3-2
		c-1.3,0-2.1,1-2.3,2H266.9z"/>
</g>
</svg>
