<?xml version="1.0" encoding="utf-8"?>
<!-- Generator: Adobe Illustrator 16.0.4, SVG Export Plug-In . SVG Version: 6.00 Build 0)  -->
<!DOCTYPE svg PUBLIC "-//W3C//DTD SVG 1.1//EN" "http://www.w3.org/Graphics/SVG/1.1/DTD/svg11.dtd">
<svg version="1.1" id="Calque_1" xmlns="http://www.w3.org/2000/svg" xmlns:xlink="http://www.w3.org/1999/xlink" x="0px" y="0px"
	 width="40.881px" height="40.881px" viewBox="34.103 -135.272 40.881 40.881"
	 enable-background="new 34.103 -135.272 40.881 40.881" xml:space="preserve">
<g>
	<path d="M34.103-135.272v40.881h40.881v-40.881H34.103z M56.093-109.071c-1.589-0.058-2.623-0.086-3.1-0.086
		c-0.513,0-1.564,0.029-3.154,0.086v-0.466c0.26,0,0.462-0.047,0.607-0.141s0.25-0.255,0.314-0.482s0.098-0.551,0.098-0.97v-7.219
		c0-0.477-0.087-0.829-0.26-1.057c-0.173-0.228-0.448-0.342-0.824-0.342c-0.274,0-0.535,0.069-0.78,0.206s-0.445,0.327-0.596,0.569
		c-0.152,0.242-0.228,0.515-0.228,0.818v7.024c0,0.412,0.032,0.733,0.097,0.964c0.065,0.231,0.172,0.394,0.32,0.488
		c0.148,0.094,0.353,0.141,0.612,0.141v0.466c-1.503-0.058-2.482-0.086-2.937-0.086c-0.513,0-1.623,0.029-3.328,0.086v-0.466
		c0.311,0,0.557-0.047,0.737-0.141c0.181-0.094,0.311-0.256,0.391-0.488c0.079-0.231,0.119-0.553,0.119-0.964v-7.045
		c0-0.687-0.094-1.183-0.282-1.49c-0.188-0.307-0.51-0.461-0.965-0.461v-0.466c0.47,0.043,0.929,0.065,1.376,0.065
		c1.539,0,2.825-0.101,3.859-0.304v1.594c0.672-1.113,1.85-1.669,3.533-1.669c1.178,0,2.013,0.296,2.504,0.889
		c0.224,0.268,0.388,0.627,0.493,1.079c0.104,0.452,0.157,1.05,0.157,1.794v6.016c0,0.412,0.04,0.733,0.119,0.964
		c0.08,0.231,0.208,0.394,0.385,0.488c0.177,0.094,0.421,0.141,0.731,0.141V-109.071z M65.55-110.409
		c-0.401,0.524-0.943,0.93-1.626,1.219c-0.683,0.289-1.433,0.434-2.249,0.434c-0.925,0-1.687-0.188-2.287-0.563
		c-0.477-0.246-0.849-0.369-1.116-0.369c-0.282,0-0.488,0.256-0.618,0.77H57.21c0.058-0.845,0.086-2.323,0.086-4.433h0.444
		c0.094,0.795,0.27,1.496,0.526,2.103c0.256,0.606,0.589,1.08,0.997,1.419c0.408,0.34,0.876,0.51,1.404,0.51
		c0.375,0,0.685-0.103,0.927-0.309s0.363-0.508,0.363-0.905c0-0.412-0.084-0.782-0.254-1.111c-0.17-0.329-0.378-0.621-0.624-0.878
		c-0.246-0.256-0.639-0.63-1.181-1.122c-0.629-0.578-1.104-1.037-1.425-1.376c-0.322-0.34-0.598-0.735-0.829-1.187
		c-0.231-0.452-0.347-0.952-0.347-1.501c0-0.636,0.191-1.196,0.575-1.68c0.383-0.484,0.892-0.858,1.528-1.122
		c0.636-0.264,1.326-0.396,2.07-0.396c0.585,0,1.129,0.063,1.631,0.19c0.502,0.126,0.891,0.265,1.166,0.417
		c0.151,0.087,0.285,0.13,0.401,0.13c0.296,0,0.48-0.239,0.553-0.715h0.444c-0.058,0.773-0.086,2.106-0.086,3.999h-0.445
		c-0.115-0.968-0.392-1.79-0.829-2.466c-0.437-0.675-1.071-1.013-1.902-1.013c-0.376,0-0.688,0.112-0.938,0.336
		c-0.249,0.224-0.374,0.524-0.374,0.9c0,0.499,0.166,0.938,0.499,1.317c0.332,0.379,0.724,0.744,1.176,1.095
		c0.452,0.35,0.782,0.612,0.992,0.786c0.549,0.455,0.986,0.849,1.312,1.182c0.325,0.332,0.587,0.71,0.786,1.132
		c0.198,0.423,0.298,0.901,0.298,1.436C66.152-111.524,65.951-110.933,65.55-110.409z"/>
</g>
</svg>
