<?xml version="1.0" encoding="utf-8"?>
<!-- Generator: Adobe Illustrator 16.0.4, SVG Export Plug-In . SVG Version: 6.00 Build 0)  -->
<!DOCTYPE svg PUBLIC "-//W3C//DTD SVG 1.1//EN" "http://www.w3.org/Graphics/SVG/1.1/DTD/svg11.dtd">
<svg version="1.1" id="Calque_1" xmlns="http://www.w3.org/2000/svg" xmlns:xlink="http://www.w3.org/1999/xlink" x="0px" y="0px"
	 width="500px" height="500px" viewBox="0 0 500 500" enable-background="new 0 0 500 500" xml:space="preserve">
<g>
	<path fill="#E30613" d="M310.51,170.365c0.013,0.058,0.024,0.116,0.037,0.174c0.883,3.994,2.458,7.455,4.864,10.153
		c-0.739-0.901-1.414-1.885-2.008-2.965C312.063,175.288,311.109,172.831,310.51,170.365z"/>
	<path fill="#E30613" d="M352.135,163.911c0.083,4.533-0.666,8.704-2.651,12.527C351.558,172.62,352.252,168.353,352.135,163.911z"
		/>
	<path fill="#E30613" d="M313.219,151.159c0.502-0.955,1.062-1.837,1.667-2.66c-2.364,2.786-3.713,6.072-4.39,9.814
		C311.068,155.921,311.969,153.534,313.219,151.159z"/>
	<path fill="#E30613" d="M350.575,154.496c-0.981-2.848-2.468-5.379-4.594-7.443c1.265,1.358,2.375,2.917,3.327,4.667
		C349.802,152.628,350.219,153.557,350.575,154.496z"/>
	<path d="M249.988-0.086C111.91-0.086-0.024,111.848-0.024,249.926c0,138.078,111.934,250.012,250.012,250.012
		C388.065,499.938,500,388.004,500,249.926C500,111.848,388.065-0.086,249.988-0.086z M400.825,381.463
		c-24.414-2.47-48.83-1.145-73.244,2.611c-19.678,3.279-38.263,4.373-56.848,3.279c-30.609-2.187-62.312-4.373-92.922-2.187
		c-27.33,1.094-59.033-8.745-61.22-38.263c-4.373-49.193-9.839-98.388-10.932-147.583c-0.986-28.616-6.416-70.583,15.847-91.35
		h279.319V381.463z"/>
	<path d="M105.659,199.322c1.093,49.195,6.559,98.389,10.932,147.583c2.187,29.518,33.89,39.356,61.22,38.263
		c30.61-2.187,62.313,0,92.922,2.187c18.585,1.094,37.17,0,56.848-3.279c24.414-3.756,48.83-5.081,73.244-2.611V107.972H121.506
		C99.243,128.738,104.673,170.706,105.659,199.322z M298.649,330.145c-0.146,1.505-0.598,1.925-2.099,1.91
		c-7.82-0.077-15.64-0.036-23.46-0.036c-7.637,0.002-15.274,0.075-22.91-0.047c-2.042-0.034-2.684,0.442-2.489,2.553
		c1.208,13.028,14.443,20.467,26.191,14.654c3.343-1.653,5.658-4.311,6.939-7.721c0.643-1.713,1.54-2.104,3.202-2.052
		c3.632,0.113,7.279,0.165,10.908-0.01c2.378-0.116,2.958,0.441,2.222,2.841c-3.671,11.904-11.708,19.159-23.75,21.479
		c-13.495,2.604-25.802,0.167-34.989-11.07c-5.829-7.132-7.741-15.732-7.793-24.728c-0.063-10.731,2.889-20.489,10.611-28.309
		c16.3-16.508,44.189-11.532,53.903,9.585C298.196,315.84,299.353,322.829,298.649,330.145z M259.607,236.023
		c0.003-7.547,0.042-15.096-0.027-22.643c-0.016-1.714,0.416-2.445,2.277-2.357c2.993,0.143,6.006,0.163,9-0.004
		c2.033-0.112,2.622,0.515,2.605,2.576c-0.089,13.277-0.047,26.555-0.047,39.833c0,2-0.079,4.007,0.028,6.001
		c0.084,1.526-0.425,2.096-1.991,2.049c-3.087-0.094-6.189-0.146-9.271,0.018c-2.013,0.106-2.655-0.474-2.62-2.556
		C259.684,251.303,259.607,243.662,259.607,236.023z M273.452,201.471c0.074,1.606-0.582,2.056-2.065,1.971
		c-1.625-0.094-3.265-0.022-4.897-0.022c-6.884,0.002-6.884,0.002-6.884-6.941c-0.002-4.536-0.002-4.536,4.65-4.534
		c2.358,0,4.721,0.094,7.072-0.031c1.724-0.093,2.191,0.593,2.119,2.21C273.339,196.568,273.337,199.025,273.452,201.471z
		 M372.36,350.125c-6.017,11.432-16.431,15.317-28.91,14.389c-7.475-0.558-14.341-2.521-19.757-9.378
		c0,2.537-0.063,4.329,0.021,6.115c0.056,1.205-0.404,1.567-1.569,1.557c-4.274-0.049-8.554-0.083-12.826,0.016
		c-1.655,0.037-1.684-0.831-1.675-2.042c0.03-4.912,0.015-9.823,0.015-14.736c0-25.927,0.035-51.853-0.059-77.779
		c-0.008-2.379,0.509-3.152,2.967-2.991c3.623,0.234,7.28,0.193,10.908,0.013c2.375-0.118,3.244,0.406,3.198,3.056
		c-0.185,10.002-0.075,20.007-0.075,29.977c0.323,0.126,0.518,0.229,0.765-0.045c12.44-13.698,37.959-10.255,46.957,6.704
		C380.221,319.874,380.188,335.247,372.36,350.125z M357.164,142.361c3.602,0.204,3.612,0.051,3.612-3.436
		c0-0.272,0.012-0.547-0.002-0.817c-0.654-10.105,5.145-13.328,13.827-12.737c2.235,0.153,3.211,0.782,3.054,3.238
		c-0.221,3.478-0.046,3.49-3.383,3.165c-4.334-0.419-6.156,1.119-6.32,5.336c-0.21,5.302-0.21,5.27,5.101,5.327
		c1.128,0.012,2.924-0.625,3.253,0.458c0.506,1.659,0.158,3.587,0.118,5.399c-0.01,0.395-0.411,0.557-0.796,0.574
		c-0.454,0.022-0.909-0.007-1.362,0.029c-2.046,0.175-4.84-0.938-5.942,0.5c-1.023,1.332-0.363,3.991-0.368,6.066
		c-0.017,9.363-0.062,18.726,0.04,28.089c0.021,1.943-0.561,2.425-2.438,2.395c-4.78-0.083-4.781,0.007-4.781-4.877
		c0-4.545,0-9.09-0.002-13.636c0-5.544-0.059-11.091,0.036-16.633c0.027-1.571-0.461-2.124-1.979-1.918
		c-0.624,0.084-1.285-0.074-1.904,0.027c-2.619,0.43-3.451-0.399-3.51-3.257C353.354,142.474,354.609,142.215,357.164,142.361z
		 M358.436,209.813c3.275,0.266,6.456,1.005,9.396,2.542c4.565,2.389,7.302,6.124,8.245,11.195c0.292,1.571-0.049,2.43-1.887,2.287
		c-1.539-0.122-3.092-0.026-4.636-0.026c-0.819,0.002-1.642-0.055-2.457,0.012c-2.363,0.193-4.271,0.115-4.885-2.99
		c-0.381-1.929-2.41-2.854-4.319-3.375c-2.685-0.733-5.391-0.68-8.088-0.035c-1.932,0.462-3.297,1.62-3.64,3.607
		c-0.339,1.951,0.777,3.289,2.354,4.238c3.106,1.867,6.674,2.257,10.11,3.035c3.187,0.719,6.377,1.387,9.449,2.523
		c5.093,1.887,9.016,4.955,9.558,10.736c0.604,6.429-1.26,12.187-7.19,15.34c-10.304,5.477-20.989,5.387-31.377,0.164
		c-4.717-2.372-7.238-6.707-7.845-12.06c-0.174-1.527,0.216-2.151,1.848-2.101c3.088,0.094,6.181,0.055,9.272,0.014
		c1.229-0.016,1.95,0.154,2.147,1.688c0.349,2.74,2.115,4.585,4.628,5.621c3.688,1.522,7.426,1.591,11.105-0.027
		c2.051-0.899,3.35-2.406,3.451-4.791c0.103-2.39-1.337-3.644-3.229-4.568c-4.208-2.061-8.832-2.683-13.322-3.762
		c-3.635-0.872-7.272-1.818-10.324-4.054c-6.97-5.105-5.98-16.99,1.86-21.853C344.752,209.398,351.569,209.257,358.436,209.813z
		 M331.416,140.962c6.19,0.081,11.006,2.272,14.565,6.091c2.126,2.063,3.612,4.595,4.594,7.443c1.164,3.069,1.631,6.268,1.56,9.362
		c0,0.018-0.001,0.035,0,0.052c0.117,4.442-0.577,8.709-2.651,12.527c-0.329,0.634-0.683,1.26-1.082,1.875
		c-3.941,6.072-10.015,9.271-17.721,9.152c-6.397-0.098-11.668-2.38-15.27-6.773c-2.406-2.698-3.981-6.159-4.864-10.153
		c-0.013-0.058-0.024-0.116-0.037-0.174c-0.972-4.005-0.974-8.035-0.014-12.051c0.677-3.743,2.025-7.028,4.39-9.814
		C318.609,143.434,324.244,140.872,331.416,140.962z M307.231,209.823c4.115,0.378,8.021,1.419,11.481,3.83
		c3.49,2.432,5.294,5.841,6.129,9.926c0.334,1.634,0.074,2.335-1.775,2.266c-3.087-0.115-6.184-0.035-9.277-0.027
		c-0.932,0.002-1.865,0.055-2.116-1.174c-0.863-4.183-4.052-5.217-7.678-5.652c-1.829-0.219-3.632,0.023-5.407,0.44
		c-1.924,0.457-3.336,1.578-3.642,3.595c-0.315,2.072,0.892,3.481,2.581,4.403c3.075,1.679,6.531,2.155,9.895,2.882
		c3.372,0.727,6.747,1.443,9.957,2.734c4.523,1.818,8.247,4.579,8.925,9.746c0.789,6.016-0.676,11.411-5.772,15.288
		c-3.109,2.365-6.712,3.647-10.543,4.146c-7.119,0.926-14.158,0.823-20.82-2.377c-4.925-2.369-7.896-6.274-9.041-11.595
		c-0.645-2.99-0.396-3.313,2.589-3.323c1.272-0.004,2.546,0,3.819,0c0.727,0,1.461,0.061,2.183-0.011
		c2.603-0.261,4.726-0.146,5.091,3.334c0.168,1.585,1.671,2.77,3.181,3.548c3.97,2.045,8.026,2.094,12.094,0.343
		c2.067-0.892,3.392-2.484,3.479-4.804c0.084-2.338-1.508-3.592-3.373-4.514c-3.455-1.707-7.239-2.316-10.937-3.225
		c-2.728-0.67-5.494-1.275-8.124-2.239c-4.753-1.743-8.628-4.508-9.071-10.113c-0.517-6.549,1.656-11.855,7.798-14.909
		C294.665,209.451,300.919,209.241,307.231,209.823z M266.567,142.365c4.26,0.155,4.264,0.043,4.264-4.165
		c0-2.363,0.05-4.729-0.021-7.09c-0.038-1.295,0.42-1.759,1.73-1.723c2.815,0.079,5.637,0.089,8.455-0.001
		c1.399-0.046,1.931,0.377,1.889,1.833c-0.092,3.088,0.058,6.184-0.063,9.271c-0.063,1.592,0.493,2.153,2.005,1.928
		c0.268-0.04,0.545-0.006,0.819-0.006c6.714,0.014,6.674,0.016,5.996,6.916c-0.114,1.162-0.577,1.303-1.509,1.285
		c-1.909-0.035-3.821,0.044-5.726-0.027c-1.176-0.045-1.575,0.362-1.567,1.551c0.047,6.818-0.059,13.639,0.071,20.455
		c0.064,3.504,1.132,4.235,5.137,4.238c3.551,0.001,3.551,0.001,3.551,3.479c0.003,6.132,0.003,6.158-6.242,6.123
		c-1.811-0.009-3.631-0.122-5.431-0.329c-6.038-0.702-9.01-4.018-9.088-10.137c-0.047-3.818-0.007-7.637-0.007-11.455
		c0-3.909-0.059-7.82,0.026-11.726c0.035-1.517-0.158-2.233-1.998-2.233c-5.276,0-5.09-0.112-5.345-5.339
		C263.388,142.593,264.366,142.285,266.567,142.365z M225.303,171.664c1.164,0.152,2.36,0.027,3.542,0.027
		c0.729,0,1.466,0.075,2.182-0.013c2.183-0.269,3.359,0.198,4.178,2.719c1.681,5.162,11.737,6.393,15.128,2.108
		c1.803-2.28,1.234-4.853-1.52-6.357c-3.229-1.767-6.861-2.278-10.382-3.113c-2.466-0.583-4.937-1.123-7.284-2.14
		c-3.721-1.608-6.573-3.943-6.933-8.288c-0.432-5.162,0.917-9.704,5.682-12.366c6.611-3.699,13.73-3.54,20.91-2.036
		c1.971,0.412,3.795,1.199,5.479,2.316c1.938,1.286,3.436,2.964,4.464,5.035c2.441,4.919,1.938,5.745-3.413,5.745
		c-1.183,0-2.375-0.102-3.545,0.023c-1.926,0.206-3.301-0.057-3.657-2.396c-0.198-1.291-1.396-2.136-2.595-2.627
		c-2.874-1.176-5.83-1.215-8.785-0.294c-1.384,0.433-2.354,1.295-2.534,2.858c-0.189,1.654,0.526,2.829,1.891,3.626
		c2.223,1.305,4.732,1.765,7.209,2.304c3.542,0.771,7.125,1.411,10.491,2.816c4.107,1.711,7.179,4.405,7.528,9.133
		c0.368,4.986-0.978,9.423-5.26,12.449c-5.253,3.714-11.288,4.247-17.46,3.818c-3.358-0.231-6.618-0.946-9.67-2.503
		c-4.279-2.185-6.728-5.65-7.665-10.313C222.934,172.443,223.097,171.369,225.303,171.664z M223.747,213.22
		c2.433,9.956,4.988,19.884,7.504,29.821c0.085,0.343,0.184,0.682,0.353,1.297c1.208-1.836,1.35-3.756,1.842-5.521
		c2.362-8.48,4.677-16.975,6.88-25.497c0.447-1.734,1.161-2.379,2.96-2.296c3.086,0.141,6.191,0.168,9.273-0.002
		c2.297-0.129,2.718,0.458,2.002,2.676c-4.251,13.213-8.342,26.477-12.57,39.698c-0.846,2.65-0.755,6.309-2.972,7.627
		c-2.036,1.21-5.292,0.409-8.011,0.424c-5.877,0.024-5.842-0.003-7.345-5.7c-2.393-9.083-4.837-18.149-7.482-28.058
		c-0.901,3.458-1.618,6.132-2.295,8.819c-1.888,7.478-3.821,14.947-5.592,22.452c-0.462,1.967-1.324,2.639-3.329,2.537
		c-3.266-0.164-6.547-0.093-9.822-0.019c-1.359,0.031-2.119-0.303-2.569-1.737c-4.889-15.606-9.834-31.193-14.812-46.771
		c-0.466-1.456-0.216-1.957,1.359-1.928c3.547,0.069,7.097,0.108,10.639-0.016c1.693-0.059,2.391,0.57,2.808,2.163
		c2.494,9.481,5.076,18.936,7.639,28.399c0.227,0.84,0.525,1.661,1.055,3.319c1.606-6.5,3.021-12.196,4.424-17.896
		c1.124-4.586,2.288-9.165,3.322-13.773c0.354-1.574,0.959-2.298,2.706-2.216c3.086,0.147,6.185,0.122,9.273,0.01
		C222.666,210.971,223.346,211.576,223.747,213.22z M193.05,142.191c13.483-3.87,25.501,3.989,27.402,17.917
		c0.954,7.002,0.954,7.002-5.958,7.002c-7.542,0-15.087,0.073-22.631-0.049c-2.076-0.036-2.433,0.641-2.119,2.512
		c0.72,4.304,2.999,7.015,7.047,8.062c4.441,1.151,9.394-0.288,11.776-3.679c0.842-1.199,1.638-1.665,3.073-1.603
		c2.697,0.118,5.403,0.033,8.147,0.033c-1.562,7.888-7.847,13.264-16.819,14.586c-12.135,1.791-22.39-5.099-24.906-16.737
		C175.277,157.348,181.625,145.467,193.05,142.191z M130.775,128.492c-0.008-1.921,0.286-2.79,2.464-2.592
		c2.437,0.221,4.918,0.17,7.363,0.012c1.811-0.118,2.312,0.466,2.28,2.265c-0.108,6.246-0.043,12.496-0.043,19.287
		c10.439-10.478,25.556-7.088,30.171,6.318c2.571,7.475,2.484,15.07-0.599,22.399c-5.149,12.251-20.619,14.935-29.635,5.256
		c-0.133,0.086-0.378,0.163-0.385,0.259c-0.355,4.204-0.355,4.273-4.736,4.177c-2.226-0.049-5.192,1.032-6.467-0.544
		c-1.084-1.34-0.362-4.178-0.362-6.354C130.812,162.147,130.85,145.32,130.775,128.492z M131.686,244.904
		c1.347,0.148,2.726,0.027,4.089,0.027c0.818,0,1.649,0.092,2.453-0.018c2.604-0.353,4.118,0.173,4.974,3.209
		c1.159,4.11,7.204,6.201,12.6,4.957c1.231-0.284,2.454-0.615,3.537-1.358c3.521-2.413,3.486-6.449-0.199-8.592
		c-3.509-2.042-7.516-2.598-11.396-3.49c-2.921-0.67-5.868-1.268-8.647-2.396c-4.842-1.963-8.501-4.988-8.736-10.709
		c-0.255-6.142,1.9-11.138,7.542-14.021c6.121-3.129,12.735-3.367,19.428-2.601c5.086,0.584,9.741,2.104,13.309,6.064
		c2.083,2.312,3.137,5.066,3.732,8.055c0.22,1.087-0.012,1.787-1.301,1.78c-3.456-0.012-6.912-0.001-10.367,0.004
		c-0.794,0-1.407-0.174-1.603-1.099c-0.947-4.434-4.347-5.402-8.182-5.752c-1.746-0.159-3.464,0.047-5.125,0.533
		c-1.858,0.543-3.223,1.63-3.434,3.758c-0.2,2.025,0.896,3.266,2.496,4.155c2.332,1.293,4.927,1.807,7.496,2.379
		c3.717,0.829,7.467,1.51,11.083,2.743c6.826,2.323,10.159,6.19,10.427,12.107c0.321,7.165-3.141,13.088-9.62,15.619
		c-8.809,3.438-17.781,3.509-26.606,0.062c-5.752-2.244-9.196-6.582-10.266-12.769C129.016,245.51,129.521,244.664,131.686,244.904z
		 M129.512,291.693c4.362,0.118,8.735,0.15,13.096-0.015c1.979-0.075,2.606,0.667,3.072,2.478
		c3.958,15.405,8.026,30.783,12.063,46.168c0.19,0.047,0.382,0.093,0.57,0.138c1.019-4.027,2.043-8.056,3.057-12.085
		c2.883-11.465,5.805-22.918,8.598-34.402c0.426-1.747,1.072-2.358,2.896-2.291c3.996,0.151,8.007,0.169,12.004-0.002
		c1.971-0.086,2.611,0.633,3.041,2.465c3.515,14.946,7.137,29.87,10.744,44.798c0.141,0.59,0.068,1.301,0.851,1.803
		c3.149-11.571,6.288-23.082,9.419-34.592c1.121-4.118,2.245-8.233,3.31-12.365c0.357-1.372,0.835-2.161,2.536-2.106
		c4.452,0.142,8.914,0.118,13.369,0.013c1.838-0.045,1.891,0.672,1.44,2.101c-7.071,22.415-14.137,44.832-21.123,67.275
		c-0.464,1.489-1.187,1.757-2.522,1.738c-4.184-0.055-8.375-0.141-12.552,0.031c-1.947,0.083-2.628-0.578-3.078-2.413
		c-3.625-14.832-7.357-29.637-11.06-44.451c-0.131-0.524-0.295-1.042-0.459-1.608c-0.918,0.648-0.814,1.64-1.023,2.485
		c-3.627,14.553-7.279,29.104-10.81,43.68c-0.427,1.766-1.098,2.35-2.892,2.298c-4.271-0.127-8.549-0.102-12.825-0.009
		c-1.577,0.033-2.39-0.351-2.899-2.014c-6.817-22.255-13.695-44.498-20.645-66.714C127.045,292.022,127.519,291.64,129.512,291.693z
		"/>
	<path d="M273.59,306.228c-10.15-6.813-24.887,0.351-25.863,12.53c-0.12,1.489,0.567,1.595,1.736,1.586
		c4.99-0.041,9.98-0.018,14.971-0.02c5.08,0,10.163,0.008,15.242-0.011c0.939-0.002,2.048,0.328,1.677-1.48
		C280.282,313.662,278.083,309.247,273.59,306.228z"/>
	<path d="M152.683,177.94c4.028-0.053,6.635-2.133,8.317-5.57c1.259-2.581,1.64-5.372,1.635-8.656
		c-0.057-2.504-0.465-5.364-1.821-8.021c-1.721-3.366-4.418-5.274-8.243-5.286c-3.829-0.01-6.648,1.851-8.215,5.274
		c-2.559,5.574-2.653,11.287-0.08,16.884C145.885,176.07,148.653,177.994,152.683,177.94z"/>
	<path d="M191.294,159.478c2.634-0.051,5.267-0.016,7.9-0.016c2.635-0.002,5.265-0.004,7.901-0.002c0.836,0,1.544,0.135,1.37-1.25
		c-0.557-4.44-3.989-7.6-8.719-7.81c-5-0.221-9.156,2.937-9.996,7.425C189.469,159.338,190.076,159.502,191.294,159.478z"/>
	<path fill="#E30613" d="M317.162,146.231c6.864-5.744,14.814-6.203,22.8-3.018c2.415,0.963,4.399,2.268,6.02,3.84
		c-3.56-3.819-8.375-6.011-14.565-6.091c-7.172-0.09-12.807,2.472-16.53,7.537C315.562,147.703,316.311,146.943,317.162,146.231z"/>
	<path fill="#E30613" d="M309.916,165.261c0.019-2.461,0.188-4.78,0.58-6.947c-0.96,4.017-0.958,8.046,0.014,12.051
		C310.08,168.381,309.788,166.393,309.916,165.261z"/>
	<path fill="#E30613" d="M352.135,163.911c-0.001-0.018,0-0.035,0-0.052c0.071-3.094-0.396-6.293-1.56-9.362
		c0.722,2.096,1.176,4.358,1.397,6.738C352.056,162.132,352.111,163.024,352.135,163.911z"/>
	<path fill="#E30613" d="M323.944,185.905c-3.588-1.008-6.39-2.809-8.533-5.214c3.602,4.393,8.872,6.675,15.27,6.773
		c7.706,0.12,13.779-3.08,17.721-9.152c0.399-0.614,0.753-1.241,1.082-1.875c-0.862,1.587-1.959,3.097-3.34,4.508
		C339.88,187.351,332.072,188.189,323.944,185.905z"/>
	<path d="M330.78,180.525c4.903,0.084,8.767-2.161,11.274-6.42c1.793-3.042,2.442-6.418,2.376-10.14
		c0.059-2.835-0.459-5.798-1.799-8.516c-2.309-4.68-6.045-7.47-11.384-7.547c-5.305-0.074-9.292,2.361-11.578,7.154
		c-2.953,6.185-2.944,12.496,0.117,18.638C322.005,178.141,325.874,180.442,330.78,180.525z"/>
	<path d="M326.875,313.101c-2.168,4.407-2.842,9.141-2.825,14.502c-0.113,3.915,0.545,8.21,2.338,12.252
		c2.827,6.374,7.517,10.406,14.682,10.971c6.584,0.519,12.004-1.723,15.718-7.314c5.824-8.771,5.548-23.93-0.475-32.597
		C348.816,300.125,332.675,301.314,326.875,313.101z"/>
</g>
</svg>
