<?xml version="1.0" encoding="utf-8"?>
<!-- Generator: Adobe Illustrator 22.0.0, SVG Export Plug-In . SVG Version: 6.00 Build 0)  -->
<svg version="1.1" id="Calque_1" xmlns="http://www.w3.org/2000/svg" xmlns:xlink="http://www.w3.org/1999/xlink" x="0px" y="0px"
	 viewBox="0 0 1232 456" style="enable-background:new 0 0 1232 456;" xml:space="preserve">
<style type="text/css">
	.st0{fill:#FFFFFF;}
</style>
<g id="XMLID_15_">
	<path id="XMLID_29_" class="st0" d="M311.1,328.8c-40.7,0-66.7-28.2-66.7-72.3s26-72.5,66.7-72.5s67.8,29.1,67.8,72.5
		C378.6,300.6,352.1,328.8,311.1,328.8z M311.1,210.6c-21.9,0-34.6,17.2-34.6,46c0,27.7,13.6,46,34.6,46c22.2,0,35.7-17.2,35.7-46
		C346.3,228.9,332.4,210.6,311.1,210.6z"/>
	<path id="XMLID_26_" class="st0" d="M448.1,328c-21.6,0-36.5-3-55.1-8.9l-2.2-0.6V120.3l32.1-5v82.5c11.9-10.2,24.4-15.2,38.8-15.2
		c35.2,0,57.9,26,57.9,69.5C519.3,301.1,489.4,328,448.1,328z M422.9,295.9c7.5,2.5,13.3,3.6,24.9,3.6c23,0,39.3-13.3,39.3-46.5
		c0-27.1-11.4-41.8-29.3-41.8c-11.9,0-23.5,7.2-34.9,20.8C422.9,231.9,422.9,295.9,422.9,295.9z"/>
	<path id="XMLID_25_" class="st0" d="M594.9,328.6c-37.1,0-62.3-29.6-62.3-72s26-72.3,63.4-72.3c16.1,0,29.6,4.2,39.9,11.9
		l-1.9,13.3c-10.5-8.3-22.4-13.6-38.2-13.6c-29.9,0-50.1,25.5-50.1,60.6s20.2,60.9,50.1,60.9c15.8,0,29.6-6.1,40.7-14.7l1.7,12.5
		C627.8,322.5,612.3,328.6,594.9,328.6"/>
	<path id="XMLID_22_" class="st0" d="M784.8,195.4c-30.2,0-49.8,24.6-49.8,60.6c0,36.8,19.9,60.9,49.8,60.9
		c30.5,0,50.1-24.1,50.1-60.9C835,220,815.3,195.4,784.8,195.4 M784.6,328.6c-37.1,0-62.3-29.6-62.3-72s26-72.3,62.6-72.3
		c37.1,0,63.1,29.3,63.1,72C847.7,298.9,821.4,328.6,784.6,328.6"/>
	<path id="XMLID_19_" class="st0" d="M1015.2,198.1h-24.6v116.3h24.6c36,0,59.3-19.7,59.3-58.4
		C1074.2,218.6,1050.1,198.1,1015.2,198.1 M1014.1,326.1h-36.8V186.2h37.1c46.5,0,72.8,28.2,72.8,69.8
		C1087.5,298.9,1058.7,326.1,1014.1,326.1"/>
	<path id="XMLID_18_" class="st0" d="M950.1,184.6v88.9c0,26.6-13.8,43.5-39.6,43.5c-25.8,0-39-18.3-39-44.6v-86.1l-12.5-1.9V274
		c0,32.1,18.8,54.3,51.5,54.3c32.7,0,52.3-21.6,52.3-55.4v-86.4L950.1,184.6z"/>
	<polygon id="XMLID_17_" class="st0" points="720.6,314.4 666.3,314.4 666.3,184.6 653.3,186.2 653.3,326.1 722.3,326.1 	"/>
	<path id="XMLID_16_" class="st0" d="M170.4,328.3c-7.2,0-13.8-1.1-18.6-1.9l-2.2-0.3l-5.3-31.6l4.4,1.1c6.1,1.7,11.9,2.5,21.9,2.5
		c18,0,26.3-8.3,26.3-27.1V149.1l33.5-5.3v129.6C230.5,308.6,209.2,328.3,170.4,328.3z"/>
</g>
</svg>
