<?xml version="1.0" encoding="utf-8"?>
<!-- Generator: Adobe Illustrator 16.0.4, SVG Export Plug-In . SVG Version: 6.00 Build 0)  -->
<!DOCTYPE svg PUBLIC "-//W3C//DTD SVG 1.1//EN" "http://www.w3.org/Graphics/SVG/1.1/DTD/svg11.dtd">
<svg version="1.1" id="Calque_1" xmlns="http://www.w3.org/2000/svg" xmlns:xlink="http://www.w3.org/1999/xlink" x="0px" y="0px"
	 width="100px" height="79.625px" viewBox="0 0 100 79.625" enable-background="new 0 0 100 79.625" xml:space="preserve">
<g>
	<path fill="#CECECE" d="M74.866,70.202H31.063c0.919-1.199,1.483-2.612,1.483-4.239V8.031h46.628v57.932
		C79.104,68.292,77.195,70.202,74.866,70.202z M80.518,5.205H31.063c-0.776,0-1.413,0.637-1.413,1.413v9.891H19.76
		c-0.776,0-1.413,0.637-1.413,1.413v42.319c0,0.776,0.637,1.413,1.413,1.413c0.776,0,1.413-0.637,1.413-1.413V19.335h8.478v46.628
		c0,2.333-1.906,4.239-4.239,4.239c-2.333,0-4.239-1.906-4.239-4.239c0-0.776-0.637-1.413-1.413-1.413
		c-0.776,0-1.413,0.637-1.413,1.413c0,3.886,3.179,7.065,7.065,7.065h49.455c3.885,0,7.064-3.18,7.064-7.065V6.618
		C81.931,5.838,81.294,5.205,80.518,5.205z"/>
	<path fill="#CECECE" d="M73.453,16.509H38.128c-0.776,0-1.413,0.637-1.413,1.413s0.637,1.413,1.413,1.413h35.325
		c0.776,0,1.413-0.637,1.413-1.413S74.229,16.509,73.453,16.509z"/>
	<path fill="#CECECE" d="M38.128,27.812h31.085c0.776,0,1.413-0.636,1.413-1.413s-0.637-1.413-1.413-1.413H38.128
		c-0.776,0-1.413,0.637-1.413,1.413S37.353,27.812,38.128,27.812z"/>
	<path fill="#CECECE" d="M57.91,43.355H38.128c-0.776,0-1.413,0.637-1.413,1.413s0.637,1.413,1.413,1.413H57.91
		c0.776,0,1.413-0.637,1.413-1.413S58.687,43.355,57.91,43.355z"/>
	<path fill="#CECECE" d="M57.91,49.008H38.128c-0.776,0-1.413,0.636-1.413,1.412s0.637,1.413,1.413,1.413H57.91
		c0.776,0,1.413-0.637,1.413-1.413S58.687,49.008,57.91,49.008z"/>
	<path fill="#CECECE" d="M57.91,54.659H38.128c-0.776,0-1.413,0.637-1.413,1.413s0.637,1.413,1.413,1.413H57.91
		c0.776,0,1.413-0.637,1.413-1.413S58.687,54.659,57.91,54.659z"/>
	<path fill="#CECECE" d="M57.91,61.725H38.128c-0.776,0-1.413,0.636-1.413,1.412s0.637,1.413,1.413,1.413H57.91
		c0.776,0,1.413-0.637,1.413-1.413S58.687,61.725,57.91,61.725z"/>
	<path fill="#CECECE" d="M72.04,54.659h-5.652v-8.478h5.652V54.659z M73.453,43.355h-8.479c-0.776,0-1.413,0.637-1.413,1.413v11.304
		c0,0.776,0.637,1.413,1.413,1.413h8.479c0.776,0,1.413-0.637,1.413-1.413V44.769C74.866,43.988,74.229,43.355,73.453,43.355z"/>
</g>
</svg>
