<?xml version="1.0" encoding="utf-8"?>
<!-- Generator: Adobe Illustrator 16.0.4, SVG Export Plug-In . SVG Version: 6.00 Build 0)  -->
<!DOCTYPE svg PUBLIC "-//W3C//DTD SVG 1.1//EN" "http://www.w3.org/Graphics/SVG/1.1/DTD/svg11.dtd">
<svg version="1.1" id="Calque_1" xmlns="http://www.w3.org/2000/svg" xmlns:xlink="http://www.w3.org/1999/xlink" x="0px" y="0px"
	 width="100px" height="79.625px" viewBox="0 0 100 79.625" enable-background="new 0 0 100 79.625" xml:space="preserve">
<g>
	<path fill="#CECECE" d="M87.632,26.577c-0.118-0.951-0.836-1.615-1.746-1.615c-0.324,0-0.655,0.091-0.963,0.267l-13.649,8.997
		v-6.218c0-2.722-2.141-4.854-4.872-4.854c-0.035,0-0.07,0-0.105,0.001c0.386-1.105,0.573-2.401,0.573-3.956
		c0-7.442-6.055-13.496-13.496-13.496c-4.979,0-9.477,2.652-11.798,6.938c-2.29-4.222-6.894-6.938-11.797-6.938
		c-7.442,0-13.496,6.054-13.496,13.496c0,1.49,0.174,2.686,0.58,3.957c-1.439-0.018-2.752,0.539-3.726,1.579
		c-0.876,0.937-1.335,2.132-1.259,3.273V65.76c0,2.763,2.083,4.846,4.845,4.846h49.865c2.762,0,4.844-2.083,4.844-4.846v-6.217
		l13.654,8.999c0.302,0.172,0.632,0.264,0.954,0.264c0.429,0,0.826-0.157,1.119-0.443c0.306-0.298,0.475-0.72,0.475-1.188
		L87.632,26.577z M84.079,29.656v34.141l-12.806-8.485V38.141L84.079,29.656z M53.373,29.298c-5.569,0-10.099-4.53-10.099-10.103
		c-0.073-2.616,0.907-5.104,2.757-7.007c1.91-1.964,4.586-3.09,7.342-3.09c5.568,0,10.099,4.531,10.099,10.1
		C63.472,24.768,58.941,29.298,53.373,29.298z M51.297,59.625c0-1.015-0.683-1.696-1.699-1.696H15.116V28.008
		c0-0.879,0.568-1.447,1.448-1.447h1.661c2.456,3.882,6.815,6.292,11.394,6.292c4.98,0,9.479-2.652,11.798-6.938
		c2.291,4.222,6.896,6.938,11.799,6.938c4.579,0,8.938-2.409,11.395-6.292h1.662c0.879,0,1.446,0.568,1.446,1.447v37.721h0.152
		c-0.052,0.807-0.605,1.321-1.441,1.321H16.564c-0.88,0-1.448-0.567-1.448-1.446v-4.279h34.481
		C50.614,61.324,51.297,60.642,51.297,59.625z M29.62,9.099c5.57,0,10.101,4.531,10.101,10.1c0,5.569-4.531,10.099-10.101,10.099
		c-5.569,0-10.099-4.53-10.099-10.099C19.521,13.63,24.051,9.099,29.62,9.099z"/>
	<path fill="#CECECE" d="M56.521,61.324h4.875c1.017,0,1.699-0.683,1.699-1.699c0-1.015-0.683-1.696-1.699-1.696h-4.875
		c-1.017,0-1.699,0.682-1.699,1.696C54.821,60.642,55.504,61.324,56.521,61.324z"/>
</g>
</svg>
