<?xml version="1.0" encoding="utf-8"?>
<!-- Generator: Adobe Illustrator 16.0.4, SVG Export Plug-In . SVG Version: 6.00 Build 0)  -->
<!DOCTYPE svg PUBLIC "-//W3C//DTD SVG 1.1//EN" "http://www.w3.org/Graphics/SVG/1.1/DTD/svg11.dtd">
<svg version="1.1" id="Calque_1" xmlns="http://www.w3.org/2000/svg" xmlns:xlink="http://www.w3.org/1999/xlink" x="0px" y="0px"
	 width="100px" height="79.625px" viewBox="0 0 100 79.625" enable-background="new 0 0 100 79.625" xml:space="preserve">
<g>
	<path fill="#CECECE" d="M72.299,34.969c0-11.984-9.268-21.826-21.184-22.606V6.724c0-0.436-0.144-0.773-0.462-1.092
		c-0.321-0.321-0.658-0.464-1.094-0.464c-16.433,0-29.802,13.369-29.802,29.801c0,15.898,12.37,28.891,28.246,29.78v1.725h-4.114
		c-3.631,0-6.585,2.954-6.585,6.585v1.556h24.511v-1.556c0-3.631-2.953-6.585-6.584-6.585h-4.115v-8.795
		C63.031,56.794,72.299,46.905,72.299,34.969z M48.003,8.306v3.948c-11.917,0.781-21.184,10.623-21.184,22.608
		s9.267,21.827,21.184,22.606v3.957c-13.905-0.681-25.134-12.445-25.134-26.457C22.869,20.811,33.868,9.195,48.003,8.306z
		 M49.559,15.021c11,0,19.949,8.949,19.949,19.948c0,11-8.949,19.949-19.949,19.949c-11,0-19.949-8.949-19.949-19.949
		C29.61,23.969,38.559,15.021,49.559,15.021z M40.726,71.502c0.554-1.154,1.774-1.916,3.163-1.916H55.23
		c1.348,0,2.518,0.732,3.129,1.916H40.726z"/>
	<path fill="#CECECE" d="M45.814,21.438h0.369l0.047-0.009c0.543-0.108,1.086-0.218,1.498-0.321
		c0.375-0.075,0.727-0.298,0.961-0.613c0.253-0.335,0.354-0.749,0.26-1.194c-0.261-0.785-0.896-1.312-1.579-1.312
		c-0.087,0-0.174,0.009-0.247,0.023c-0.647,0.108-1.187,0.216-1.727,0.324c-0.417,0.083-0.798,0.372-1.016,0.775
		c-0.203,0.374-0.235,0.8-0.114,1.079C44.417,20.938,45.038,21.438,45.814,21.438z"/>
	<path fill="#CECECE" d="M36.696,46.225c0.212,0.213,0.646,0.461,1.171,0.461c0.333,0,0.65-0.098,1.016-0.353
		c0.653-0.654,0.699-1.594,0.135-2.154c-2.235-2.662-3.417-5.846-3.417-9.21c0-3.365,1.182-6.549,3.42-9.213
		c0.919-1.123,2.059-2.055,3.448-2.808c0.582-0.438,0.783-1.307,0.445-2.138c-0.437-0.729-1.418-0.936-2.155-0.493
		c-1.52,0.868-2.973,2.086-4.087,3.422c-2.697,3.147-4.183,7.136-4.183,11.229C32.489,39.082,33.975,43.071,36.696,46.225z"/>
</g>
</svg>
