<?xml version="1.0" encoding="utf-8"?>
<!-- Generator: Adobe Illustrator 16.0.4, SVG Export Plug-In . SVG Version: 6.00 Build 0)  -->
<!DOCTYPE svg PUBLIC "-//W3C//DTD SVG 1.1//EN" "http://www.w3.org/Graphics/SVG/1.1/DTD/svg11.dtd">
<svg version="1.1" id="Calque_1" xmlns="http://www.w3.org/2000/svg" xmlns:xlink="http://www.w3.org/1999/xlink" x="0px" y="0px"
	 width="100px" height="79.625px" viewBox="0 0 100 79.625" enable-background="new 0 0 100 79.625" xml:space="preserve">
<path fill="#CECECE" d="M49.953,18.423c3.036,0,6.558,1.064,9.194,2.916c2.639,1.853,4.361,4.354,4.361,7.451
	c0,5.366-0.42,9.59-1.52,12.833c-1.101,3.244-2.803,5.512-5.707,7.327c-0.585,0.369-0.868,1.07-0.698,1.743l0.799,3.19
	c0.423,1.689,1.842,2.438,3.289,3.09c1.444,0.651,3.159,1.196,4.958,1.744c3.165,0.968,6.537,2.131,8.299,3.389
	c-5.799,6.018-13.946,9.744-22.976,9.744c-9.029,0-17.176-3.727-22.974-9.744c1.76-1.258,5.133-2.421,8.296-3.389
	c1.799-0.548,3.515-1.093,4.958-1.744c1.447-0.651,2.867-1.4,3.291-3.09l0.797-3.19c0.169-0.673-0.112-1.374-0.698-1.743
	c-2.903-1.815-4.605-4.083-5.706-7.327c-1.1-3.243-1.52-7.467-1.52-12.833c0-3.097,1.724-5.598,4.361-7.451
	C43.396,19.487,46.917,18.423,49.953,18.423z M49.953,4.868c-17.052,0-31.293,12.177-34.438,28.333
	c-0.414,2.092,2.726,2.716,3.14,0.622C21.513,19.142,34.417,8.058,49.953,8.058c17.635,0,31.896,14.261,31.896,31.896
	c0,7.446-2.538,14.312-6.804,19.734c-2.537-2.055-6.217-3.044-9.469-4.036c-1.79-0.547-3.463-1.05-4.61-1.569
	c-1.146-0.52-1.52-1.068-1.494-0.972l-0.548-2.169c2.915-2.108,4.94-4.875,6.104-8.297c1.292-3.8,1.669-8.331,1.669-13.855
	c0-4.302-2.467-7.791-5.705-10.067c-3.24-2.275-7.29-3.488-11.04-3.488s-7.799,1.213-11.039,3.488
	c-3.241,2.276-5.707,5.765-5.707,10.067c0,5.524,0.377,10.056,1.669,13.855c1.163,3.422,3.19,6.188,6.105,8.297l-0.547,2.169
	c0.024-0.097-0.349,0.452-1.495,0.972c-1.147,0.52-2.821,1.022-4.61,1.569c-3.252,0.992-6.932,1.981-9.47,4.036
	c-4.264-5.423-6.802-12.288-6.802-19.734c0.013-0.889-0.707-1.615-1.595-1.615s-1.608,0.727-1.595,1.615
	c0,19.357,15.728,35.086,35.085,35.086s35.085-15.729,35.085-35.086S69.311,4.868,49.953,4.868z"/>
</svg>
