<?xml version="1.0" encoding="utf-8"?>
<!-- Generator: Adobe Illustrator 16.0.4, SVG Export Plug-In . SVG Version: 6.00 Build 0)  -->
<!DOCTYPE svg PUBLIC "-//W3C//DTD SVG 1.1//EN" "http://www.w3.org/Graphics/SVG/1.1/DTD/svg11.dtd">
<svg version="1.1" id="Calque_1" xmlns="http://www.w3.org/2000/svg" xmlns:xlink="http://www.w3.org/1999/xlink" x="0px" y="0px"
	 width="100px" height="79.625px" viewBox="0 0 100 79.625" enable-background="new 0 0 100 79.625" xml:space="preserve">
<g>
	<path fill="#CECECE" d="M62.626,45.578c0.3-0.597,0.215-1.284-0.243-1.816l-1.334-1.448c-0.262-0.349-0.721-0.564-1.195-0.564
		h-2.815c-0.442,0-0.837,0.162-1.169,0.495l-1.364,1.488c-0.474,0.475-0.584,1.215-0.247,1.896l1.151,2.003L54.23,62.248
		l-0.188,2.449l-0.396,4.641c-0.077,0.532,0.152,1.083,0.638,1.471l3.287,2.348c0.1,0.064,0.46,0.274,0.89,0.274
		c0.35,0,0.667-0.105,0.927-0.301l3.227-2.306c0.491-0.329,0.744-0.898,0.667-1.432l-1.831-21.766L62.626,45.578z M57.516,44.436
		h1.828l0.508,0.547L59.2,46.144h-1.516l-0.673-1.168L57.516,44.436z M58.43,70.464l-2.093-1.485l0.341-3.903h1.755
		c0.305,0,0.577-0.117,0.775-0.309l0.026-0.025c0.193-0.199,0.31-0.472,0.31-0.777v-0.681c0-0.306-0.116-0.578-0.31-0.777
		l-0.026-0.025c-0.198-0.191-0.471-0.308-0.775-0.308h-1.5l1.141-13.807h0.745l1.708,20.61L58.43,70.464z"/>
	<path fill="#CECECE" d="M83.512,49.921l-0.552-0.437l-0.166-0.099c-0.154-0.065-0.454-0.175-0.721-0.175
		c-0.828,0-1.501,0.674-1.501,1.502c0,0.428,0.191,0.838,0.496,1.1c0,0,0.31,0.3,0.471,0.432c0.883,0.745,1.368,1.76,1.368,2.858
		v7.307c0,0.885,0.643,1.528,1.529,1.528s1.529-0.644,1.529-1.528v-7.307C85.966,53.099,85.072,51.21,83.512,49.921z"/>
	<path fill="#CECECE" d="M79.005,46.549c0.316,0.275,0.521,0.677,0.521,1.129c0,0.828-0.673,1.502-1.502,1.502
		c-0.828,0-1.502-0.674-1.502-1.502c0-0.829,0.674-1.503,1.502-1.503c0.255,0,0.491,0.07,0.703,0.183
		c-4.364-3.009-8.281-5.121-10.128-6.061v-8.889c1.327-1.208,2.109-2.944,2.109-4.713V16.062c0-6.125-4.982-11.109-11.107-11.109
		h-2.274c-6.126,0-11.109,4.983-11.109,11.109v10.632c0,1.858,0.764,3.559,2.109,4.725v8.958c-2.814,1.429-9.122,4.861-14.914,9.627
		c-1.536,1.263-2.453,3.198-2.453,5.18v7.306c0,0.886,0.643,1.528,1.529,1.528c0.886,0,1.529-0.643,1.529-1.528v-7.306
		c0-1.091,0.498-2.131,1.358-2.851c4.074-3.317,8.986-6.486,14.599-9.422l0.234-0.126c0.692-0.28,1.185-1.046,1.171-1.807V30.672
		c0-0.532-0.23-0.976-0.653-1.253c-0.898-0.58-1.456-1.624-1.456-2.725V16.062c0-4.439,3.611-8.05,8.052-8.05h2.272
		c4.44,0,8.052,3.611,8.052,8.05v10.632c0,1.103-0.558,2.147-1.456,2.724l-0.119,0.097c-0.2,0.2-0.534,0.617-0.534,1.157v10.226
		c0,0.688,0.402,1.343,1.143,1.787c0.21,0.098,4.797,2.19,10.544,6.284C77.224,48.97,79.14,46.644,79.005,46.549z"/>
	<path fill="#CECECE" d="M78.727,46.357c0.092,0.064,0.185,0.126,0.278,0.191C78.92,46.475,78.826,46.41,78.727,46.357z"/>
	<path fill="#CECECE" d="M76.521,47.678c0,0.828,0.674,1.502,1.502,1.502c0.829,0,1.502-0.674,1.502-1.502
		c0-0.452-0.204-0.854-0.521-1.129c-0.094-0.065-0.187-0.127-0.278-0.191c-0.212-0.112-0.448-0.183-0.703-0.183
		C77.195,46.175,76.521,46.849,76.521,47.678z"/>
</g>
<g>
	<path fill="#CECECE" d="M28.067,37.532c0.19-0.379,0.136-0.815-0.154-1.153l-0.846-0.918c-0.167-0.221-0.458-0.357-0.758-0.357
		h-1.786c-0.281,0-0.531,0.103-0.741,0.313l-0.865,0.944c-0.301,0.301-0.371,0.771-0.157,1.202l0.73,1.269l-0.748,9.271
		l-0.119,1.555l-0.251,2.943c-0.049,0.338,0.096,0.688,0.404,0.932l2.085,1.49c0.063,0.041,0.292,0.174,0.564,0.174
		c0.221,0,0.423-0.066,0.587-0.191l2.046-1.461c0.312-0.211,0.473-0.57,0.423-0.91L27.322,38.83L28.067,37.532z M24.826,36.806h1.16
		l0.322,0.348l-0.413,0.737h-0.961l-0.427-0.742L24.826,36.806z M25.406,53.316l-1.328-0.943l0.216-2.477h1.113
		c0.193,0,0.366-0.072,0.492-0.195l0.017-0.016c0.123-0.127,0.197-0.299,0.197-0.492V48.76c0-0.191-0.074-0.365-0.197-0.492
		l-0.017-0.016c-0.125-0.121-0.298-0.195-0.492-0.195h-0.952l0.724-8.756h0.473l1.083,13.072L25.406,53.316z"/>
	<path fill="#CECECE" d="M38.456,38.146c0.201,0.176,0.331,0.43,0.331,0.717c0,0.525-0.427,0.951-0.953,0.951
		s-0.953-0.426-0.953-0.951s0.427-0.953,0.953-0.953c0.162,0,0.312,0.045,0.445,0.115c-2.768-1.909-5.252-3.248-6.423-3.843v-5.639
		c0.841-0.766,1.338-1.867,1.338-2.989v-6.744c0-3.885-3.161-7.046-7.045-7.046h-1.443c-3.885,0-7.046,3.161-7.046,7.046v6.744
		c0,1.178,0.485,2.257,1.337,2.997v5.682c-1.785,0.905-5.785,3.083-9.459,6.107c-0.974,0.799-1.555,2.027-1.555,3.283v4.635
		c0,0.561,0.408,0.969,0.97,0.969s0.97-0.408,0.97-0.969v-4.635c0-0.691,0.316-1.352,0.862-1.807
		c2.584-2.104,5.699-4.115,9.259-5.977l0.149-0.079c0.439-0.178,0.751-0.663,0.743-1.146v-6.537c0-0.337-0.146-0.619-0.415-0.795
		c-0.569-0.368-0.923-1.03-0.923-1.728v-6.744c0-2.815,2.291-5.106,5.106-5.106h1.442c2.816,0,5.106,2.291,5.106,5.106v6.744
		c0,0.7-0.354,1.362-0.923,1.728l-0.076,0.061c-0.127,0.127-0.339,0.392-0.339,0.734v6.485c0,0.437,0.255,0.853,0.725,1.133
		c0.133,0.063,3.042,1.391,6.688,3.986C37.326,39.682,38.542,38.207,38.456,38.146z"/>
	<path fill="#CECECE" d="M38.279,38.025c0.059,0.041,0.118,0.08,0.177,0.121C38.402,38.1,38.342,38.059,38.279,38.025z"/>
	<path fill="#CECECE" d="M36.881,38.863c0,0.525,0.427,0.951,0.953,0.951s0.953-0.426,0.953-0.951c0-0.287-0.13-0.541-0.331-0.717
		c-0.059-0.041-0.118-0.08-0.177-0.121c-0.134-0.07-0.284-0.115-0.445-0.115C37.308,37.91,36.881,38.338,36.881,38.863z"/>
</g>
<circle fill="#CECECE" cx="40.417" cy="40.817" r="0.961"/>
</svg>
