<?xml version="1.0" encoding="utf-8"?>
<!-- Generator: Adobe Illustrator 16.0.4, SVG Export Plug-In . SVG Version: 6.00 Build 0)  -->
<!DOCTYPE svg PUBLIC "-//W3C//DTD SVG 1.1//EN" "http://www.w3.org/Graphics/SVG/1.1/DTD/svg11.dtd">
<svg version="1.1" id="Calque_1" xmlns="http://www.w3.org/2000/svg" xmlns:xlink="http://www.w3.org/1999/xlink" x="0px" y="0px"
	 width="100px" height="79.625px" viewBox="0 0 100 79.625" enable-background="new 0 0 100 79.625" xml:space="preserve">
<path fill="#CECECE" d="M43.971,63.797c-0.269,0-0.542-0.072-0.788-0.225c-0.705-0.436-0.922-1.36-0.487-2.064l26.149-42.275
	c0.435-0.705,1.36-0.922,2.064-0.487c0.704,0.436,0.923,1.36,0.486,2.065L45.249,63.086C44.965,63.545,44.474,63.797,43.971,63.797z
	"/>
<path fill="#CECECE" d="M43.927,63.836c-0.384,0-0.768-0.146-1.061-0.439L25.694,46.217c-0.585-0.586-0.585-1.536,0-2.122
	c0.586-0.585,1.536-0.585,2.122,0l17.172,17.179c0.585,0.586,0.585,1.536,0,2.121C44.695,63.689,44.311,63.836,43.927,63.836z"/>
<path fill="#CECECE" d="M49.8,74.999c-5.283,0-10.359-1.148-15.087-3.415c-0.748-0.357-1.063-1.254-0.705-2.001
	c0.358-0.748,1.254-1.063,2-0.704c4.321,2.07,8.961,3.12,13.792,3.12c17.618,0,31.952-14.334,31.952-31.953
	c0-17.619-14.334-31.953-31.952-31.953c-17.619,0-31.953,14.334-31.953,31.953c0,8.303,3.17,16.17,8.924,22.151
	c0.574,0.597,0.556,1.547-0.041,2.121c-0.597,0.575-1.547,0.556-2.121-0.041c-6.295-6.543-9.762-15.148-9.762-24.231
	c0-19.273,15.68-34.953,34.953-34.953c19.272,0,34.952,15.68,34.952,34.953C84.752,59.319,69.072,74.999,49.8,74.999z"/>
</svg>
