<?xml version="1.0" encoding="utf-8"?>
<!-- Generator: Adobe Illustrator 16.0.4, SVG Export Plug-In . SVG Version: 6.00 Build 0)  -->
<!DOCTYPE svg PUBLIC "-//W3C//DTD SVG 1.1//EN" "http://www.w3.org/Graphics/SVG/1.1/DTD/svg11.dtd">
<svg version="1.1" id="Calque_1" xmlns="http://www.w3.org/2000/svg" xmlns:xlink="http://www.w3.org/1999/xlink" x="0px" y="0px"
	 width="100px" height="79.625px" viewBox="0 0 100 79.625" enable-background="new 0 0 100 79.625" xml:space="preserve">
<g>
	<path fill="#CECECE" d="M11.946,53.959v-5.121h42.092v-3.187H11.946V10.573c0-0.568,0.462-1.03,1.03-1.03H70.42
		c0.567,0,1.029,0.462,1.029,1.03v17.533h3.188V10.573c0-2.326-1.892-4.218-4.218-4.218H12.977c-2.326,0-4.218,1.892-4.218,4.218
		v43.39c0,2.326,1.892,4.218,4.218,4.218h19.547V69.21h-6.78v3.188h24.116c0.878,0,1.593-0.714,1.593-1.592v-12.63h4.113v-3.188
		H12.977C12.409,54.988,11.946,54.526,11.946,53.959z M35.708,69.21V58.177h12.561V69.21H35.708z"/>
	<rect x="37.552" y="50.324" fill="#CECECE" width="8.026" height="3.188"/>
	<path fill="#CECECE" d="M17.929,15.42h4.077v-3.188h-5.673c-0.877,0-1.591,0.714-1.591,1.591v9.029h3.188V15.42z"/>
	<rect x="14.741" y="25.138" fill="#CECECE" width="3.188" height="4.935"/>
	<path fill="#CECECE" d="M83.251,29.133H60.854c-2.128,0-3.859,1.731-3.859,3.86V68.86c0,2.13,1.731,3.862,3.859,3.862h22.396
		c2.128,0,3.859-1.732,3.859-3.862V32.993C87.11,30.865,85.379,29.133,83.251,29.133z M60.183,63.511h23.745l-0.005,5.354
		c0,0.37-0.302,0.672-0.672,0.672H60.854c-0.37,0-0.672-0.302-0.672-0.672V63.511z M60.183,60.323V42.191h23.745v18.132H60.183z
		 M83.923,39.003h-23.74v-6.01c0-0.371,0.302-0.672,0.672-0.672h22.396c0.37,0,0.672,0.302,0.672,0.672V39.003z"/>
	<rect x="68.812" y="64.932" fill="#CECECE" width="6.483" height="3.188"/>
</g>
</svg>
