<?xml version="1.0" encoding="utf-8"?>
<!-- Generator: Adobe Illustrator 16.0.4, SVG Export Plug-In . SVG Version: 6.00 Build 0)  -->
<!DOCTYPE svg PUBLIC "-//W3C//DTD SVG 1.1//EN" "http://www.w3.org/Graphics/SVG/1.1/DTD/svg11.dtd">
<svg version="1.1" id="Calque_1" xmlns="http://www.w3.org/2000/svg" xmlns:xlink="http://www.w3.org/1999/xlink" x="0px" y="0px"
	 width="100px" height="79.625px" viewBox="0 0 100 79.625" enable-background="new 0 0 100 79.625" xml:space="preserve">
<g>
	<path fill="#CECECE" d="M72.355,41.475H44.081l14.137-24.504c0.206-0.354,0.26-0.767,0.152-1.163
		c-0.108-0.396-0.364-0.723-0.714-0.918c-4.899-2.833-10.507-4.331-16.218-4.331c-17.883,0-32.433,14.549-32.433,32.433
		c0,17.884,14.549,32.433,32.423,32.433h0.027c0.834,0,1.513-0.68,1.513-1.517c0-0.836-0.678-1.516-1.53-1.516
		c-16.211,0-29.4-13.189-29.4-29.4c0-16.211,13.189-29.401,29.4-29.401c4.666,0,9.149,1.088,13.337,3.235l-14.66,25.409
		c-0.273,0.476-0.272,1.043,0.002,1.517c0.274,0.473,0.765,0.755,1.321,0.755h29.287C70.033,58.114,60.33,69.317,46.951,71.858
		c-0.799,0.151-1.304,0.819-1.229,1.622c0.076,0.806,0.697,1.392,1.478,1.392h0c0.102,0,0.208-0.01,0.318-0.031
		c15.27-2.897,26.353-16.292,26.353-31.85C73.871,42.155,73.191,41.475,72.355,41.475z"/>
	<path fill="#CECECE" d="M70.979,6.958c-0.3-0.175-0.655-0.243-0.997-0.19c-0.463,0.073-0.859,0.35-1.086,0.754L53.436,34.579
		c-0.267,0.479-0.26,1.047,0.019,1.52c0.275,0.468,0.762,0.747,1.308,0.747l25.062-0.003c0.896,0.097,1.669-0.621,1.669-1.513
		c0-0.839-0.678-1.521-1.51-1.521c-0.053,0-0.105,0.002-0.102,0.005H57.37l13.372-23.401c8.414,5.507,13.42,14.778,13.42,24.901
		c-0.023,0.793,0.548,1.463,1.32,1.557c0.068,0.009,0.137,0.014,0.204,0.014c0.403,0,0.797-0.168,1.08-0.461
		c0.29-0.3,0.442-0.695,0.428-1.094C87.194,23.661,80.981,12.789,70.979,6.958z"/>
</g>
</svg>
