<?xml version="1.0" encoding="utf-8"?>
<!-- Generator: Adobe Illustrator 16.0.4, SVG Export Plug-In . SVG Version: 6.00 Build 0)  -->
<!DOCTYPE svg PUBLIC "-//W3C//DTD SVG 1.1//EN" "http://www.w3.org/Graphics/SVG/1.1/DTD/svg11.dtd">
<svg version="1.1" id="Calque_1" xmlns="http://www.w3.org/2000/svg" xmlns:xlink="http://www.w3.org/1999/xlink" x="0px" y="0px"
	 width="100px" height="79.625px" viewBox="0 0 100 79.625" enable-background="new 0 0 100 79.625" xml:space="preserve">
<g>
	<path fill="#CECECE" d="M32.375,22.825c-9.383,0-17.017,7.633-17.017,17.015c0,9.383,7.633,17.017,17.017,17.017
		c9.38,0,17.012-7.633,17.012-17.017C49.387,30.458,41.755,22.825,32.375,22.825z M32.375,53.673
		c-7.627,0-13.833-6.206-13.833-13.833c0-7.627,6.205-13.832,13.833-13.832c7.626,0,13.831,6.205,13.831,13.832
		C46.206,47.467,40.001,53.673,32.375,53.673z"/>
	<path fill="#CECECE" d="M70.939,47.067c-3.653,0-7.067,1.418-9.653,4.001l-11.338-6.05l-0.389,0.93
		c-0.589,1.418-1.256,3.026-2.868,5.236l-0.331,0.453l11.224,6.055c-0.243,1.026-0.366,2.062-0.366,3.086
		c0,7.558,6.148,13.706,13.705,13.706c7.558,0,13.707-6.148,13.707-13.706C84.631,53.218,78.488,47.067,70.939,47.067z M70.939,71.3
		c-5.802,0-10.522-4.721-10.522-10.522s4.721-10.522,10.522-10.522c5.801,0,10.521,4.721,10.521,10.522S76.74,71.3,70.939,71.3z
		 M59.271,53.589c-0.206,0.341-0.401,0.696-0.585,1.063l-7.735-4.165c0.189-0.331,0.375-0.675,0.559-1.039L59.271,53.589z"/>
	<path fill="#CECECE" d="M19.769,39.84v0.489h3.184V39.84c0-5.195,4.227-9.421,9.422-9.421h0.489v-3.184h-0.489
		C25.424,27.235,19.769,32.89,19.769,39.84z"/>
	<path fill="#CECECE" d="M46.694,28.479c0.093,0.141,0.203,0.298,0.327,0.474c0.685,0.979,1.833,2.618,2.704,5.196l0.185,0.546
		l11.374-6.069c2.589,2.583,6.002,4.001,9.652,4.001c7.558,0,13.706-6.148,13.706-13.706c0-7.568-6.146-13.725-13.702-13.725
		c-7.559,0-13.706,6.148-13.706,13.706c0,1.027,0.123,2.063,0.365,3.086l-11.203,6.043L46.694,28.479z M50.95,29.189l7.732-4.165
		c0.185,0.372,0.38,0.728,0.586,1.065l-7.762,4.138C51.319,29.854,51.136,29.51,50.95,29.189z M70.939,8.38
		c5.801,0,10.521,4.72,10.521,10.522c0,5.803-4.721,10.524-10.521,10.524c-5.802,0-10.522-4.721-10.522-10.525
		c-0.007-2.799,1.082-5.436,3.064-7.424C65.474,9.48,68.122,8.38,70.939,8.38z"/>
	<rect x="69.346" y="38.247" fill="#CECECE" width="3.183" height="3.184"/>
	<rect x="64.936" y="38.247" fill="#CECECE" width="3.183" height="3.184"/>
	<rect x="73.756" y="38.247" fill="#CECECE" width="3.183" height="3.184"/>
</g>
</svg>
